<?xml version="1.0" encoding="UTF-8"?>
<svg xmlns="http://www.w3.org/2000/svg" xmlns:xlink="http://www.w3.org/1999/xlink" width="500pt" height="500pt" viewBox="0 0 500 500" version="1.1">
<g id="surface1">
<path style=" stroke:none;fill-rule:nonzero;fill:#000000;fill-opacity:1;" d="M 49.601563 39.683594 C 22.320313 39.683594 0 62.003906 0 89.285156 L 0 376.984375 C 0 404.265625 22.320313 426.585938 49.601563 426.585938 L 208.332031 426.585938 C 224.84375 426.585938 238.09375 439.996094 238.09375 456.347656 C 238.09375 459.410156 239.527344 462.316406 241.933594 464.175781 C 244.375 466.074219 247.511719 466.734375 250.496094 465.960938 C 253.09375 465.300781 255.339844 463.632813 256.695313 461.308594 C 257.550781 459.796875 257.976563 458.09375 257.9375 456.347656 C 257.9375 439.996094 271.191406 426.585938 287.699219 426.585938 L 446.429688 426.585938 C 473.710938 426.585938 496.03125 404.265625 496.03125 376.984375 L 496.03125 89.285156 C 496.03125 62.003906 473.710938 39.683594 446.429688 39.683594 L 287.699219 39.683594 C 271.5 39.683594 257.082031 47.742188 248.015625 59.832031 C 238.949219 47.742188 224.53125 39.683594 208.332031 39.683594 Z M 49.601563 59.523438 L 208.332031 59.523438 C 224.878906 59.523438 238.09375 72.738281 238.09375 89.285156 L 238.09375 417.90625 C 229.6875 411.359375 219.726563 406.746094 208.332031 406.746094 L 49.601563 406.746094 C 33.054688 406.746094 19.839844 393.53125 19.839844 376.984375 L 19.839844 89.285156 C 19.839844 72.738281 33.054688 59.523438 49.601563 59.523438 Z M 287.699219 59.523438 L 446.429688 59.523438 C 462.976563 59.523438 476.191406 72.738281 476.191406 89.285156 L 476.191406 376.984375 C 476.191406 393.53125 462.976563 406.746094 446.429688 406.746094 L 287.699219 406.746094 C 276.304688 406.746094 266.347656 411.359375 257.9375 417.90625 L 257.9375 89.285156 C 257.9375 72.738281 271.152344 59.523438 287.699219 59.523438 Z M 123.078125 89.285156 C 113.273438 89.285156 104.746094 93.664063 97.964844 99.828125 C 91.183594 105.988281 85.953125 113.699219 81.84375 122.457031 C 73.628906 139.933594 69.445313 160.824219 69.445313 178.570313 C 69.445313 203.839844 78.746094 218.332031 87.425781 226.316406 C 91.765625 230.304688 95.5625 232.902344 97.347656 234.683594 C 99.128906 236.46875 99.207031 236.273438 99.207031 238.09375 L 99.207031 317.460938 C 99.207031 338.890625 99.941406 351.5625 103.238281 361.171875 C 104.863281 365.976563 107.539063 370.394531 111.605469 373.265625 C 115.675781 376.132813 120.480469 376.984375 124.316406 376.984375 C 128.542969 376.984375 133.464844 375.859375 137.339844 372.644531 C 141.214844 369.425781 143.578125 365.085938 145.089844 360.242188 C 148.113281 350.554688 148.808594 337.613281 148.808594 317.460938 L 148.808594 238.09375 C 148.808594 236.273438 148.617188 236.429688 150.359375 234.683594 C 152.101563 232.941406 155.902344 230.578125 160.28125 226.625 C 169.039063 218.71875 178.570313 204.226563 178.570313 178.570313 C 178.570313 159.542969 173.960938 138.773438 165.242188 121.527344 C 156.519531 104.28125 142.375 89.285156 123.078125 89.285156 Z M 123.078125 109.128906 C 131.875 109.128906 140.59375 116.453125 147.570313 130.207031 C 154.542969 143.964844 158.730469 162.875 158.730469 178.570313 C 158.730469 200.039063 153.382813 206.203125 147.257813 211.742188 C 144.199219 214.496094 140.554688 216.976563 136.71875 220.734375 C 132.882813 224.492188 128.96875 230.847656 128.96875 238.09375 L 128.96875 317.460938 C 128.96875 336.992188 127.804688 348.851563 126.179688 354.042969 C 125.363281 356.640625 124.472656 357.257813 124.628906 357.144531 C 124.78125 357.027344 125.480469 357.144531 124.316406 357.144531 C 122.769531 357.144531 122.84375 356.988281 123.078125 357.144531 C 123.308594 357.296875 122.960938 357.296875 122.148438 354.972656 C 120.558594 350.324219 119.046875 338.191406 119.046875 317.460938 L 119.046875 238.09375 C 119.046875 230.847656 115.40625 224.570313 111.605469 220.734375 C 107.808594 216.898438 104.167969 214.261719 101.066406 211.433594 C 94.867188 205.777344 89.285156 199.613281 89.285156 178.570313 C 89.285156 164.078125 93.160156 145.28125 99.828125 131.136719 C 103.160156 124.085938 107.226563 118.078125 111.296875 114.398438 C 115.367188 110.714844 118.816406 109.128906 123.078125 109.128906 Z M 294.828125 119.046875 C 289.363281 119.824219 285.527344 124.898438 286.304688 130.363281 C 287.078125 135.828125 292.15625 139.664063 297.617188 138.890625 L 386.90625 138.890625 C 390.46875 138.925781 393.800781 137.066406 395.625 133.96875 C 397.40625 130.867188 397.40625 127.070313 395.625 123.96875 C 393.800781 120.867188 390.46875 119.007813 386.90625 119.046875 L 297.617188 119.046875 C 297.308594 119.046875 297 119.046875 296.6875 119.046875 C 296.378906 119.046875 296.070313 119.046875 295.757813 119.046875 C 295.449219 119.046875 295.140625 119.046875 294.828125 119.046875 Z M 423.796875 119.046875 C 418.332031 119.824219 414.496094 124.898438 415.273438 130.363281 C 416.046875 135.828125 421.125 139.664063 426.585938 138.890625 L 436.507813 138.890625 C 440.074219 138.925781 443.40625 137.066406 445.226563 133.96875 C 447.011719 130.867188 447.011719 127.070313 445.226563 123.96875 C 443.40625 120.867188 440.074219 119.007813 436.507813 119.046875 L 426.585938 119.046875 C 426.277344 119.046875 425.96875 119.046875 425.65625 119.046875 C 425.347656 119.046875 425.039063 119.046875 424.726563 119.046875 C 424.417969 119.046875 424.105469 119.046875 423.796875 119.046875 Z M 294.828125 168.652344 C 289.363281 169.425781 285.527344 174.503906 286.304688 179.964844 C 287.078125 185.429688 292.15625 189.265625 297.617188 188.492188 L 386.90625 188.492188 C 390.46875 188.53125 393.800781 186.671875 395.625 183.570313 C 397.40625 180.46875 397.40625 176.671875 395.625 173.574219 C 393.800781 170.472656 390.46875 168.613281 386.90625 168.652344 L 297.617188 168.652344 C 297.308594 168.652344 297 168.652344 296.6875 168.652344 C 296.378906 168.652344 296.070313 168.652344 295.757813 168.652344 C 295.449219 168.652344 295.140625 168.652344 294.828125 168.652344 Z M 423.796875 168.652344 C 418.332031 169.425781 414.496094 174.503906 415.273438 179.964844 C 416.046875 185.429688 421.125 189.265625 426.585938 188.492188 L 436.507813 188.492188 C 440.074219 188.53125 443.40625 186.671875 445.226563 183.570313 C 447.011719 180.46875 447.011719 176.671875 445.226563 173.574219 C 443.40625 170.472656 440.074219 168.613281 436.507813 168.652344 L 426.585938 168.652344 C 426.277344 168.652344 425.96875 168.652344 425.65625 168.652344 C 425.347656 168.652344 425.039063 168.652344 424.726563 168.652344 C 424.417969 168.652344 424.105469 168.652344 423.796875 168.652344 Z M 294.828125 218.253906 C 289.363281 219.027344 285.527344 224.105469 286.304688 229.570313 C 287.078125 235.035156 292.15625 238.871094 297.617188 238.09375 L 386.90625 238.09375 C 390.46875 238.132813 393.800781 236.273438 395.625 233.171875 C 397.40625 230.074219 397.40625 226.277344 395.625 223.175781 C 393.800781 220.074219 390.46875 218.214844 386.90625 218.253906 L 297.617188 218.253906 C 297.308594 218.253906 297 218.253906 296.6875 218.253906 C 296.378906 218.253906 296.070313 218.253906 295.757813 218.253906 C 295.449219 218.253906 295.140625 218.253906 294.828125 218.253906 Z M 423.796875 218.253906 C 418.332031 219.027344 414.496094 224.105469 415.273438 229.570313 C 416.046875 235.035156 421.125 238.871094 426.585938 238.09375 L 436.507813 238.09375 C 440.074219 238.132813 443.40625 236.273438 445.226563 233.171875 C 447.011719 230.074219 447.011719 226.277344 445.226563 223.175781 C 443.40625 220.074219 440.074219 218.214844 436.507813 218.253906 L 426.585938 218.253906 C 426.277344 218.253906 425.96875 218.253906 425.65625 218.253906 C 425.347656 218.253906 425.039063 218.253906 424.726563 218.253906 C 424.417969 218.253906 424.105469 218.253906 423.796875 218.253906 Z M 294.828125 267.855469 C 289.363281 268.632813 285.527344 273.707031 286.304688 279.171875 C 287.078125 284.636719 292.15625 288.472656 297.617188 287.699219 L 386.90625 287.699219 C 390.46875 287.738281 393.800781 285.878906 395.625 282.777344 C 397.40625 279.675781 397.40625 275.878906 395.625 272.777344 C 393.800781 269.679688 390.46875 267.820313 386.90625 267.855469 L 297.617188 267.855469 C 297.308594 267.855469 297 267.855469 296.6875 267.855469 C 296.378906 267.855469 296.070313 267.855469 295.757813 267.855469 C 295.449219 267.855469 295.140625 267.855469 294.828125 267.855469 Z M 423.796875 267.855469 C 418.332031 268.632813 414.496094 273.707031 415.273438 279.171875 C 416.046875 284.636719 421.125 288.472656 426.585938 287.699219 L 436.507813 287.699219 C 440.074219 287.738281 443.40625 285.878906 445.226563 282.777344 C 447.011719 279.675781 447.011719 275.878906 445.226563 272.777344 C 443.40625 269.679688 440.074219 267.820313 436.507813 267.855469 L 426.585938 267.855469 C 426.277344 267.855469 425.96875 267.855469 425.65625 267.855469 C 425.347656 267.855469 425.039063 267.855469 424.726563 267.855469 C 424.417969 267.855469 424.105469 267.855469 423.796875 267.855469 Z M 294.828125 317.460938 C 289.363281 318.234375 285.527344 323.3125 286.304688 328.777344 C 287.078125 334.238281 292.15625 338.078125 297.617188 337.300781 L 386.90625 337.300781 C 390.46875 337.339844 393.800781 335.480469 395.625 332.378906 C 397.40625 329.28125 397.40625 325.480469 395.625 322.382813 C 393.800781 319.28125 390.46875 317.421875 386.90625 317.460938 L 297.617188 317.460938 C 297.308594 317.460938 297 317.460938 296.6875 317.460938 C 296.378906 317.460938 296.070313 317.460938 295.757813 317.460938 C 295.449219 317.460938 295.140625 317.460938 294.828125 317.460938 Z M 423.796875 317.460938 C 418.332031 318.234375 414.496094 323.3125 415.273438 328.777344 C 416.046875 334.238281 421.125 338.078125 426.585938 337.300781 L 436.507813 337.300781 C 440.074219 337.339844 443.40625 335.480469 445.226563 332.378906 C 447.011719 329.28125 447.011719 325.480469 445.226563 322.382813 C 443.40625 319.28125 440.074219 317.421875 436.507813 317.460938 L 426.585938 317.460938 C 426.277344 317.460938 425.96875 317.460938 425.65625 317.460938 C 425.347656 317.460938 425.039063 317.460938 424.726563 317.460938 C 424.417969 317.460938 424.105469 317.460938 423.796875 317.460938 Z "/>
</g>
</svg>
