<?xml version="1.0" encoding="UTF-8"?>
<svg xmlns="http://www.w3.org/2000/svg" xmlns:xlink="http://www.w3.org/1999/xlink" width="500pt" height="500pt" viewBox="0 0 500 500" version="1.1">
<g id="surface1">
<path style=" stroke:none;fill-rule:nonzero;fill:#000000;fill-opacity:1;" d="M 248.015625 0 C 198.800781 0 158.730469 44.488281 158.730469 99.207031 C 158.730469 153.925781 198.800781 198.414063 248.015625 198.414063 C 297.269531 198.414063 337.300781 153.925781 337.300781 99.207031 C 337.300781 44.488281 297.269531 0 248.015625 0 Z M 248.015625 208.953125 C 196.746094 208.953125 159.039063 215.269531 121.835938 229.726563 C 106.453125 235.691406 97.035156 250.882813 86.183594 268.476563 C 83.707031 272.46875 81.1875 276.613281 78.433594 280.878906 C 74.289063 287.234375 69.597656 294.480469 64.484375 302.269531 C 43.441406 334.355469 17.359375 374.15625 8.371094 391.554688 C -1.238281 410.195313 -1.78125 425.152344 6.511719 441.160156 C 13.097656 453.945313 22.28125 470.648438 33.792969 490.761719 L 36.890625 496.03125 L 99.207031 496.03125 L 99.207031 486.109375 C 99.207031 414.882813 165.820313 357.144531 248.015625 357.144531 C 330.210938 357.144531 396.824219 414.882813 396.824219 486.109375 L 396.824219 496.03125 L 459.140625 496.03125 L 462.238281 490.761719 C 473.671875 470.804688 482.816406 454.101563 489.519531 441.160156 C 497.8125 425.152344 497.273438 410.195313 487.660156 391.554688 C 481.265625 379.191406 465.882813 355.824219 449.527344 330.792969 C 437.710938 312.65625 425.464844 293.898438 417.90625 281.1875 L 413.566406 274.058594 C 401.515625 253.519531 391.359375 235.578125 374.195313 229.414063 C 339.9375 217.089844 305.214844 208.953125 248.015625 208.953125 Z M 248.015625 396.824219 C 187.832031 396.824219 138.890625 437.089844 138.890625 486.109375 L 138.890625 496.03125 L 357.144531 496.03125 L 357.144531 486.109375 C 357.144531 437.089844 308.160156 396.824219 248.015625 396.824219 Z "/>
</g>
</svg>
