<?xml version="1.0" encoding="UTF-8"?>
<svg xmlns="http://www.w3.org/2000/svg" xmlns:xlink="http://www.w3.org/1999/xlink" width="500pt" height="500pt" viewBox="0 0 500 500" version="1.1">
<g id="surface1">
<path style=" stroke:none;fill-rule:nonzero;fill:#000000;fill-opacity:1;" d="M 287.699219 19.839844 C 274.871094 19.839844 262.433594 20.617188 253.597656 29.453125 L 28.210938 254.835938 C 22.785156 260.261719 19.839844 267.625 19.839844 275.296875 C 19.839844 282.96875 22.785156 290.023438 28.210938 295.449219 L 200.582031 467.820313 C 206.007813 473.246094 213.0625 476.191406 220.734375 476.191406 C 228.40625 476.191406 235.769531 473.246094 241.195313 467.820313 L 288.320313 420.695313 C 304.554688 453.402344 338.078125 476.191406 376.984375 476.191406 C 431.664063 476.191406 476.191406 431.664063 476.191406 376.984375 C 476.191406 338.078125 453.402344 304.554688 420.695313 288.320313 L 466.578125 242.433594 C 476.269531 232.785156 476.269531 218.640625 476.191406 205.234375 L 476.191406 54.5625 C 476.191406 35.417969 460.613281 19.839844 441.46875 19.839844 Z M 386.90625 79.363281 C 403.335938 79.363281 416.667969 92.695313 416.667969 109.128906 C 416.667969 125.558594 403.335938 138.890625 386.90625 138.890625 C 370.472656 138.890625 357.144531 125.558594 357.144531 109.128906 C 357.144531 92.695313 370.472656 79.363281 386.90625 79.363281 Z M 376.984375 297.617188 C 420.929688 297.617188 456.347656 333.039063 456.347656 376.984375 C 456.347656 420.929688 420.929688 456.347656 376.984375 456.347656 C 333.039063 456.347656 297.617188 420.929688 297.617188 376.984375 C 297.617188 333.039063 333.039063 297.617188 376.984375 297.617188 Z M 367.0625 327.382813 L 367.0625 367.0625 L 327.382813 367.0625 L 327.382813 386.90625 L 367.0625 386.90625 L 367.0625 426.585938 L 386.90625 426.585938 L 386.90625 386.90625 L 426.585938 386.90625 L 426.585938 367.0625 L 386.90625 367.0625 L 386.90625 327.382813 Z "/>
</g>
</svg>
