<?xml version="1.0" encoding="UTF-8"?>
<svg xmlns="http://www.w3.org/2000/svg" xmlns:xlink="http://www.w3.org/1999/xlink" width="500pt" height="500pt" viewBox="0 0 500 500" version="1.1">
<g id="surface1">
<path style=" stroke:none;fill-rule:nonzero;fill:#000000;fill-opacity:1;" d="M 102.734375 29.761719 C 80.835938 29.761719 65.335938 38.867188 58.828125 56.386719 L 39.992188 126.410156 C 38.984375 130.324219 40.378906 134.472656 43.636719 136.914063 C 46.851563 139.355469 51.230469 139.585938 54.71875 137.492188 L 97.65625 111.722656 L 121.953125 135.984375 C 125.054688 139.082031 129.859375 139.78125 133.695313 137.6875 L 181.75 111.453125 L 206.28125 135.984375 C 208.179688 137.882813 210.734375 138.890625 213.292969 138.890625 C 214.921875 138.890625 216.550781 138.5 218.058594 137.6875 L 266.113281 111.453125 L 290.644531 135.984375 C 293.046875 138.386719 296.535156 139.394531 299.90625 138.617188 C 303.277344 137.84375 305.949219 135.363281 307.035156 132.105469 L 339.316406 37.007813 C 340.207031 34.414063 341.332031 32.046875 342.609375 29.761719 Z M 376.558594 29.761719 C 367.953125 29.957031 360.707031 35.613281 358.113281 43.402344 L 325.832031 138.386719 C 322.304688 149.042969 313.160156 156.753906 301.804688 158.421875 C 292.15625 159.855469 282.503906 155.902344 275.609375 149.042969 L 262.585938 135.984375 L 227.554688 155.085938 C 215.96875 161.402344 201.628906 159.3125 192.25 150.011719 L 178.261719 135.984375 L 143.230469 155.085938 C 131.640625 161.402344 117.265625 159.351563 107.925781 150.011719 L 94.632813 136.679688 L 81.457031 144.585938 L 40.300781 229.257813 C 39.992188 230.226563 39.683594 231.160156 39.683594 232.167969 L 39.683594 456.347656 C 39.683594 461.8125 44.140625 466.269531 49.601563 466.269531 L 347.222656 466.269531 L 347.222656 228.175781 C 347.222656 226.664063 347.570313 225.191406 348.230469 223.835938 L 396.824219 123.8125 L 396.824219 50.6875 C 396.824219 40.804688 390.082031 31.621094 380.316406 30.03125 C 379.039063 29.839844 377.796875 29.722656 376.558594 29.761719 Z M 411.707031 138.890625 L 367.644531 229.257813 C 367.375 230.226563 367.0625 231.160156 367.0625 232.167969 L 367.0625 466.269531 L 446.429688 466.269531 C 451.894531 466.269531 456.347656 461.8125 456.347656 456.347656 L 456.347656 232.863281 C 456.347656 231.3125 456 229.800781 455.304688 228.445313 Z M 119.046875 287.699219 L 267.855469 287.699219 L 267.855469 386.90625 L 119.046875 386.90625 Z "/>
</g>
</svg>
