<?xml version="1.0" encoding="UTF-8"?>
<svg xmlns="http://www.w3.org/2000/svg" xmlns:xlink="http://www.w3.org/1999/xlink" width="500pt" height="500pt" viewBox="0 0 500 500" version="1.1">
<g id="surface1">
<path style=" stroke:none;fill-rule:nonzero;fill:#000000;fill-opacity:1;" d="M 99.207031 19.839844 C 55.492188 19.839844 19.839844 55.492188 19.839844 99.207031 C 19.839844 142.917969 55.492188 178.570313 99.207031 178.570313 C 142.917969 178.570313 178.570313 142.917969 178.570313 99.207031 C 178.570313 55.492188 142.917969 19.839844 99.207031 19.839844 Z M 99.207031 39.683594 C 132.183594 39.683594 158.730469 66.226563 158.730469 99.207031 C 158.730469 132.183594 132.183594 158.730469 99.207031 158.730469 C 66.226563 158.730469 39.683594 132.183594 39.683594 99.207031 C 39.683594 66.226563 66.226563 39.683594 99.207031 39.683594 Z M 385.976563 112.226563 C 376.132813 112.226563 367.992188 120.054688 367.992188 129.898438 C 367.992188 133.734375 369.351563 137.222656 371.402344 140.128906 C 323.855469 147.53125 287.699219 188.453125 287.699219 238.09375 L 285.839844 238.09375 C 285.410156 238.054688 285.023438 238.054688 284.597656 238.09375 C 279.132813 238.445313 274.949219 243.171875 275.296875 248.636719 C 275.644531 254.101563 280.375 258.285156 285.839844 257.9375 L 312.808594 257.9375 L 274.367188 295.449219 L 218.5625 212.671875 C 218.214844 212.132813 217.789063 211.589844 217.324219 211.125 C 212.09375 205.890625 206.394531 204.882813 199.960938 203.371094 C 193.53125 201.863281 186.515625 200.660156 179.5 199.960938 C 165.472656 198.527344 152.335938 198.414063 148.808594 198.414063 C 144.199219 198.453125 140.207031 201.667969 139.199219 206.164063 L 99.207031 374.195313 L 59.214844 206.164063 C 58.207031 201.667969 54.214844 198.453125 49.601563 198.414063 C 41.464844 198.414063 21.855469 200.351563 8.371094 202.441406 C 4.648438 202.714844 1.394531 205.078125 -0.0390625 208.527344 C -1.472656 211.976563 -0.851563 215.96875 1.589844 218.796875 C 4.03125 221.625 7.828125 222.867188 11.472656 221.972656 C 21.351563 220.460938 34.257813 219.417969 42.164063 218.875 L 89.597656 418.835938 C 90.71875 423.214844 94.671875 426.277344 99.207031 426.277344 C 103.742188 426.277344 107.691406 423.214844 108.816406 418.835938 L 156.558594 218.5625 C 162.023438 218.71875 167.875 218.835938 177.332031 219.804688 C 183.839844 220.460938 190.585938 221.394531 195.621094 222.59375 C 200.464844 223.71875 203.488281 225.925781 203.0625 225.382813 C 203.0625 225.34375 203.410156 225.421875 203.371094 225.382813 L 264.757813 316.21875 C 266.421875 318.585938 268.980469 320.09375 271.847656 320.367188 C 274.714844 320.675781 277.546875 319.707031 279.636719 317.769531 L 341.332031 257.9375 L 414.804688 257.9375 C 412.402344 258.75 410.855469 259.640625 408.296875 260.417969 C 399.34375 263.089844 390.042969 265.492188 381.632813 268.167969 C 373.226563 270.839844 365.941406 272.703125 359.933594 278.707031 C 359.816406 278.902344 359.699219 279.132813 359.621094 279.328125 C 359.621094 279.328125 342.339844 299.207031 324.589844 319.941406 C 315.714844 330.289063 306.917969 340.632813 299.789063 349.082031 C 292.660156 357.53125 287.851563 362.878906 285.527344 366.132813 L 285.839844 366.132813 C 281.574219 371.828125 278.667969 374.660156 277.15625 375.742188 C 275.644531 376.828125 275.53125 376.984375 272.816406 376.984375 C 271.730469 376.984375 270.492188 376.710938 268.167969 374.8125 C 265.84375 372.914063 262.972656 369.503906 259.488281 365.511719 L 215.773438 315.910156 C 213.0625 312.808594 208.722656 311.726563 204.84375 313.199219 C 201.007813 314.632813 198.453125 318.3125 198.414063 322.421875 L 198.414063 456.347656 L 9.921875 456.347656 C 6.355469 456.308594 3.023438 458.171875 1.203125 461.269531 C -0.582031 464.371094 -0.582031 468.167969 1.203125 471.269531 C 3.023438 474.367188 6.355469 476.230469 9.921875 476.191406 L 208.332031 476.191406 C 213.796875 476.191406 218.253906 471.734375 218.253906 466.269531 L 218.253906 348.773438 L 244.605469 378.535156 C 248.054688 382.488281 251.425781 386.441406 255.765625 390.003906 C 260.105469 393.570313 265.957031 396.824219 272.816406 396.824219 C 278.011719 396.824219 283.9375 395.238281 288.628906 391.863281 C 293.316406 388.492188 297 384.113281 301.648438 377.914063 C 301.804688 377.683594 307.578125 370.472656 314.671875 362.101563 C 321.761719 353.734375 330.90625 343 339.78125 332.652344 C 357.335938 312.113281 373.921875 292.96875 374.195313 292.660156 C 374.195313 292.660156 374.503906 292.347656 374.503906 292.347656 C 374.773438 292.195313 380.125 289.441406 387.523438 287.078125 C 395.121094 284.675781 404.769531 282.117188 414.1875 279.328125 C 423.601563 276.539063 432.789063 273.632813 440.539063 269.40625 C 444.414063 267.316406 447.746094 264.71875 450.769531 261.347656 C 451.660156 260.339844 452.472656 259.136719 453.25 257.9375 L 487.042969 257.9375 C 490.605469 257.976563 493.9375 256.113281 495.761719 253.015625 C 497.542969 249.914063 497.542969 246.117188 495.761719 243.015625 C 493.9375 239.917969 490.605469 238.054688 487.042969 238.09375 L 486.109375 238.09375 C 486.109375 187.910156 449.140625 146.5625 400.855469 139.820313 C 402.792969 136.953125 403.644531 133.578125 403.644531 129.898438 C 403.644531 120.054688 395.816406 112.226563 385.976563 112.226563 Z M 386.90625 158.730469 C 431.199219 158.730469 466.269531 193.800781 466.269531 238.09375 L 307.539063 238.09375 C 307.539063 193.800781 342.609375 158.730469 386.90625 158.730469 Z "/>
</g>
</svg>
