<?xml version="1.0" encoding="UTF-8"?>
<svg xmlns="http://www.w3.org/2000/svg" xmlns:xlink="http://www.w3.org/1999/xlink" width="500pt" height="500pt" viewBox="0 0 500 500" version="1.1">
<g id="surface1">
<path style=" stroke:none;fill-rule:nonzero;fill:#000000;fill-opacity:1;" d="M 59.523438 19.839844 L 59.523438 476.191406 L 436.507813 476.191406 L 436.507813 19.839844 Z M 79.363281 39.683594 L 416.667969 39.683594 L 416.667969 456.347656 L 79.363281 456.347656 Z M 128.96875 109.128906 L 128.96875 128.96875 L 367.0625 128.96875 L 367.0625 109.128906 Z M 128.96875 248.015625 L 128.96875 267.855469 L 168.652344 267.855469 L 168.652344 248.015625 Z M 198.414063 248.015625 L 198.414063 267.855469 L 367.0625 267.855469 L 367.0625 248.015625 Z M 128.96875 307.539063 L 128.96875 327.382813 L 168.652344 327.382813 L 168.652344 307.539063 Z M 198.414063 307.539063 L 198.414063 327.382813 L 367.0625 327.382813 L 367.0625 307.539063 Z M 128.96875 367.0625 L 128.96875 386.90625 L 168.652344 386.90625 L 168.652344 367.0625 Z M 198.414063 367.0625 L 198.414063 386.90625 L 367.0625 386.90625 L 367.0625 367.0625 Z "/>
</g>
</svg>
