<?xml version="1.0" encoding="UTF-8"?>
<svg xmlns="http://www.w3.org/2000/svg" xmlns:xlink="http://www.w3.org/1999/xlink" width="500pt" height="500pt" viewBox="0 0 500 500" version="1.1">
<g id="surface1">
<path style=" stroke:none;fill-rule:nonzero;fill:#000000;fill-opacity:1;" d="M 114.4375 29.761719 C 93.859375 29.761719 75.296875 42.589844 68.050781 61.847656 L 40.300781 135.363281 C 38.867188 139.199219 39.914063 143.5 42.9375 146.25 C 46 149.003906 50.378906 149.585938 54.019531 147.761719 L 107.152344 121.21875 L 131.875 145.902344 C 134.898438 148.925781 139.507813 149.660156 143.34375 147.761719 L 196.4375 121.21875 L 221.160156 145.902344 C 224.183594 148.925781 228.792969 149.660156 232.632813 147.761719 L 285.722656 121.21875 L 310.445313 145.902344 C 312.808594 148.265625 316.257813 149.3125 319.554688 148.578125 C 322.847656 147.878906 325.558594 145.554688 326.761719 142.414063 L 358.074219 59.292969 C 360.164063 53.632813 365.550781 49.601563 372.023438 49.601563 C 380.355469 49.601563 386.90625 56.152344 386.90625 64.484375 L 386.90625 107.113281 L 338.078125 224.339844 C 337.535156 225.578125 337.300781 226.855469 337.300781 228.175781 L 337.300781 446.429688 L 59.523438 446.429688 L 59.523438 230.191406 L 92.929688 150.515625 L 65.683594 164.117188 L 40.457031 224.339844 C 39.953125 225.539063 39.683594 226.855469 39.683594 228.175781 L 39.683594 456.347656 C 39.683594 461.851563 44.140625 466.269531 49.601563 466.269531 L 446.429688 466.269531 C 451.894531 466.269531 456.347656 461.8125 456.347656 456.347656 L 456.347656 228.175781 C 456.347656 226.855469 456.078125 225.578125 455.574219 224.339844 L 406.746094 107.113281 L 406.746094 64.484375 C 406.746094 46 391.941406 30.808594 373.652344 29.917969 C 373.496094 29.917969 373.300781 29.878906 373.148438 29.839844 C 372.835938 29.800781 372.488281 29.761719 372.179688 29.761719 C 372.101563 29.761719 372.0625 29.761719 372.023438 29.761719 Z M 114.4375 49.601563 L 341.601563 49.601563 C 341.097656 50.648438 339.898438 51.230469 339.472656 52.316406 L 313.585938 121.023438 L 294.710938 102.113281 C 291.691406 99.089844 287.078125 98.355469 283.242188 100.253906 L 230.152344 126.796875 L 205.425781 102.113281 C 202.402344 99.089844 197.792969 98.355469 193.957031 100.253906 L 140.867188 126.796875 L 116.140625 102.113281 C 113.117188 99.089844 108.507813 98.355469 104.671875 100.253906 L 67.816406 118.699219 L 86.613281 68.863281 C 90.992188 57.238281 102.035156 49.601563 114.4375 49.601563 Z M 396.824219 134.9375 L 436.507813 230.152344 L 436.507813 446.429688 L 357.144531 446.429688 L 357.144531 230.152344 Z M 128.96875 277.777344 C 123.503906 277.777344 119.046875 282.234375 119.046875 287.699219 L 119.046875 386.90625 C 119.046875 392.367188 123.503906 396.824219 128.96875 396.824219 L 267.855469 396.824219 C 273.320313 396.824219 277.777344 392.367188 277.777344 386.90625 L 277.777344 287.699219 C 277.777344 282.234375 273.320313 277.777344 267.855469 277.777344 Z M 138.890625 297.617188 L 257.9375 297.617188 L 257.9375 376.984375 L 138.890625 376.984375 Z "/>
</g>
</svg>
