<?xml version="1.0" encoding="UTF-8"?>
<svg xmlns="http://www.w3.org/2000/svg" xmlns:xlink="http://www.w3.org/1999/xlink" width="500pt" height="500pt" viewBox="0 0 500 500" version="1.1">
<g id="surface1">
<path style=" stroke:none;fill-rule:nonzero;fill:#000000;fill-opacity:1;" d="M 105.019531 109.128906 L 3.796875 210.347656 C 3.0625 210.929688 2.441406 211.550781 1.859375 212.246094 L 0 214.144531 L 0 216.585938 C -0.195313 217.671875 -0.195313 218.757813 0 219.804688 L 0 277.777344 L 29.761719 277.777344 L 29.761719 496.03125 L 89.285156 496.03125 L 89.285156 277.777344 L 109.128906 277.777344 L 109.128906 426.585938 L 168.652344 426.585938 L 168.652344 277.777344 L 327.382813 277.777344 L 327.382813 426.585938 L 386.90625 426.585938 L 386.90625 277.777344 L 406.746094 277.777344 L 406.746094 496.03125 L 466.269531 496.03125 L 466.269531 277.777344 L 496.03125 277.777344 L 496.03125 219.921875 C 496.226563 218.835938 496.226563 217.75 496.03125 216.703125 L 496.03125 214.144531 L 494.132813 212.207031 C 493.589844 211.550781 492.96875 210.929688 492.3125 210.386719 C 492.273438 210.386719 492.273438 210.347656 492.234375 210.347656 L 391.011719 109.128906 Z M 113.234375 128.96875 L 382.796875 128.96875 L 462.160156 208.332031 L 33.871094 208.332031 Z M 19.839844 228.175781 L 476.191406 228.175781 L 476.191406 257.9375 L 458.015625 257.9375 C 456.929688 257.742188 455.84375 257.742188 454.800781 257.9375 L 418.214844 257.9375 C 417.636719 257.859375 417.09375 257.78125 416.511719 257.78125 C 416.046875 257.820313 415.542969 257.859375 415.078125 257.9375 L 378.652344 257.9375 C 377.566406 257.742188 376.480469 257.742188 375.433594 257.9375 L 338.851563 257.9375 C 338.269531 257.859375 337.726563 257.78125 337.148438 257.78125 C 336.679688 257.820313 336.179688 257.859375 335.710938 257.9375 L 160.398438 257.9375 C 159.3125 257.742188 158.226563 257.742188 157.179688 257.9375 L 120.597656 257.9375 C 120.015625 257.859375 119.472656 257.78125 118.894531 257.78125 C 118.425781 257.820313 117.921875 257.859375 117.457031 257.9375 L 81.03125 257.9375 C 79.945313 257.742188 78.859375 257.742188 77.816406 257.9375 L 41.234375 257.9375 C 40.652344 257.859375 40.109375 257.78125 39.527344 257.78125 C 39.0625 257.820313 38.558594 257.859375 38.09375 257.9375 L 19.839844 257.9375 Z M 49.601563 277.777344 L 69.445313 277.777344 L 69.445313 476.191406 L 49.601563 476.191406 Z M 128.96875 277.777344 L 148.808594 277.777344 L 148.808594 406.746094 L 128.96875 406.746094 Z M 347.222656 277.777344 L 367.0625 277.777344 L 367.0625 406.746094 L 347.222656 406.746094 Z M 426.585938 277.777344 L 446.429688 277.777344 L 446.429688 476.191406 L 426.585938 476.191406 Z "/>
</g>
</svg>
