<?xml version="1.0" encoding="UTF-8"?>
<svg xmlns="http://www.w3.org/2000/svg" xmlns:xlink="http://www.w3.org/1999/xlink" width="500pt" height="500pt" viewBox="0 0 500 500" version="1.1">
<g id="surface1">
<path style=" stroke:none;fill-rule:nonzero;fill:#000000;fill-opacity:1;" d="M 29.761719 39.683594 L 29.761719 238.09375 L 173.105469 238.09375 L 248.015625 120.441406 L 322.925781 238.09375 L 466.269531 238.09375 L 466.269531 39.683594 Z M 248.015625 157.335938 L 184.035156 257.9375 L 59.523438 257.9375 L 59.523438 456.347656 L 208.332031 456.347656 L 208.332031 347.222656 C 208.332031 325.289063 226.082031 307.539063 248.015625 307.539063 C 269.949219 307.539063 287.699219 325.289063 287.699219 347.222656 L 287.699219 456.347656 L 436.507813 456.347656 L 436.507813 257.9375 L 311.996094 257.9375 Z M 109.128906 307.539063 L 168.652344 307.539063 L 168.652344 376.984375 L 109.128906 376.984375 Z M 327.382813 307.539063 L 386.90625 307.539063 L 386.90625 376.984375 L 327.382813 376.984375 Z "/>
</g>
</svg>
