<?xml version="1.0" encoding="UTF-8"?>
<svg xmlns="http://www.w3.org/2000/svg" xmlns:xlink="http://www.w3.org/1999/xlink" width="500pt" height="500pt" viewBox="0 0 500 500" version="1.1">
<g id="surface1">
<path style=" stroke:none;fill-rule:nonzero;fill:#000000;fill-opacity:1;" d="M 275.917969 0 C 271.191406 0.890625 267.78125 5.078125 267.855469 9.921875 L 267.855469 89.285156 C 267.855469 94.75 272.3125 99.207031 277.777344 99.207031 L 307.539063 99.207031 L 307.539063 109.128906 L 238.09375 109.128906 L 238.09375 59.523438 C 238.09375 54.058594 233.640625 49.601563 228.175781 49.601563 L 99.207031 49.601563 C 98.894531 49.601563 98.585938 49.601563 98.277344 49.601563 C 97.964844 49.601563 97.65625 49.601563 97.347656 49.601563 C 92.617188 50.496094 89.207031 54.679688 89.285156 59.523438 L 89.285156 109.128906 L 71.304688 109.128906 C 62.238281 109.128906 53.671875 112.613281 47.742188 118.738281 C 41.8125 124.859375 38.597656 132.804688 36.890625 141.988281 C 36.890625 142.105469 36.890625 142.183594 36.890625 142.300781 L 0 385.355469 C 0 385.546875 0 385.78125 0 385.976563 C 0 386.089844 0 386.167969 0 386.285156 C 0 386.476563 0 386.710938 0 386.90625 C -0.0390625 387.410156 -0.0390625 387.949219 0 388.453125 L 0 461.308594 C 0 480.375 15.65625 496.03125 34.722656 496.03125 L 462.238281 496.03125 C 481.304688 496.03125 496.960938 480.375 496.960938 461.308594 L 496.960938 386.90625 C 496.882813 385.160156 496.339844 383.417969 495.410156 381.945313 L 459.140625 142.300781 C 459.140625 142.183594 459.140625 142.105469 459.140625 141.988281 C 457.433594 132.804688 454.21875 124.859375 448.289063 118.738281 C 442.359375 112.613281 433.796875 109.128906 424.726563 109.128906 L 386.90625 109.128906 L 386.90625 99.207031 L 416.667969 99.207031 C 422.128906 99.207031 426.585938 94.75 426.585938 89.285156 L 426.585938 9.921875 C 426.585938 4.457031 422.128906 0 416.667969 0 L 277.777344 0 C 277.46875 0 277.15625 0 276.847656 0 C 276.539063 0 276.226563 0 275.917969 0 Z M 287.699219 19.839844 L 406.746094 19.839844 L 406.746094 79.363281 L 379.152344 79.363281 C 378.148438 79.09375 377.101563 78.976563 376.054688 79.054688 C 375.742188 79.132813 375.433594 79.25 375.125 79.363281 L 319.628906 79.363281 C 318.621094 79.09375 317.578125 78.976563 316.53125 79.054688 C 316.21875 79.132813 315.910156 79.25 315.601563 79.363281 L 287.699219 79.363281 Z M 109.128906 69.445313 L 218.253906 69.445313 L 218.253906 117.496094 C 218.253906 117.808594 218.253906 118.117188 218.253906 118.425781 L 218.253906 228.175781 L 109.128906 228.175781 L 109.128906 119.046875 C 109.128906 118.738281 109.128906 118.425781 109.128906 118.117188 Z M 128.96875 99.207031 L 128.96875 119.046875 L 198.414063 119.046875 L 198.414063 99.207031 Z M 327.382813 99.207031 L 367.0625 99.207031 L 367.0625 109.128906 L 327.382813 109.128906 Z M 71.304688 128.96875 L 89.285156 128.96875 L 89.285156 238.09375 C 89.285156 243.558594 93.742188 248.015625 99.207031 248.015625 L 228.175781 248.015625 C 229.105469 248.054688 230.074219 247.9375 230.964844 247.707031 C 231.625 247.472656 232.242188 247.164063 232.824219 246.777344 C 236.042969 245.070313 238.054688 241.738281 238.09375 238.09375 L 238.09375 128.96875 L 424.726563 128.96875 C 429.53125 128.96875 431.78125 130.054688 434.027344 132.378906 C 436.238281 134.625 438.328125 138.925781 439.609375 145.398438 L 439.609375 145.710938 L 474.332031 376.984375 L 21.703125 376.984375 L 56.421875 145.710938 L 56.421875 145.398438 C 57.703125 138.925781 59.796875 134.625 62.003906 132.378906 C 64.25 130.054688 66.5 128.96875 71.304688 128.96875 Z M 128.96875 138.890625 L 128.96875 158.730469 L 198.414063 158.730469 L 198.414063 138.890625 Z M 288.628906 148.808594 C 277.15625 148.808594 267.855469 158.109375 267.855469 169.582031 L 267.855469 206.472656 C 267.855469 219.066406 278.085938 228.175781 289.558594 228.175781 L 407.675781 228.175781 C 413.410156 228.175781 419.109375 225.925781 422.867188 221.355469 C 426.355469 217.089844 427.207031 210.734375 425.96875 204.921875 L 426.585938 204.921875 L 426.277344 203.683594 L 421.628906 169.582031 L 421.628906 168.339844 L 421.007813 168.339844 C 420.191406 156.636719 410.890625 148.808594 399.925781 148.808594 Z M 288.628906 168.652344 L 399.925781 168.652344 C 400.351563 168.652344 401.785156 170.238281 401.785156 169.582031 C 401.746094 170.007813 401.746094 170.394531 401.785156 170.820313 L 406.746094 207.714844 C 406.824219 207.90625 406.941406 208.140625 407.054688 208.332031 L 289.558594 208.332031 C 289.132813 208.332031 287.699219 207.753906 287.699219 206.472656 L 287.699219 169.582031 C 287.699219 169.15625 288.203125 168.652344 288.628906 168.652344 Z M 128.96875 178.570313 L 128.96875 198.414063 L 198.414063 198.414063 L 198.414063 178.570313 Z M 277.777344 248.945313 C 272.816406 248.945313 268.789063 252.976563 268.789063 257.9375 L 268.789063 278.707031 C 268.789063 283.667969 272.816406 287.699219 277.777344 287.699219 L 298.550781 287.699219 C 303.507813 287.699219 307.539063 283.667969 307.539063 278.707031 L 307.539063 257.9375 C 307.539063 252.976563 303.507813 248.945313 298.550781 248.945313 Z M 337.300781 248.945313 C 332.339844 248.945313 328.3125 252.976563 328.3125 257.9375 L 328.3125 278.707031 C 328.3125 283.667969 332.339844 287.699219 337.300781 287.699219 L 358.074219 287.699219 C 363.035156 287.699219 367.0625 283.667969 367.0625 278.707031 L 367.0625 257.9375 C 367.0625 252.976563 363.035156 248.945313 358.074219 248.945313 Z M 396.824219 248.945313 C 391.863281 248.945313 387.835938 252.976563 387.835938 257.9375 L 387.835938 278.707031 C 387.835938 283.667969 391.863281 287.699219 396.824219 287.699219 L 417.597656 287.699219 C 422.558594 287.699219 426.585938 283.667969 426.585938 278.707031 L 426.585938 257.9375 C 426.585938 252.976563 422.558594 248.945313 417.597656 248.945313 Z M 277.777344 308.46875 C 272.816406 308.46875 268.789063 312.5 268.789063 317.460938 L 268.789063 338.230469 C 268.789063 343.191406 272.816406 347.222656 277.777344 347.222656 L 298.550781 347.222656 C 303.507813 347.222656 307.539063 343.191406 307.539063 338.230469 L 307.539063 317.460938 C 307.539063 312.5 303.507813 308.46875 298.550781 308.46875 Z M 337.300781 308.46875 C 332.339844 308.46875 328.3125 312.5 328.3125 317.460938 L 328.3125 338.230469 C 328.3125 343.191406 332.339844 347.222656 337.300781 347.222656 L 358.074219 347.222656 C 363.035156 347.222656 367.0625 343.191406 367.0625 338.230469 L 367.0625 317.460938 C 367.0625 312.5 363.035156 308.46875 358.074219 308.46875 Z M 396.824219 308.46875 C 391.863281 308.46875 387.835938 312.5 387.835938 317.460938 L 387.835938 338.230469 C 387.835938 343.191406 391.863281 347.222656 396.824219 347.222656 L 417.597656 347.222656 C 422.558594 347.222656 426.585938 343.191406 426.585938 338.230469 L 426.585938 317.460938 C 426.585938 312.5 422.558594 308.46875 417.597656 308.46875 Z M 19.839844 396.824219 L 477.121094 396.824219 L 477.121094 461.308594 C 477.121094 469.988281 470.921875 476.191406 462.238281 476.191406 L 34.722656 476.191406 C 26.042969 476.191406 19.839844 469.988281 19.839844 461.308594 Z M 248.015625 416.667969 C 237.050781 416.667969 228.175781 425.539063 228.175781 436.507813 C 228.175781 447.476563 237.050781 456.347656 248.015625 456.347656 C 258.984375 456.347656 267.855469 447.476563 267.855469 436.507813 C 267.855469 425.539063 258.984375 416.667969 248.015625 416.667969 Z "/>
</g>
</svg>
