<?xml version="1.0" encoding="UTF-8"?>
<svg xmlns="http://www.w3.org/2000/svg" xmlns:xlink="http://www.w3.org/1999/xlink" width="500pt" height="500pt" viewBox="0 0 500 500" version="1.1">
<g id="surface1">
<path style=" stroke:none;fill-rule:nonzero;fill:#000000;fill-opacity:1;" d="M 482.351563 190.625 L 254.175781 12.050781 C 250.496094 9.261719 245.535156 9.261719 241.855469 12.050781 L 13.679688 190.625 C 9.417969 193.996094 8.640625 200.234375 12.011719 204.574219 C 15.382813 208.875 21.625 209.652344 26.003906 206.28125 L 39.683594 195.46875 L 39.683594 456.386719 C 39.683594 461.851563 44.140625 466.308594 49.601563 466.308594 L 446.429688 466.308594 C 451.894531 466.308594 456.347656 461.851563 456.347656 456.386719 L 456.347656 195.46875 L 470.027344 206.28125 C 471.925781 207.675781 474.019531 208.371094 476.191406 208.371094 C 479.175781 208.371094 482.042969 207.054688 484.019531 204.574219 C 487.390625 200.234375 486.613281 193.996094 482.351563 190.625 Z M 344.160156 384.152344 C 342.261719 385.9375 339.78125 386.945313 337.183594 386.945313 C 334.628906 386.945313 332.03125 385.9375 330.054688 383.84375 L 276.304688 328.699219 L 247.511719 357.957031 C 247.511719 357.878906 228.5625 339.121094 227.476563 338.039063 C 224.804688 335.441406 222.207031 332.765625 219.53125 330.171875 L 165.78125 383.960938 C 163.808594 385.9375 161.328125 386.945313 158.730469 386.945313 C 156.132813 386.945313 153.652344 385.9375 151.675781 383.960938 C 147.800781 380.085938 147.800781 373.84375 151.675781 369.96875 L 205.464844 316.179688 C 200.894531 311.648438 196.4375 307.191406 191.863281 302.617188 C 176.671875 287.542969 162.21875 272.351563 154.351563 252.125 C 150.28125 241.699219 148.304688 230.382813 148.925781 219.183594 C 149.195313 213.605469 150.203125 207.984375 151.988281 202.597656 C 152.375 201.320313 157.644531 190.390625 157.644531 188.722656 C 160.320313 191.203125 202.792969 232.476563 246.621094 275.027344 L 267.082031 254.605469 C 268.167969 253.519531 269.445313 252.820313 270.839844 252.394531 C 263.980469 238.328125 268.359375 218.488281 282.855469 203.992188 C 300.214844 186.632813 325.210938 183.453125 338.695313 196.941406 C 352.183594 210.542969 349.121094 235.539063 331.761719 252.820313 C 317.265625 267.390625 297.308594 271.769531 283.320313 264.910156 C 282.855469 266.308594 282.15625 267.585938 281.03125 268.671875 L 260.921875 288.898438 C 304.050781 330.867188 344.433594 370.085938 344.433594 370.085938 C 348.230469 374.039063 348.113281 380.277344 344.160156 384.152344 Z "/>
</g>
</svg>
