<?xml version="1.0" encoding="UTF-8"?>
<svg xmlns="http://www.w3.org/2000/svg" xmlns:xlink="http://www.w3.org/1999/xlink" width="500pt" height="500pt" viewBox="0 0 500 500" version="1.1">
<g id="surface1">
<path style=" stroke:none;fill-rule:nonzero;fill:#000000;fill-opacity:1;" d="M 99.207031 19.839844 C 55.453125 19.839844 19.839844 55.453125 19.839844 99.207031 C 19.839844 142.957031 55.453125 178.570313 99.207031 178.570313 C 142.957031 178.570313 178.570313 142.957031 178.570313 99.207031 C 178.570313 55.453125 142.957031 19.839844 99.207031 19.839844 Z M 385.976563 112.226563 C 376.132813 112.226563 367.992188 120.054688 367.992188 129.898438 C 367.992188 133.851563 369.234375 137.492188 371.402344 140.4375 C 324.085938 147.917969 287.699219 188.6875 287.699219 238.09375 L 285.839844 238.09375 C 280.335938 238.09375 275.917969 242.550781 275.917969 248.015625 C 275.917969 253.480469 280.335938 257.9375 285.839844 257.9375 L 487.042969 257.9375 C 492.503906 257.9375 496.960938 253.480469 496.960938 248.015625 C 496.960938 242.550781 492.542969 238.09375 487.042969 238.09375 L 486.421875 238.09375 C 486.421875 237.398438 486.265625 236.582031 486.109375 235.925781 C 485.105469 186.902344 448.289063 146.871094 400.855469 140.128906 C 402.871094 137.222656 403.644531 133.695313 403.644531 129.898438 C 403.644531 120.054688 395.816406 112.226563 385.976563 112.226563 Z M 49.601563 198.414063 C 42.628906 198.414063 21.042969 200.503906 8.371094 202.441406 C 3.527344 203.179688 0 207.480469 0 212.363281 L 0 466.269531 C 0 471.773438 4.457031 476.191406 9.921875 476.191406 L 208.332031 476.191406 C 213.796875 476.191406 218.253906 471.773438 218.253906 466.269531 L 218.253906 348.773438 L 244.914063 378.84375 C 252.628906 387.640625 260.496094 396.824219 272.816406 396.824219 C 285.335938 396.824219 291.765625 391.128906 301.648438 377.914063 C 305.097656 373.109375 347.300781 323.894531 374.195313 292.660156 C 377.140625 289.753906 392.292969 285.566406 402.40625 282.738281 C 417.246094 278.554688 432.554688 274.210938 443.019531 267.855469 L 302.578125 267.855469 L 274.367188 295.140625 L 218.5625 212.671875 C 218.214844 212.167969 217.789063 211.550781 217.324219 211.125 C 205.117188 198.917969 158.109375 198.414063 148.808594 198.414063 C 144.199219 198.414063 140.246094 201.707031 139.199219 206.164063 L 99.207031 373.882813 L 59.214844 206.164063 C 58.167969 201.707031 54.214844 198.414063 49.601563 198.414063 Z "/>
</g>
</svg>
