<?xml version="1.0" encoding="UTF-8"?>
<svg xmlns="http://www.w3.org/2000/svg" xmlns:xlink="http://www.w3.org/1999/xlink" width="500pt" height="500pt" viewBox="0 0 500 500" version="1.1">
<g id="surface1">
<path style=" stroke:none;fill-rule:nonzero;fill:#000000;fill-opacity:1;" d="M 218.058594 19.839844 C 179.929688 20.695313 152.53125 31.738281 136.5625 52.703125 C 118.542969 76.417969 115.40625 111.761719 126.953125 160.667969 C 122.882813 165.9375 119.164063 174.347656 120.132813 185.855469 C 123.039063 207.324219 131.253906 216.160156 137.882813 219.765625 C 141.214844 237.628906 150.980469 256.582031 159.738281 265.53125 C 159.777344 267.742188 159.816406 269.871094 159.855469 272.003906 C 160.046875 281.496094 160.164063 289.714844 158.925781 300.253906 C 156.910156 305.484375 152.800781 309.863281 147.21875 313.816406 L 178.417969 351.40625 L 207.558594 315.210938 C 210.195313 311.957031 214.457031 308.933594 218.253906 310.097656 C 222.011719 308.933594 226.316406 311.957031 228.949219 315.210938 L 235.539063 323.390625 C 237.476563 325.40625 239.414063 327.769531 241.234375 330.480469 L 260.261719 353.5 C 258.75 361.09375 257.9375 368.960938 257.9375 376.984375 L 257.859375 376.984375 C 254.875 376.945313 252.085938 375.589844 250.1875 373.265625 L 230.5 348.773438 L 223.214844 355.167969 C 223.214844 355.167969 240.769531 384.503906 245.691406 416.667969 L 190.855469 416.667969 C 195.855469 385.042969 213.292969 355.167969 213.292969 355.167969 L 205.777344 349.082031 L 186.320313 373.265625 C 184.421875 375.589844 181.632813 376.945313 178.648438 376.984375 L 178.570313 376.984375 C 175.625 376.984375 172.835938 375.667969 170.9375 373.417969 L 129.394531 323.390625 C 123.386719 326.101563 116.878906 328.699219 110.058594 331.410156 C 71.34375 346.71875 23.175781 365.824219 19.839844 426.042969 L 19.296875 436.507813 L 274.097656 436.507813 C 294.75 472.003906 333.117188 496.03125 376.984375 496.03125 C 442.554688 496.03125 496.03125 442.515625 496.03125 376.984375 C 496.03125 311.453125 442.554688 257.9375 376.984375 257.9375 C 337.6875 257.9375 302.851563 277.234375 281.148438 306.765625 C 279.597656 304.941406 278.28125 303.042969 277.390625 300.992188 C 276.808594 288.976563 275.800781 269.757813 275.800781 265.414063 C 284.40625 256.347656 293.511719 237.359375 297.308594 220.152344 C 304.441406 216.78125 313.390625 208.023438 315.445313 185.351563 C 316.375 174.191406 313.3125 166.015625 309.089844 160.707031 C 315.640625 140.167969 326.761719 94.59375 308.46875 64.367188 C 300.136719 50.609375 287.117188 41.96875 269.679688 38.519531 C 260.066406 26.429688 242.046875 19.839844 218.058594 19.839844 Z M 218.253906 39.683594 C 237.011719 39.683594 250.535156 44.410156 255.300781 52.625 L 257.742188 56.773438 L 262.46875 57.429688 C 276.148438 59.367188 285.644531 64.988281 291.457031 74.636719 C 304.207031 95.640625 297.695313 133.929688 288.28125 160.320313 L 285.140625 168.496094 L 293.007813 172.449219 C 293.898438 173.070313 296.261719 176.480469 295.679688 183.609375 C 294.324219 198.296875 289.675781 202.210938 288.667969 202.402344 L 280.101563 202.402344 L 278.863281 210.929688 C 276.148438 229.996094 264.71875 249.566406 260.960938 252.316406 L 255.960938 255.144531 L 255.960938 260.921875 C 255.960938 271.191406 256 279.597656 256.269531 288.9375 L 218.253906 310.058594 L 179.65625 288.628906 C 179.851563 282.777344 179.773438 277.234375 179.65625 271.617188 C 179.617188 268.207031 179.539063 264.679688 179.539063 260.882813 L 178.921875 255.300781 L 174.695313 252.355469 C 170.78125 249.683594 158.457031 229.878906 156.714844 211.355469 L 156.558594 202.441406 L 147.570313 202.441406 C 146.136719 201.902344 141.71875 197.210938 139.820313 183.6875 C 139.160156 175.394531 143.382813 171.945313 143.382813 171.945313 L 149.273438 168.03125 L 147.53125 161.25 C 135.984375 115.753906 137.570313 84.171875 152.375 64.714844 C 164.464844 48.828125 186.710938 40.378906 218.253906 39.683594 Z M 376.984375 277.777344 C 431.78125 277.777344 476.191406 322.1875 476.191406 376.984375 C 476.191406 431.78125 431.78125 476.191406 376.984375 476.191406 C 322.1875 476.191406 277.777344 431.78125 277.777344 376.984375 C 277.777344 322.1875 322.1875 277.777344 376.984375 277.777344 Z M 367.0625 317.460938 L 367.0625 367.0625 L 317.460938 367.0625 L 317.460938 386.90625 L 367.0625 386.90625 L 367.0625 436.507813 L 386.90625 436.507813 L 386.90625 386.90625 L 436.507813 386.90625 L 436.507813 367.0625 L 386.90625 367.0625 L 386.90625 317.460938 Z "/>
</g>
</svg>
