<?xml version="1.0" encoding="UTF-8"?>
<svg xmlns="http://www.w3.org/2000/svg" xmlns:xlink="http://www.w3.org/1999/xlink" width="500pt" height="500pt" viewBox="0 0 500 500" version="1.1">
<g id="surface1">
<path style=" stroke:none;fill-rule:nonzero;fill:#000000;fill-opacity:1;" d="M 89.285156 59.523438 C 67.46875 59.523438 49.601563 77.390625 49.601563 99.207031 C 49.601563 121.023438 67.46875 138.890625 89.285156 138.890625 C 111.101563 138.890625 128.96875 121.023438 128.96875 99.207031 C 128.96875 77.390625 111.101563 59.523438 89.285156 59.523438 Z M 406.746094 59.523438 C 384.929688 59.523438 367.0625 77.390625 367.0625 99.207031 C 367.0625 121.023438 384.929688 138.890625 406.746094 138.890625 C 428.5625 138.890625 446.429688 121.023438 446.429688 99.207031 C 446.429688 77.390625 428.5625 59.523438 406.746094 59.523438 Z M 89.285156 79.363281 C 100.367188 79.363281 109.128906 88.125 109.128906 99.207031 C 109.128906 110.289063 100.367188 119.046875 89.285156 119.046875 C 78.203125 119.046875 69.445313 110.289063 69.445313 99.207031 C 69.445313 88.125 78.203125 79.363281 89.285156 79.363281 Z M 406.746094 79.363281 C 417.828125 79.363281 426.585938 88.125 426.585938 99.207031 C 426.585938 110.289063 417.828125 119.046875 406.746094 119.046875 C 395.664063 119.046875 386.90625 110.289063 386.90625 99.207031 C 386.90625 88.125 395.664063 79.363281 406.746094 79.363281 Z M 89.285156 148.808594 C 67.46875 148.808594 49.601563 166.675781 49.601563 188.492188 L 49.679688 280.257813 C 49.71875 280.527344 49.71875 280.800781 49.757813 281.070313 C 51.464844 301.53125 68.746094 317.460938 89.285156 317.460938 L 133.8125 317.460938 L 132.339844 327.382813 L 58.828125 327.382813 C 48.59375 327.382813 40.300781 319.589844 39.683594 309.359375 L 39.683594 168.652344 C 39.722656 165.976563 38.675781 163.378906 36.777344 161.480469 C 34.878906 159.582031 32.28125 158.535156 29.605469 158.574219 C 24.144531 158.691406 19.765625 163.1875 19.839844 168.652344 L 19.839844 309.902344 C 19.839844 310.097656 19.839844 310.292969 19.839844 310.484375 C 20.65625 323.855469 28.25 335.285156 39.140625 341.71875 L 29.839844 425.503906 C 29.21875 430.925781 33.132813 435.847656 38.597656 436.429688 C 44.023438 437.050781 48.945313 433.136719 49.527344 427.671875 L 58.515625 347.183594 C 58.59375 347.183594 58.710938 347.222656 58.828125 347.222656 L 129.355469 347.222656 L 119.164063 415.195313 C 118.660156 418.527344 119.863281 421.859375 122.378906 424.105469 C 122.378906 424.105469 126.992188 427.945313 134.511719 430.890625 C 142.027344 433.796875 153.226563 436.507813 168.652344 436.507813 C 184.074219 436.507813 195.273438 433.796875 202.792969 430.890625 C 206.203125 429.53125 206.242188 429.066406 208.292969 427.789063 C 210.308594 429.066406 210.308594 429.53125 213.605469 430.851563 C 221.082031 433.796875 232.320313 436.507813 248.015625 436.507813 C 263.710938 436.507813 274.949219 433.796875 282.429688 430.851563 C 285.722656 429.570313 285.683594 429.066406 287.699219 427.828125 C 289.714844 429.066406 289.675781 429.570313 292.96875 430.851563 C 300.449219 433.796875 311.6875 436.507813 327.382813 436.507813 C 343.074219 436.507813 354.3125 433.796875 361.792969 430.851563 C 369.273438 427.90625 373.882813 423.914063 373.882813 423.914063 C 376.246094 421.664063 377.371094 418.410156 376.867188 415.195313 L 366.675781 347.222656 L 437.207031 347.222656 C 437.320313 347.222656 437.4375 347.183594 437.554688 347.183594 L 446.46875 427.671875 C 447.085938 433.136719 452.007813 437.050781 457.472656 436.46875 C 462.898438 435.847656 466.8125 430.925781 466.230469 425.503906 L 456.929688 341.71875 C 467.78125 335.285156 475.375 323.855469 476.191406 310.484375 C 476.191406 310.292969 476.191406 310.097656 476.191406 309.902344 L 476.191406 168.652344 C 476.230469 165.976563 475.183594 163.378906 473.285156 161.480469 C 471.386719 159.582031 468.789063 158.535156 466.113281 158.574219 C 460.652344 158.691406 456.273438 163.1875 456.347656 168.652344 L 456.347656 309.359375 C 455.730469 319.589844 447.4375 327.382813 437.207031 327.382813 L 363.691406 327.382813 L 362.21875 317.460938 L 406.746094 317.460938 C 427.285156 317.460938 444.570313 301.53125 446.273438 281.070313 C 446.3125 280.800781 446.3125 280.527344 446.3125 280.257813 L 446.429688 188.492188 C 446.429688 166.675781 428.5625 148.808594 406.746094 148.808594 C 385.082031 148.808594 369.425781 166.75 367.101563 187.40625 C 367.0625 187.753906 367.0625 188.105469 367.0625 188.492188 L 367.0625 257.9375 L 353.269531 257.9375 L 347.105469 216.78125 C 346.371094 211.9375 342.222656 208.332031 337.300781 208.332031 L 158.730469 208.332031 C 153.808594 208.332031 149.660156 211.9375 148.925781 216.78125 L 142.765625 257.9375 C 142.492188 257.9375 142.261719 257.9375 141.988281 257.9375 L 128.96875 257.9375 L 128.96875 188.492188 C 128.96875 188.105469 128.96875 187.753906 128.929688 187.40625 C 126.605469 166.75 110.949219 148.808594 89.285156 148.808594 Z M 89.285156 168.652344 C 100.445313 168.652344 107.65625 176.710938 109.128906 189.460938 L 109.128906 267.855469 C 109.128906 273.320313 113.582031 277.777344 119.046875 277.777344 L 139.78125 277.777344 L 136.796875 297.617188 L 89.285156 297.617188 C 78.898438 297.617188 70.453125 289.828125 69.523438 279.484375 L 69.445313 188.492188 C 69.445313 177.410156 78.203125 168.652344 89.285156 168.652344 Z M 406.746094 168.652344 C 417.828125 168.652344 426.585938 177.410156 426.585938 188.492188 L 426.472656 279.484375 C 425.578125 289.828125 417.132813 297.617188 406.746094 297.617188 L 359.234375 297.617188 L 356.25 277.777344 L 376.984375 277.777344 C 382.449219 277.777344 386.90625 273.320313 386.90625 267.855469 L 386.90625 189.460938 C 388.378906 176.710938 395.585938 168.652344 406.746094 168.652344 Z M 167.253906 228.175781 L 328.777344 228.175781 L 356.25 411.511719 C 355.4375 411.898438 356.058594 411.785156 354.507813 412.402344 C 349.429688 414.417969 340.828125 416.667969 327.382813 416.667969 C 313.933594 416.667969 305.292969 414.417969 300.253906 412.402344 C 298.859375 411.863281 298.433594 411.550781 297.617188 411.164063 L 297.617188 376.984375 C 297.65625 374.308594 296.613281 371.714844 294.710938 369.816406 C 292.8125 367.917969 290.21875 366.871094 287.542969 366.910156 C 282.078125 367.023438 277.699219 371.519531 277.777344 376.984375 L 277.777344 411.164063 C 276.964844 411.550781 276.539063 411.863281 275.144531 412.402344 C 270.066406 414.417969 261.464844 416.667969 248.015625 416.667969 C 234.570313 416.667969 225.925781 414.417969 220.890625 412.402344 C 219.492188 411.863281 219.066406 411.550781 218.253906 411.164063 L 218.253906 357.144531 C 218.292969 354.46875 217.246094 351.871094 215.347656 349.972656 C 213.449219 348.074219 210.851563 347.027344 208.179688 347.066406 C 202.714844 347.183594 198.335938 351.679688 198.414063 357.144531 L 198.414063 411.085938 C 197.558594 411.472656 197.054688 411.824219 195.582031 412.363281 C 190.390625 414.417969 181.75 416.667969 168.652344 416.667969 C 155.550781 416.667969 146.910156 414.417969 141.71875 412.363281 C 140.089844 411.746094 140.671875 411.863281 139.78125 411.394531 Z "/>
</g>
</svg>
