<?xml version="1.0" encoding="UTF-8"?>
<svg xmlns="http://www.w3.org/2000/svg" xmlns:xlink="http://www.w3.org/1999/xlink" width="500pt" height="500pt" viewBox="0 0 500 500" version="1.1">
<g id="surface1">
<path style=" stroke:none;fill-rule:nonzero;fill:#000000;fill-opacity:1;" d="M 247.667969 9.921875 C 245.574219 10 243.558594 10.734375 241.894531 12.011719 L 43.867188 167.023438 L 13.71875 190.625 C 9.417969 193.996094 8.640625 200.234375 12.011719 204.535156 C 15.421875 208.835938 21.664063 209.613281 25.964844 206.203125 L 39.683594 195.46875 L 39.683594 456.347656 C 39.683594 461.8125 44.140625 466.269531 49.601563 466.269531 L 446.429688 466.269531 C 451.894531 466.269531 456.347656 461.8125 456.347656 456.347656 L 456.347656 195.46875 L 470.066406 206.203125 C 474.367188 209.613281 480.609375 208.835938 484.019531 204.535156 C 487.390625 200.234375 486.613281 193.996094 482.3125 190.625 L 452.707031 167.449219 L 254.140625 12.011719 C 252.316406 10.578125 249.992188 9.84375 247.667969 9.921875 Z M 248.015625 32.4375 L 436.507813 179.964844 L 436.507813 446.429688 L 59.523438 446.429688 L 59.523438 179.964844 Z M 320.40625 168.921875 C 317.304688 168.652344 314.128906 168.726563 310.988281 169.117188 C 298.472656 170.703125 285.992188 176.867188 275.878906 187.019531 C 265.726563 197.171875 259.5625 209.652344 257.976563 222.167969 C 256.851563 231.390625 258.363281 240.847656 262.898438 248.90625 L 249.722656 262.082031 L 162.449219 171.945313 C 160.550781 170.046875 157.992188 168.921875 155.320313 168.960938 C 151.289063 168.960938 147.6875 171.324219 146.175781 175.007813 C 140.828125 187.71875 138.890625 201.320313 139.664063 214.726563 C 141.214844 241.234375 153.265625 267.199219 172.253906 286.1875 L 198.917969 312.847656 L 141.796875 369.96875 C 139.199219 372.449219 138.152344 376.171875 139.082031 379.621094 C 139.972656 383.105469 142.6875 385.820313 146.175781 386.710938 C 149.625 387.640625 153.34375 386.59375 155.824219 384 L 212.945313 326.878906 L 241.15625 355.128906 C 245.03125 358.964844 251.308594 358.964844 255.183594 355.128906 L 284.132813 326.140625 L 340.089844 383.882813 C 342.53125 386.476563 346.214844 387.5625 349.664063 386.710938 C 353.152344 385.859375 355.902344 383.183594 356.871094 379.773438 C 357.839844 376.324219 356.871094 372.605469 354.351563 370.085938 L 291.765625 305.484375 C 291.652344 305.371094 291.535156 305.214844 291.417969 305.097656 L 263.515625 276.304688 L 276.886719 262.898438 C 284.945313 267.429688 294.402344 268.941406 303.625 267.820313 C 316.144531 266.230469 328.660156 260.066406 338.8125 249.914063 C 348.925781 239.800781 355.089844 227.320313 356.679688 214.804688 C 358.226563 202.25 354.894531 189.265625 345.710938 180.082031 C 338.8125 173.183594 329.785156 169.621094 320.40625 168.921875 Z M 318.972656 188.648438 C 324.164063 188.996094 328.425781 190.855469 331.683594 194.074219 C 335.984375 198.414063 337.921875 204.652344 336.992188 212.324219 C 336.023438 219.996094 331.953125 228.71875 324.746094 235.925781 C 317.578125 243.09375 308.855469 247.164063 301.183594 248.132813 C 293.511719 249.0625 287.234375 247.164063 282.933594 242.863281 C 278.628906 238.558594 276.730469 232.320313 277.660156 224.609375 C 278.628906 216.9375 282.699219 208.253906 289.867188 201.046875 C 297.078125 193.839844 305.796875 189.808594 313.46875 188.839844 C 315.40625 188.609375 317.226563 188.53125 318.972656 188.648438 Z M 161.675781 199.730469 L 241.078125 281.652344 C 241.816406 282.816406 242.746094 283.824219 243.871094 284.597656 L 270.335938 311.878906 L 248.171875 334.046875 L 221.160156 307.035156 C 220.5 306.144531 219.726563 305.332031 218.796875 304.710938 L 186.320313 272.199219 C 170.78125 256.65625 160.707031 234.761719 159.464844 213.566406 C 159.195313 208.757813 161.054688 204.378906 161.675781 199.730469 Z "/>
</g>
</svg>
