<?xml version="1.0" encoding="UTF-8"?>
<svg xmlns="http://www.w3.org/2000/svg" xmlns:xlink="http://www.w3.org/1999/xlink" width="500pt" height="500pt" viewBox="0 0 500 500" version="1.1">
<g id="surface1">
<path style=" stroke:none;fill-rule:nonzero;fill:#000000;fill-opacity:1;" d="M 246.15625 19.839844 C 237.28125 20.230469 228.832031 21.972656 222.285156 28.523438 L 27.589844 223.214844 C 22.671875 228.136719 19.839844 234.839844 19.839844 241.816406 C 19.839844 248.789063 22.671875 255.183594 27.589844 260.105469 L 60.453125 292.96875 C 62.121094 283.824219 66.152344 275.492188 72.855469 268.789063 L 267.855469 74.09375 C 282.273438 59.640625 301.300781 59.523438 312.808594 59.523438 L 416.667969 59.523438 L 416.667969 51.152344 C 416.667969 33.871094 402.636719 19.839844 385.355469 19.839844 L 255.144531 19.839844 C 252.164063 19.839844 249.101563 19.726563 246.15625 19.839844 Z M 305.679688 79.363281 C 296.804688 79.753906 288.355469 81.496094 281.808594 88.046875 L 87.117188 282.738281 C 82.195313 287.660156 79.363281 294.363281 79.363281 301.339844 C 79.363281 308.316406 82.195313 314.707031 87.117188 319.628906 L 235.925781 468.441406 C 240.847656 473.363281 247.242188 476.191406 254.214844 476.191406 C 261.191406 476.191406 267.894531 473.363281 272.816406 468.441406 L 467.511719 273.746094 C 476.269531 264.988281 476.230469 252.742188 476.191406 240.886719 L 476.191406 228.175781 C 476.191406 202.871094 476.191406 136.175781 476.191406 116.257813 L 476.191406 110.675781 C 476.191406 93.394531 462.160156 79.363281 444.878906 79.363281 L 314.671875 79.363281 C 311.6875 79.363281 308.625 79.25 305.679688 79.363281 Z M 396.824219 138.890625 C 401.902344 138.890625 406.902344 140.902344 410.777344 144.777344 C 418.527344 152.53125 418.527344 164.929688 410.777344 172.679688 C 403.027344 180.429688 390.625 180.429688 382.875 172.679688 C 375.125 164.929688 375.125 152.53125 382.875 144.777344 C 386.75 140.902344 391.75 138.890625 396.824219 138.890625 Z "/>
</g>
</svg>
