<?xml version="1.0" encoding="UTF-8"?>
<svg xmlns="http://www.w3.org/2000/svg" xmlns:xlink="http://www.w3.org/1999/xlink" width="500pt" height="500pt" viewBox="0 0 500 500" version="1.1">
<g id="surface1">
<path style=" stroke:none;fill-rule:nonzero;fill:#000000;fill-opacity:1;" d="M 248.015625 0 C 198.140625 0 158.730469 45.148438 158.730469 99.207031 C 158.730469 153.265625 198.140625 198.414063 248.015625 198.414063 C 297.890625 198.414063 337.300781 153.265625 337.300781 99.207031 C 337.300781 45.148438 297.890625 0 248.015625 0 Z M 248.015625 19.839844 C 285.800781 19.839844 317.460938 54.679688 317.460938 99.207031 C 317.460938 143.734375 285.800781 178.570313 248.015625 178.570313 C 210.230469 178.570313 178.570313 143.734375 178.570313 99.207031 C 178.570313 54.679688 210.230469 19.839844 248.015625 19.839844 Z M 248.015625 208.953125 C 190.042969 208.953125 153.730469 217.363281 121.835938 229.726563 C 111.453125 233.753906 104.128906 241.777344 97.65625 250.804688 C 91.183594 259.835938 85.292969 270.296875 78.433594 280.878906 C 57.546875 313.042969 20.191406 368.613281 8.371094 391.554688 C -0.386719 408.527344 -1.707031 425.269531 6.511719 441.160156 C 14.300781 456.234375 24.492188 474.523438 33.792969 490.761719 L 36.273438 495.410156 L 108.507813 495.410156 L 108.507813 486.109375 C 108.507813 420.65625 170.164063 366.445313 248.015625 366.445313 C 325.871094 366.445313 387.523438 420.65625 387.523438 486.109375 L 387.523438 495.410156 L 459.449219 495.410156 L 462.238281 490.761719 C 471.539063 474.523438 481.730469 456.234375 489.519531 441.160156 C 497.738281 425.269531 496.417969 408.527344 487.660156 391.554688 C 481.65625 379.929688 468.632813 360.050781 454.800781 338.851563 C 440.964844 317.652344 426.511719 295.644531 417.90625 281.1875 C 404.847656 259.214844 395.160156 236.933594 374.195313 229.414063 C 341.757813 217.75 306.066406 208.953125 248.015625 208.953125 Z M 248.015625 227.554688 C 304.207031 227.554688 336.410156 235.539063 367.683594 246.777344 C 378.148438 250.535156 388.6875 267.933594 402.097656 290.488281 C 411.125 305.679688 425.503906 327.921875 439.296875 349.082031 C 453.09375 370.242188 466.308594 390.703125 471.230469 400.234375 C 478.515625 414.339844 479.019531 421.355469 473.089844 432.789063 C 466.230469 446.042969 457.085938 461.929688 448.597656 476.808594 L 404.886719 476.808594 C 399.265625 404.382813 330.90625 347.84375 248.015625 347.84375 C 165.125 347.84375 96.765625 404.382813 91.144531 476.808594 L 47.121094 476.808594 C 38.636719 461.929688 29.800781 446.042969 22.941406 432.789063 C 17.011719 421.355469 17.515625 414.339844 24.800781 400.234375 C 34.800781 380.859375 72.894531 323.195313 93.9375 290.796875 C 101.183594 279.636719 107.265625 269.136719 112.847656 261.347656 C 118.425781 253.558594 123.464844 248.789063 128.660156 246.777344 C 158.769531 235.109375 191.746094 227.554688 248.015625 227.554688 Z M 248.015625 386.90625 C 183.453125 386.90625 128.96875 430.152344 128.96875 485.800781 C 128.929688 489.367188 130.789063 492.699219 133.890625 494.519531 C 136.988281 496.304688 140.789063 496.304688 143.886719 494.519531 C 146.988281 492.699219 148.847656 489.367188 148.808594 485.800781 C 148.808594 443.367188 192.25 406.746094 248.015625 406.746094 C 303.78125 406.746094 347.222656 443.367188 347.222656 485.800781 C 347.183594 489.367188 349.042969 492.699219 352.144531 494.519531 C 355.242188 496.304688 359.042969 496.304688 362.140625 494.519531 C 365.242188 492.699219 367.101563 489.367188 367.0625 485.800781 C 367.0625 430.152344 312.578125 386.90625 248.015625 386.90625 Z "/>
</g>
</svg>
