<?xml version="1.0" encoding="UTF-8"?>
<svg xmlns="http://www.w3.org/2000/svg" xmlns:xlink="http://www.w3.org/1999/xlink" width="500pt" height="500pt" viewBox="0 0 500 500" version="1.1">
<g id="surface1">
<path style=" stroke:none;fill-rule:nonzero;fill:#000000;fill-opacity:1;" d="M 99.207031 19.839844 C 55.453125 19.839844 19.839844 55.453125 19.839844 99.207031 C 19.839844 142.957031 55.453125 178.570313 99.207031 178.570313 C 142.957031 178.570313 178.570313 142.957031 178.570313 99.207031 C 178.570313 55.453125 142.957031 19.839844 99.207031 19.839844 Z M 357.144531 69.445313 C 351.640625 69.445313 347.222656 73.902344 347.222656 79.363281 L 347.222656 148.808594 L 337.300781 148.808594 C 331.796875 148.808594 327.382813 153.265625 327.382813 158.730469 C 327.382813 164.195313 331.796875 168.652344 337.300781 168.652344 L 476.191406 168.652344 C 481.691406 168.652344 486.109375 164.195313 486.109375 158.730469 C 486.109375 153.265625 481.691406 148.808594 476.191406 148.808594 L 466.269531 148.808594 L 466.269531 119.046875 C 466.269531 113.582031 461.8125 109.128906 456.347656 109.128906 L 436.507813 109.128906 L 436.507813 79.363281 C 436.507813 73.902344 432.089844 69.445313 426.585938 69.445313 Z M 436.507813 128.96875 L 446.429688 128.96875 L 446.429688 148.808594 L 436.507813 148.808594 Z M 305.679688 178.570313 C 300.214844 179.074219 296.183594 183.957031 296.6875 189.421875 C 297.191406 194.886719 302.074219 198.917969 307.539063 198.414063 L 456.347656 198.414063 C 459.914063 198.453125 463.246094 196.589844 465.070313 193.492188 C 466.851563 190.390625 466.851563 186.59375 465.070313 183.492188 C 463.246094 180.394531 459.914063 178.53125 456.347656 178.570313 L 307.539063 178.570313 C 307.230469 178.570313 306.917969 178.570313 306.609375 178.570313 C 306.300781 178.570313 305.988281 178.570313 305.679688 178.570313 Z M 49.601563 198.414063 C 42.628906 198.414063 21.042969 200.503906 8.371094 202.441406 C 3.527344 203.179688 0 207.480469 0 212.363281 L 0 466.269531 C 0 471.773438 4.457031 476.191406 9.921875 476.191406 L 208.332031 476.191406 C 213.796875 476.191406 218.253906 471.773438 218.253906 466.269531 L 218.253906 348.773438 L 244.914063 378.84375 C 252.628906 387.640625 260.496094 396.824219 272.816406 396.824219 C 285.335938 396.824219 291.765625 391.128906 301.648438 377.914063 C 305.097656 373.109375 347.300781 323.894531 374.195313 292.660156 C 377.140625 289.753906 392.292969 285.566406 402.40625 282.738281 C 423.875 276.691406 445.964844 270.453125 453.558594 257.9375 L 312.808594 257.9375 L 274.367188 295.140625 L 218.5625 212.671875 C 218.214844 212.167969 217.789063 211.550781 217.324219 211.125 C 205.117188 198.917969 158.109375 198.414063 148.808594 198.414063 C 144.199219 198.414063 140.246094 201.707031 139.199219 206.164063 L 99.207031 393.726563 L 59.214844 206.164063 C 58.167969 201.707031 54.214844 198.414063 49.601563 198.414063 Z M 287.699219 208.332031 C 282.195313 208.332031 277.777344 212.789063 277.777344 218.253906 C 277.777344 240.496094 305.136719 248.015625 327.382813 248.015625 L 446.429688 248.015625 C 468.671875 248.015625 496.03125 240.496094 496.03125 218.253906 C 496.03125 212.789063 491.613281 208.332031 486.109375 208.332031 Z "/>
</g>
</svg>
