<?xml version="1.0" encoding="UTF-8"?>
<svg xmlns="http://www.w3.org/2000/svg" xmlns:xlink="http://www.w3.org/1999/xlink" width="500pt" height="500pt" viewBox="0 0 500 500" version="1.1">
<g id="surface1">
<path style=" stroke:none;fill-rule:nonzero;fill:#000000;fill-opacity:1;" d="M 49.601563 39.683594 C 44.140625 39.683594 39.683594 43.675781 39.683594 49.136719 L 39.683594 446.429688 C 39.683594 451.894531 44.140625 456.347656 49.601563 456.347656 L 198.414063 456.347656 L 198.414063 496.03125 L 496.03125 496.03125 L 496.03125 307.539063 L 456.347656 307.539063 L 456.347656 49.136719 C 456.347656 43.675781 451.894531 39.683594 446.429688 39.683594 Z M 198.414063 99.207031 L 297.617188 99.207031 C 308.585938 99.207031 317.460938 108.082031 317.460938 119.046875 C 317.460938 130.015625 308.585938 138.890625 297.617188 138.890625 L 198.414063 138.890625 C 187.445313 138.890625 178.570313 130.015625 178.570313 119.046875 C 178.570313 108.082031 187.445313 99.207031 198.414063 99.207031 Z M 218.253906 327.382813 L 237.359375 327.382813 C 235.539063 330.945313 234.140625 334.316406 233.097656 336.914063 C 231.816406 339.9375 230.460938 341.914063 230.964844 341.371094 C 231.507813 340.828125 229.761719 342.144531 227.050781 343.308594 C 224.6875 344.277344 221.507813 345.554688 218.253906 346.949219 Z M 267.855469 327.382813 L 426.585938 327.382813 C 434.183594 327.382813 435.886719 329.976563 438.871094 335.285156 C 440.34375 337.960938 441.660156 341.175781 443.019531 344.546875 C 444.414063 347.882813 445.539063 351.367188 449.140625 355.128906 L 449.179688 355.128906 C 452.746094 358.847656 456.308594 360.164063 459.71875 361.597656 C 463.132813 362.996094 466.503906 364.273438 469.332031 365.550781 C 472.121094 366.871094 474.175781 368.265625 475.144531 369.273438 C 476.074219 370.28125 476.191406 370.359375 476.191406 371.675781 L 476.191406 431.894531 C 476.191406 433.214844 476.074219 433.292969 475.144531 434.300781 C 474.175781 435.304688 472.121094 436.703125 469.332031 438.019531 C 466.503906 439.296875 463.132813 440.539063 459.71875 441.972656 C 456.308594 443.445313 452.746094 444.722656 449.179688 448.445313 L 449.140625 448.445313 C 445.539063 452.203125 444.414063 455.691406 443.019531 459.023438 C 441.660156 462.394531 440.34375 465.609375 438.871094 468.285156 C 435.886719 473.59375 434.183594 476.191406 426.585938 476.191406 L 267.855469 476.191406 C 260.261719 476.191406 258.554688 473.59375 255.574219 468.285156 C 254.101563 465.609375 252.78125 462.394531 251.386719 459.023438 C 249.992188 455.691406 248.90625 452.203125 245.265625 448.445313 C 241.699219 444.722656 238.132813 443.445313 234.722656 441.972656 C 231.3125 440.539063 227.941406 439.296875 225.113281 438.019531 C 222.324219 436.703125 220.269531 435.304688 219.300781 434.300781 C 218.332031 433.292969 218.253906 433.214844 218.253906 431.894531 L 218.253906 371.675781 C 218.253906 371.015625 218.292969 370.667969 218.410156 370.359375 C 218.5625 370.046875 218.835938 369.777344 219.300781 369.273438 C 220.269531 368.265625 222.324219 366.871094 225.113281 365.550781 C 227.941406 364.273438 231.3125 362.996094 234.722656 361.597656 C 238.132813 360.164063 241.699219 358.847656 245.265625 355.128906 C 248.90625 351.367188 249.992188 347.882813 251.386719 344.546875 C 252.78125 341.175781 254.101563 337.960938 255.574219 335.285156 C 258.554688 329.976563 260.261719 327.382813 267.855469 327.382813 Z M 457.085938 327.382813 L 476.191406 327.382813 L 476.191406 346.949219 C 472.933594 345.554688 469.71875 344.277344 467.394531 343.308594 C 464.640625 342.144531 462.976563 340.867188 463.480469 341.371094 L 463.441406 341.332031 C 463.945313 341.875 462.628906 339.9375 461.347656 336.914063 C 460.300781 334.316406 458.90625 330.945313 457.085938 327.382813 Z M 347.222656 347.222656 C 319.28125 347.222656 297.617188 372.371094 297.617188 401.785156 C 297.617188 431.199219 319.28125 456.347656 347.222656 456.347656 C 375.164063 456.347656 396.824219 431.199219 396.824219 401.785156 C 396.824219 372.371094 375.164063 347.222656 347.222656 347.222656 Z M 347.222656 367.0625 C 363.109375 367.0625 376.984375 381.90625 376.984375 401.785156 C 376.984375 421.664063 363.109375 436.507813 347.222656 436.507813 C 331.332031 436.507813 317.460938 421.664063 317.460938 401.785156 C 317.460938 381.90625 331.332031 367.0625 347.222656 367.0625 Z M 262.898438 386.90625 C 254.679688 386.90625 248.015625 393.570313 248.015625 401.785156 C 248.015625 410 254.679688 416.667969 262.898438 416.667969 C 271.113281 416.667969 277.777344 410 277.777344 401.785156 C 277.777344 393.570313 271.113281 386.90625 262.898438 386.90625 Z M 431.546875 386.90625 C 423.332031 386.90625 416.667969 393.570313 416.667969 401.785156 C 416.667969 410 423.332031 416.667969 431.546875 416.667969 C 439.761719 416.667969 446.429688 410 446.429688 401.785156 C 446.429688 393.570313 439.761719 386.90625 431.546875 386.90625 Z M 218.253906 456.621094 C 221.507813 458.015625 224.6875 459.292969 227.050781 460.261719 C 229.761719 461.425781 231.507813 462.742188 230.964844 462.238281 C 230.460938 461.660156 231.816406 463.632813 233.097656 466.65625 C 234.140625 469.253906 235.539063 472.625 237.359375 476.191406 L 218.253906 476.191406 Z M 476.191406 456.621094 L 476.191406 476.191406 L 457.085938 476.191406 C 458.90625 472.625 460.300781 469.253906 461.347656 466.65625 C 462.628906 463.632813 463.984375 461.660156 463.480469 462.238281 C 462.976563 462.742188 464.640625 461.425781 467.394531 460.261719 C 469.71875 459.292969 472.933594 458.015625 476.191406 456.621094 Z "/>
</g>
</svg>
