<?xml version="1.0" encoding="UTF-8"?>
<svg xmlns="http://www.w3.org/2000/svg" xmlns:xlink="http://www.w3.org/1999/xlink" width="500pt" height="500pt" viewBox="0 0 500 500" version="1.1">
<g id="surface1">
<path style=" stroke:none;fill-rule:nonzero;fill:#000000;fill-opacity:1;" d="M 436.507813 39.683594 L 59.523438 39.683594 C 48.558594 39.683594 39.683594 48.558594 39.683594 59.523438 L 39.683594 436.507813 C 39.683594 447.476563 48.558594 456.347656 59.523438 456.347656 L 436.507813 456.347656 C 447.476563 456.347656 456.347656 447.476563 456.347656 436.507813 L 456.347656 59.523438 C 456.347656 48.558594 447.476563 39.683594 436.507813 39.683594 Z M 436.507813 436.507813 L 59.523438 436.507813 L 59.523438 59.523438 L 191.785156 59.523438 L 273.824219 121.023438 L 261.890625 136.914063 L 185.199219 79.363281 L 79.363281 79.363281 L 79.363281 416.667969 L 218.253906 416.667969 L 218.253906 277.777344 L 148.808594 277.777344 L 148.808594 257.9375 L 307.539063 257.9375 L 307.539063 277.777344 L 238.09375 277.777344 L 238.09375 416.667969 L 416.667969 416.667969 L 416.667969 277.777344 L 357.144531 277.777344 L 357.144531 257.9375 L 416.667969 257.9375 L 416.667969 79.363281 L 307.539063 79.363281 L 307.539063 59.523438 L 436.507813 59.523438 Z "/>
</g>
</svg>
