<?xml version="1.0" encoding="UTF-8"?>
<svg xmlns="http://www.w3.org/2000/svg" xmlns:xlink="http://www.w3.org/1999/xlink" width="500pt" height="500pt" viewBox="0 0 500 500" version="1.1">
<g id="surface1">
<path style=" stroke:none;fill-rule:nonzero;fill:#000000;fill-opacity:1;" d="M 59.523438 19.839844 L 59.523438 476.191406 L 436.507813 476.191406 L 436.507813 285.722656 L 477.160156 245.03125 L 480.183594 242.085938 C 480.183594 242.046875 480.183594 242.046875 480.183594 242.007813 L 484.132813 238.09375 C 500.023438 222.207031 500.023438 196.4375 484.132813 180.546875 C 471.230469 167.644531 451.855469 165.433594 436.507813 173.496094 L 436.507813 19.839844 Z M 128.96875 138.890625 L 168.652344 138.890625 L 168.652344 158.730469 L 128.96875 158.730469 Z M 198.414063 138.890625 L 367.0625 138.890625 L 367.0625 158.730469 L 198.414063 158.730469 Z M 128.96875 198.414063 L 168.652344 198.414063 L 168.652344 218.253906 L 128.96875 218.253906 Z M 198.414063 198.414063 L 367.0625 198.414063 L 367.0625 218.253906 L 198.414063 218.253906 Z M 433.523438 201.398438 L 463.285156 231.160156 L 325.480469 368.960938 L 295.71875 339.199219 Z M 128.96875 257.9375 L 168.652344 257.9375 L 168.652344 277.777344 L 128.96875 277.777344 Z M 198.414063 257.9375 L 349.199219 257.9375 L 329.394531 277.777344 L 198.414063 277.777344 Z M 128.96875 317.460938 L 168.652344 317.460938 L 168.652344 337.300781 L 128.96875 337.300781 Z M 198.414063 317.460938 L 289.714844 317.460938 L 269.871094 337.300781 L 198.414063 337.300781 Z M 281.730469 353.269531 L 311.414063 382.953125 L 270.839844 393.839844 Z "/>
</g>
</svg>
