<?xml version="1.0" encoding="UTF-8"?>
<svg xmlns="http://www.w3.org/2000/svg" xmlns:xlink="http://www.w3.org/1999/xlink" width="500pt" height="500pt" viewBox="0 0 500 500" version="1.1">
<g id="surface1">
<path style=" stroke:none;fill-rule:nonzero;fill:#000000;fill-opacity:1;" d="M 249.257813 19.839844 C 246.273438 19.878906 243.289063 20.074219 240.265625 20.460938 C 234.179688 21.238281 227.554688 23.210938 222.285156 28.523438 L 27.589844 223.214844 C 17.476563 233.328125 17.476563 249.992188 27.589844 260.105469 L 84.015625 316.839844 C 84.480469 317.304688 85.023438 317.730469 85.566406 318.082031 C 85.71875 318.234375 86.03125 318.234375 86.183594 318.390625 C 86.300781 318.507813 86.378906 318.585938 86.496094 318.699219 C 86.765625 318.972656 86.84375 319.359375 87.117188 319.628906 L 235.925781 468.441406 C 246.039063 478.554688 262.703125 478.554688 272.816406 468.441406 L 467.511719 273.746094 C 472.742188 268.515625 474.796875 261.8125 475.570313 255.765625 C 476.34375 249.722656 476.191406 243.753906 476.191406 238.09375 L 476.191406 236.855469 C 476.191406 235.925781 476.191406 234.570313 476.191406 232.824219 C 476.191406 231.699219 476.191406 229.609375 476.191406 228.175781 C 476.191406 225.230469 476.191406 222.554688 476.191406 218.5625 C 476.191406 206.707031 476.191406 190.699219 476.191406 174.851563 C 476.191406 143.152344 476.191406 111.414063 476.191406 110.675781 C 476.191406 93.472656 462.046875 79.363281 444.878906 79.363281 L 416.667969 79.363281 L 416.667969 51.152344 C 416.667969 33.945313 402.5625 19.839844 385.355469 19.839844 L 257.9375 19.839844 C 255.183594 19.839844 252.238281 19.800781 249.257813 19.839844 Z M 249.566406 39.683594 C 252.085938 39.683594 254.992188 39.683594 257.9375 39.683594 L 385.355469 39.683594 C 391.828125 39.683594 396.824219 44.679688 396.824219 51.152344 L 396.824219 79.363281 L 359.621094 79.363281 C 359.234375 78.9375 358.808594 78.550781 358.382813 78.125 C 352.609375 72.351563 344.9375 69.445313 337.300781 69.445313 C 329.667969 69.445313 321.996094 72.351563 316.21875 78.125 C 315.792969 78.550781 315.367188 78.9375 314.980469 79.363281 C 310.136719 79.328125 304.980469 79.328125 299.789063 79.984375 C 293.703125 80.761719 287.078125 82.738281 281.808594 88.046875 L 87.117188 282.738281 C 85.566406 284.289063 84.171875 285.914063 83.085938 287.699219 L 41.542969 246.15625 C 38.984375 243.597656 39.023438 239.683594 41.542969 237.164063 L 236.234375 42.472656 C 237.28125 41.425781 239.257813 40.496094 243.054688 39.992188 C 244.953125 39.761719 247.046875 39.683594 249.566406 39.683594 Z M 309.089844 99.207031 L 444.878906 99.207031 C 451.351563 99.207031 456.347656 104.207031 456.347656 110.675781 C 456.347656 111.296875 456.347656 143.152344 456.347656 174.851563 C 456.347656 190.699219 456.347656 206.707031 456.347656 218.5625 C 456.347656 224.492188 456.347656 229.375 456.347656 232.824219 C 456.347656 234.570313 456.347656 235.925781 456.347656 236.855469 C 456.347656 237.320313 456.347656 237.550781 456.347656 237.785156 C 456.347656 238.019531 456.347656 238.09375 456.347656 238.09375 C 456.347656 244.101563 456.542969 249.527344 456.039063 253.285156 C 455.535156 257.046875 454.644531 258.710938 453.558594 259.796875 L 258.867188 454.488281 C 256.308594 457.046875 252.394531 457.007813 249.875 454.488281 L 101.066406 305.679688 C 98.507813 303.121094 98.546875 299.207031 101.066406 296.6875 L 295.757813 101.996094 C 296.804688 100.949219 298.78125 100.019531 302.578125 99.515625 C 304.476563 99.285156 306.570313 99.207031 309.089844 99.207031 Z M 396.824219 128.96875 C 389.191406 128.96875 381.519531 131.875 375.742188 137.648438 C 364.195313 149.195313 364.195313 168.261719 375.742188 179.8125 C 387.292969 191.359375 406.359375 191.359375 417.90625 179.8125 C 429.453125 168.261719 429.453125 149.195313 417.90625 137.648438 C 412.132813 131.875 404.460938 128.96875 396.824219 128.96875 Z M 396.824219 148.808594 C 399.34375 148.808594 401.980469 149.625 403.957031 151.601563 C 407.910156 155.550781 407.910156 161.90625 403.957031 165.859375 C 400.003906 169.8125 393.648438 169.8125 389.695313 165.859375 C 385.742188 161.90625 385.742188 155.550781 389.695313 151.601563 C 391.671875 149.625 394.304688 148.808594 396.824219 148.808594 Z "/>
</g>
</svg>
