<?xml version="1.0" encoding="UTF-8"?>
<svg xmlns="http://www.w3.org/2000/svg" xmlns:xlink="http://www.w3.org/1999/xlink" width="500pt" height="500pt" viewBox="0 0 500 500" version="1.1">
<g id="surface1">
<path style=" stroke:none;fill-rule:nonzero;fill:#000000;fill-opacity:1;" d="M 29.761719 39.683594 L 29.761719 257.9375 L 59.523438 257.9375 L 59.523438 456.347656 L 436.507813 456.347656 L 436.507813 257.9375 L 466.269531 257.9375 L 466.269531 39.683594 Z M 49.601563 59.523438 L 446.429688 59.523438 L 446.429688 238.09375 L 428.253906 238.09375 C 427.167969 237.902344 426.082031 237.902344 425.039063 238.09375 L 322.886719 238.09375 L 248.015625 120.402344 L 173.144531 238.09375 L 70.996094 238.09375 C 70.414063 238.019531 69.871094 237.941406 69.289063 237.941406 C 68.824219 237.980469 68.320313 238.019531 67.855469 238.09375 L 49.601563 238.09375 Z M 248.015625 157.375 L 312.035156 257.9375 L 416.667969 257.9375 L 416.667969 436.507813 L 297.617188 436.507813 L 297.617188 347.222656 C 297.617188 319.941406 275.296875 297.617188 248.015625 297.617188 C 220.734375 297.617188 198.414063 319.941406 198.414063 347.222656 L 198.414063 436.507813 L 79.363281 436.507813 L 79.363281 257.9375 L 183.996094 257.9375 Z M 99.207031 297.617188 L 99.207031 386.90625 L 178.570313 386.90625 L 178.570313 297.617188 Z M 317.460938 297.617188 L 317.460938 386.90625 L 396.824219 386.90625 L 396.824219 297.617188 Z M 119.046875 317.460938 L 158.730469 317.460938 L 158.730469 367.0625 L 119.046875 367.0625 Z M 248.015625 317.460938 C 264.5625 317.460938 277.777344 330.675781 277.777344 347.222656 L 277.777344 436.507813 L 218.253906 436.507813 L 218.253906 347.222656 C 218.253906 330.675781 231.46875 317.460938 248.015625 317.460938 Z M 337.300781 317.460938 L 376.984375 317.460938 L 376.984375 367.0625 L 337.300781 367.0625 Z "/>
</g>
</svg>
