<?xml version="1.0" encoding="UTF-8"?>
<svg xmlns="http://www.w3.org/2000/svg" xmlns:xlink="http://www.w3.org/1999/xlink" width="500pt" height="500pt" viewBox="0 0 500 500" version="1.1">
<g id="surface1">
<path style=" stroke:none;fill-rule:nonzero;fill:#000000;fill-opacity:1;" d="M 49.601563 39.683594 C 22.242188 39.683594 0 61.925781 0 89.285156 L 0 376.984375 C 0 404.34375 22.242188 426.585938 49.601563 426.585938 L 208.332031 426.585938 C 224.726563 426.585938 238.09375 439.957031 238.09375 456.347656 L 238.09375 89.285156 C 238.09375 61.925781 215.851563 39.683594 188.492188 39.683594 Z M 307.539063 39.683594 C 280.179688 39.683594 257.9375 61.925781 257.9375 89.285156 L 257.9375 456.347656 C 257.9375 439.957031 271.304688 426.585938 287.699219 426.585938 L 446.429688 426.585938 C 473.789063 426.585938 496.03125 404.34375 496.03125 376.984375 L 496.03125 89.285156 C 496.03125 61.925781 473.789063 39.683594 446.429688 39.683594 Z M 113.15625 99.207031 C 141.253906 99.207031 158.730469 143.847656 158.730469 178.570313 C 158.730469 225.695313 128.96875 219.921875 128.96875 238.09375 L 128.96875 317.460938 C 128.96875 357.144531 125.132813 367.0625 114.398438 367.0625 C 103.664063 367.0625 99.207031 359.621094 99.207031 317.460938 L 99.207031 238.09375 C 99.207031 219.921875 69.445313 224.878906 69.445313 178.570313 C 69.445313 146.328125 85.023438 99.207031 113.15625 99.207031 Z M 307.539063 119.046875 L 396.824219 119.046875 C 402.289063 119.046875 406.746094 123.464844 406.746094 128.96875 C 406.746094 134.472656 402.289063 138.890625 396.824219 138.890625 L 307.539063 138.890625 C 302.074219 138.890625 297.617188 134.472656 297.617188 128.96875 C 297.617188 123.464844 302.074219 119.046875 307.539063 119.046875 Z M 436.507813 119.046875 L 446.429688 119.046875 C 451.894531 119.046875 456.347656 123.464844 456.347656 128.96875 C 456.347656 134.472656 451.894531 138.890625 446.429688 138.890625 L 436.507813 138.890625 C 431.042969 138.890625 426.585938 134.472656 426.585938 128.96875 C 426.585938 123.464844 431.042969 119.046875 436.507813 119.046875 Z M 307.539063 168.652344 L 396.824219 168.652344 C 402.289063 168.652344 406.746094 173.070313 406.746094 178.570313 C 406.746094 184.074219 402.289063 188.492188 396.824219 188.492188 L 307.539063 188.492188 C 302.074219 188.492188 297.617188 184.074219 297.617188 178.570313 C 297.617188 173.070313 302.074219 168.652344 307.539063 168.652344 Z M 436.507813 168.652344 L 446.429688 168.652344 C 451.894531 168.652344 456.347656 173.070313 456.347656 178.570313 C 456.347656 184.074219 451.894531 188.492188 446.429688 188.492188 L 436.507813 188.492188 C 431.042969 188.492188 426.585938 184.074219 426.585938 178.570313 C 426.585938 173.070313 431.042969 168.652344 436.507813 168.652344 Z M 307.539063 218.253906 L 396.824219 218.253906 C 402.289063 218.253906 406.746094 222.671875 406.746094 228.175781 C 406.746094 233.675781 402.289063 238.09375 396.824219 238.09375 L 307.539063 238.09375 C 302.074219 238.09375 297.617188 233.675781 297.617188 228.175781 C 297.617188 222.671875 302.074219 218.253906 307.539063 218.253906 Z M 436.507813 218.253906 L 446.429688 218.253906 C 451.894531 218.253906 456.347656 222.671875 456.347656 228.175781 C 456.347656 233.675781 451.894531 238.09375 446.429688 238.09375 L 436.507813 238.09375 C 431.042969 238.09375 426.585938 233.675781 426.585938 228.175781 C 426.585938 222.671875 431.042969 218.253906 436.507813 218.253906 Z M 307.539063 267.855469 L 396.824219 267.855469 C 402.289063 267.855469 406.746094 272.273438 406.746094 277.777344 C 406.746094 283.28125 402.289063 287.699219 396.824219 287.699219 L 307.539063 287.699219 C 302.074219 287.699219 297.617188 283.28125 297.617188 277.777344 C 297.617188 272.273438 302.074219 267.855469 307.539063 267.855469 Z M 436.507813 267.855469 L 446.429688 267.855469 C 451.894531 267.855469 456.347656 272.273438 456.347656 277.777344 C 456.347656 283.28125 451.894531 287.699219 446.429688 287.699219 L 436.507813 287.699219 C 431.042969 287.699219 426.585938 283.28125 426.585938 277.777344 C 426.585938 272.273438 431.042969 267.855469 436.507813 267.855469 Z M 307.539063 317.460938 L 396.824219 317.460938 C 402.289063 317.460938 406.746094 321.878906 406.746094 327.382813 C 406.746094 332.882813 402.289063 337.300781 396.824219 337.300781 L 307.539063 337.300781 C 302.074219 337.300781 297.617188 332.882813 297.617188 327.382813 C 297.617188 321.878906 302.074219 317.460938 307.539063 317.460938 Z M 436.507813 317.460938 L 446.429688 317.460938 C 451.894531 317.460938 456.347656 321.878906 456.347656 327.382813 C 456.347656 332.882813 451.894531 337.300781 446.429688 337.300781 L 436.507813 337.300781 C 431.042969 337.300781 426.585938 332.882813 426.585938 327.382813 C 426.585938 321.878906 431.042969 317.460938 436.507813 317.460938 Z "/>
</g>
</svg>
