<?xml version="1.0" encoding="UTF-8"?>
<svg xmlns="http://www.w3.org/2000/svg" xmlns:xlink="http://www.w3.org/1999/xlink" width="500pt" height="500pt" viewBox="0 0 500 500" version="1.1">
<g id="surface1">
<path style=" stroke:none;fill-rule:nonzero;fill:#000000;fill-opacity:1;" d="M 59.523438 19.839844 L 59.523438 476.191406 L 436.507813 476.191406 L 436.507813 286.457031 L 480.183594 243.054688 C 481.074219 242.125 481.730469 241.078125 482.234375 239.992188 L 484.132813 238.09375 C 500.023438 222.207031 500.023438 196.4375 484.132813 180.546875 C 471.230469 167.644531 451.855469 165.433594 436.507813 173.496094 L 436.507813 19.839844 Z M 79.363281 39.683594 L 416.667969 39.683594 L 416.667969 192.445313 L 351.175781 257.9375 L 198.414063 257.9375 L 198.414063 277.777344 L 331.371094 277.777344 L 291.691406 317.460938 L 198.414063 317.460938 L 198.414063 337.300781 L 271.847656 337.300781 L 267.855469 341.292969 C 265.878906 342.261719 264.875 343.269531 264.875 345.246094 L 248.015625 404.769531 C 247.007813 408.722656 247.007813 411.707031 249.992188 414.691406 C 251.96875 416.667969 253.984375 417.636719 256.96875 417.636719 L 259.914063 417.636719 L 319.4375 401.785156 C 320.445313 400.777344 322.421875 399.808594 323.390625 398.800781 L 416.667969 306.144531 L 416.667969 456.347656 L 79.363281 456.347656 Z M 128.96875 138.890625 L 128.96875 158.730469 L 168.652344 158.730469 L 168.652344 138.890625 Z M 198.414063 138.890625 L 198.414063 158.730469 L 367.0625 158.730469 L 367.0625 138.890625 Z M 128.96875 198.414063 L 128.96875 218.253906 L 168.652344 218.253906 L 168.652344 198.414063 Z M 198.414063 198.414063 L 198.414063 218.253906 L 367.0625 218.253906 L 367.0625 198.414063 Z M 434.492188 202.367188 L 463.789063 231.625 L 311.53125 382.914063 L 311.375 382.992188 L 282.351563 354.625 L 282.738281 353.152344 Z M 128.96875 257.9375 L 128.96875 277.777344 L 168.652344 277.777344 L 168.652344 257.9375 Z M 128.96875 317.460938 L 128.96875 337.300781 L 168.652344 337.300781 L 168.652344 317.460938 Z "/>
</g>
</svg>
