<?xml version="1.0" encoding="UTF-8"?>
<svg xmlns="http://www.w3.org/2000/svg" xmlns:xlink="http://www.w3.org/1999/xlink" width="500pt" height="500pt" viewBox="0 0 500 500" version="1.1">
<g id="surface1">
<path style=" stroke:none;fill-rule:nonzero;fill:#000000;fill-opacity:1;" d="M 277.777344 0 C 271.808594 0 267.855469 3.953125 267.855469 9.921875 L 267.855469 89.285156 C 267.855469 95.253906 271.808594 99.207031 277.777344 99.207031 L 307.539063 99.207031 L 307.539063 109.128906 L 238.09375 109.128906 L 238.09375 59.523438 C 238.09375 54.058594 233.640625 49.601563 228.175781 49.601563 L 99.207031 49.601563 C 98.894531 49.601563 98.585938 49.601563 98.277344 49.601563 C 93.160156 50.066406 89.246094 54.371094 89.285156 59.523438 L 89.285156 109.128906 L 71.304688 109.128906 C 60.375 109.128906 42.550781 113.15625 36.582031 142.917969 L 0 381.945313 L 496.03125 381.945313 L 459.449219 141.988281 C 454.488281 113.234375 435.65625 109.128906 424.726563 109.128906 L 386.90625 109.128906 L 386.90625 99.207031 L 416.667969 99.207031 C 422.632813 99.207031 426.585938 95.253906 426.585938 89.285156 L 426.585938 9.921875 C 426.585938 3.953125 422.632813 0 416.667969 0 Z M 109.128906 69.445313 L 218.253906 69.445313 L 218.253906 228.175781 L 109.128906 228.175781 Z M 128.96875 99.207031 L 128.96875 119.046875 L 198.414063 119.046875 L 198.414063 99.207031 Z M 128.96875 138.890625 L 128.96875 158.730469 L 198.414063 158.730469 L 198.414063 138.890625 Z M 288.628906 148.808594 L 399.925781 148.808594 C 410.855469 148.808594 421.628906 157.722656 421.628906 168.652344 L 426.585938 204.304688 C 427.59375 210.269531 426.472656 216.160156 423.488281 220.113281 C 419.535156 225.074219 414.613281 228.175781 407.675781 228.175781 L 289.558594 228.175781 C 277.660156 228.175781 267.855469 218.371094 267.855469 206.472656 L 267.855469 169.582031 C 267.855469 157.683594 276.730469 148.808594 288.628906 148.808594 Z M 128.96875 178.570313 L 128.96875 198.414063 L 198.414063 198.414063 L 198.414063 178.570313 Z M 277.777344 248.945313 L 298.550781 248.945313 C 303.507813 248.945313 307.539063 252.976563 307.539063 257.9375 L 307.539063 278.707031 C 307.539063 283.667969 303.507813 287.699219 298.550781 287.699219 L 277.777344 287.699219 C 272.816406 287.699219 268.789063 283.667969 268.789063 278.707031 L 268.789063 257.9375 C 268.789063 252.976563 272.816406 248.945313 277.777344 248.945313 Z M 337.300781 248.945313 L 358.074219 248.945313 C 363.035156 248.945313 367.0625 252.976563 367.0625 257.9375 L 367.0625 278.707031 C 367.0625 283.667969 363.035156 287.699219 358.074219 287.699219 L 337.300781 287.699219 C 332.339844 287.699219 328.3125 283.667969 328.3125 278.707031 L 328.3125 257.9375 C 328.3125 252.976563 332.339844 248.945313 337.300781 248.945313 Z M 396.824219 248.945313 L 417.597656 248.945313 C 422.558594 248.945313 426.585938 252.976563 426.585938 257.9375 L 426.585938 278.707031 C 426.585938 283.667969 422.558594 287.699219 417.597656 287.699219 L 396.824219 287.699219 C 391.863281 287.699219 387.835938 283.667969 387.835938 278.707031 L 387.835938 257.9375 C 387.835938 252.976563 391.863281 248.945313 396.824219 248.945313 Z M 277.777344 308.46875 L 298.550781 308.46875 C 303.507813 308.46875 307.539063 312.5 307.539063 317.460938 L 307.539063 338.230469 C 307.539063 343.191406 303.507813 347.222656 298.550781 347.222656 L 277.777344 347.222656 C 272.816406 347.222656 268.789063 343.191406 268.789063 338.230469 L 268.789063 317.460938 C 268.789063 312.5 272.816406 308.46875 277.777344 308.46875 Z M 337.300781 308.46875 L 358.074219 308.46875 C 363.035156 308.46875 367.0625 312.5 367.0625 317.460938 L 367.0625 338.230469 C 367.0625 343.191406 363.035156 347.222656 358.074219 347.222656 L 337.300781 347.222656 C 332.339844 347.222656 328.3125 343.191406 328.3125 338.230469 L 328.3125 317.460938 C 328.3125 312.5 332.339844 308.46875 337.300781 308.46875 Z M 396.824219 308.46875 L 417.597656 308.46875 C 422.558594 308.46875 426.585938 312.5 426.585938 317.460938 L 426.585938 338.230469 C 426.585938 343.191406 422.558594 347.222656 417.597656 347.222656 L 396.824219 347.222656 C 391.863281 347.222656 387.835938 343.191406 387.835938 338.230469 L 387.835938 317.460938 C 387.835938 312.5 391.863281 308.46875 396.824219 308.46875 Z M 0 391.863281 L 0 461.308594 C 0 481.152344 14.882813 496.03125 34.722656 496.03125 L 461.308594 496.03125 C 481.152344 496.03125 496.03125 481.152344 496.03125 461.308594 L 496.03125 391.863281 Z M 248.015625 416.667969 C 258.945313 416.667969 267.855469 425.578125 267.855469 436.507813 C 267.855469 447.4375 258.945313 456.347656 248.015625 456.347656 C 237.085938 456.347656 228.175781 447.4375 228.175781 436.507813 C 228.175781 425.578125 237.085938 416.667969 248.015625 416.667969 Z "/>
</g>
</svg>
