<?xml version="1.0" encoding="UTF-8"?>
<svg xmlns="http://www.w3.org/2000/svg" xmlns:xlink="http://www.w3.org/1999/xlink" width="500pt" height="500pt" viewBox="0 0 500 500" version="1.1">
<g id="surface1">
<path style=" stroke:none;fill-rule:nonzero;fill:#000000;fill-opacity:1;" d="M 99.207031 19.839844 C 55.492188 19.839844 19.839844 55.492188 19.839844 99.207031 C 19.839844 142.917969 55.492188 178.570313 99.207031 178.570313 C 142.917969 178.570313 178.570313 142.917969 178.570313 99.207031 C 178.570313 55.492188 142.917969 19.839844 99.207031 19.839844 Z M 99.207031 39.683594 C 132.183594 39.683594 158.730469 66.226563 158.730469 99.207031 C 158.730469 132.183594 132.183594 158.730469 99.207031 158.730469 C 66.226563 158.730469 39.683594 132.183594 39.683594 99.207031 C 39.683594 66.226563 66.226563 39.683594 99.207031 39.683594 Z M 355.28125 69.445313 C 350.554688 70.335938 347.144531 74.519531 347.222656 79.363281 L 347.222656 148.808594 L 337.300781 148.808594 C 336.992188 148.808594 336.679688 148.808594 336.371094 148.808594 C 330.90625 149.082031 326.644531 153.730469 326.914063 159.195313 C 327.1875 164.660156 331.835938 168.921875 337.300781 168.652344 L 476.191406 168.652344 C 479.753906 168.691406 483.089844 166.828125 484.910156 163.730469 C 486.691406 160.628906 486.691406 156.832031 484.910156 153.730469 C 483.089844 150.632813 479.753906 148.769531 476.191406 148.808594 L 466.269531 148.808594 L 466.269531 119.046875 C 466.269531 113.582031 461.8125 109.128906 456.347656 109.128906 L 436.507813 109.128906 L 436.507813 79.363281 C 436.507813 73.902344 432.050781 69.445313 426.585938 69.445313 L 357.144531 69.445313 C 356.832031 69.445313 356.523438 69.445313 356.210938 69.445313 C 355.902344 69.445313 355.59375 69.445313 355.28125 69.445313 Z M 367.0625 89.285156 L 416.667969 89.285156 L 416.667969 115.949219 C 416.085938 117.886719 416.085938 119.898438 416.667969 121.835938 L 416.667969 148.808594 L 367.0625 148.808594 Z M 436.507813 128.96875 L 446.429688 128.96875 L 446.429688 148.808594 L 436.507813 148.808594 Z M 305.679688 178.570313 C 300.214844 179.074219 296.183594 183.957031 296.6875 189.421875 C 297.191406 194.886719 302.074219 198.917969 307.539063 198.414063 L 456.347656 198.414063 C 459.914063 198.453125 463.246094 196.589844 465.070313 193.492188 C 466.851563 190.390625 466.851563 186.59375 465.070313 183.492188 C 463.246094 180.394531 459.914063 178.53125 456.347656 178.570313 L 307.539063 178.570313 C 307.230469 178.570313 306.917969 178.570313 306.609375 178.570313 C 306.300781 178.570313 305.988281 178.570313 305.679688 178.570313 Z M 49.601563 198.414063 C 41.464844 198.414063 21.855469 200.351563 8.371094 202.441406 C 4.648438 202.714844 1.394531 205.078125 -0.0390625 208.527344 C -1.472656 211.976563 -0.851563 215.96875 1.589844 218.796875 C 4.03125 221.625 7.828125 222.867188 11.472656 221.972656 C 21.351563 220.460938 34.257813 219.417969 42.164063 218.875 L 89.597656 418.835938 C 90.71875 423.214844 94.671875 426.277344 99.207031 426.277344 C 103.742188 426.277344 107.691406 423.214844 108.816406 418.835938 L 156.558594 218.5625 C 162.023438 218.71875 167.875 218.835938 177.332031 219.804688 C 183.839844 220.460938 190.585938 221.394531 195.621094 222.59375 C 200.464844 223.71875 203.488281 225.925781 203.0625 225.382813 C 203.0625 225.34375 203.410156 225.421875 203.371094 225.382813 L 264.757813 316.21875 C 266.421875 318.585938 268.980469 320.09375 271.847656 320.367188 C 274.714844 320.675781 277.546875 319.707031 279.636719 317.769531 L 341.332031 257.9375 L 414.804688 257.9375 C 412.402344 258.75 410.855469 259.640625 408.296875 260.417969 C 399.34375 263.089844 390.042969 265.492188 381.632813 268.167969 C 373.226563 270.839844 365.941406 272.703125 359.933594 278.707031 C 359.816406 278.902344 359.699219 279.132813 359.621094 279.328125 C 359.621094 279.328125 342.339844 299.207031 324.589844 319.941406 C 315.714844 330.289063 306.917969 340.632813 299.789063 349.082031 C 292.660156 357.53125 287.851563 362.878906 285.527344 366.132813 L 285.839844 366.132813 C 281.574219 371.828125 278.667969 374.660156 277.15625 375.742188 C 275.644531 376.828125 275.53125 376.984375 272.816406 376.984375 C 271.730469 376.984375 270.492188 376.710938 268.167969 374.8125 C 265.84375 372.914063 262.972656 369.503906 259.488281 365.511719 L 215.773438 315.910156 C 213.0625 312.808594 208.722656 311.726563 204.84375 313.199219 C 201.007813 314.632813 198.453125 318.3125 198.414063 322.421875 L 198.414063 456.347656 L 9.921875 456.347656 C 6.355469 456.308594 3.023438 458.171875 1.203125 461.269531 C -0.582031 464.371094 -0.582031 468.167969 1.203125 471.269531 C 3.023438 474.367188 6.355469 476.230469 9.921875 476.191406 L 208.332031 476.191406 C 213.796875 476.191406 218.253906 471.734375 218.253906 466.269531 L 218.253906 348.773438 L 244.605469 378.535156 C 248.054688 382.488281 251.425781 386.441406 255.765625 390.003906 C 260.105469 393.570313 265.957031 396.824219 272.816406 396.824219 C 278.011719 396.824219 283.9375 395.238281 288.628906 391.863281 C 293.316406 388.492188 297 384.113281 301.648438 377.914063 C 301.804688 377.683594 307.578125 370.472656 314.671875 362.101563 C 321.761719 353.734375 330.90625 343 339.78125 332.652344 C 357.335938 312.113281 373.921875 292.96875 374.195313 292.660156 C 374.195313 292.660156 374.503906 292.347656 374.503906 292.347656 C 374.773438 292.195313 380.125 289.441406 387.523438 287.078125 C 395.121094 284.675781 404.769531 282.117188 414.1875 279.328125 C 423.601563 276.539063 432.789063 273.632813 440.539063 269.40625 C 444.414063 267.316406 447.746094 264.71875 450.769531 261.347656 C 451.660156 260.339844 452.472656 259.136719 453.25 257.9375 L 456.347656 257.9375 C 478.28125 257.9375 496.03125 240.1875 496.03125 218.253906 C 496.03125 212.789063 491.574219 208.332031 486.109375 208.332031 L 287.699219 208.332031 C 287.386719 208.332031 287.078125 208.332031 286.769531 208.332031 C 281.652344 208.796875 277.738281 213.101563 277.777344 218.253906 C 277.777344 238.792969 293.433594 255.261719 313.429688 257.316406 L 274.367188 295.449219 L 218.5625 212.671875 C 218.214844 212.132813 217.789063 211.589844 217.324219 211.125 C 212.09375 205.890625 206.394531 204.882813 199.960938 203.371094 C 193.53125 201.863281 186.515625 200.660156 179.5 199.960938 C 165.472656 198.527344 152.335938 198.414063 148.808594 198.414063 C 144.199219 198.453125 140.207031 201.667969 139.199219 206.164063 L 99.207031 374.195313 L 59.214844 206.164063 C 58.207031 201.667969 54.214844 198.453125 49.601563 198.414063 Z M 301.648438 228.175781 L 472.160156 228.175781 C 468.828125 233.792969 464.023438 238.09375 456.347656 238.09375 L 317.460938 238.09375 C 309.789063 238.09375 304.980469 233.792969 301.648438 228.175781 Z "/>
</g>
</svg>
