<?xml version="1.0" encoding="UTF-8"?>
<svg xmlns="http://www.w3.org/2000/svg" xmlns:xlink="http://www.w3.org/1999/xlink" width="500pt" height="500pt" viewBox="0 0 500 500" version="1.1">
<g id="surface1">
<path style=" stroke:none;fill-rule:nonzero;fill:#000000;fill-opacity:1;" d="M 84.324219 69.445313 C 65.183594 69.445313 49.601563 85.023438 49.601563 104.167969 C 49.601563 123.308594 65.183594 138.890625 84.324219 138.890625 C 103.46875 138.890625 119.046875 123.308594 119.046875 104.167969 C 119.046875 85.023438 103.46875 69.445313 84.324219 69.445313 Z M 411.707031 69.445313 C 392.5625 69.445313 376.984375 85.023438 376.984375 104.167969 C 376.984375 123.308594 392.5625 138.890625 411.707031 138.890625 C 430.851563 138.890625 446.429688 123.308594 446.429688 104.167969 C 446.429688 85.023438 430.851563 69.445313 411.707031 69.445313 Z M 84.324219 148.808594 C 65.183594 148.808594 49.601563 164.386719 49.601563 183.53125 L 49.757813 285.605469 C 51.230469 303.46875 66.382813 317.460938 84.324219 317.460938 L 113.777344 317.460938 L 121.21875 267.855469 L 119.046875 267.855469 L 119.007813 182.988281 C 116.761719 162.875 102.539063 148.808594 84.324219 148.808594 Z M 411.707031 148.808594 C 393.492188 148.808594 379.269531 162.875 377.023438 182.988281 L 376.984375 267.855469 L 374.8125 267.855469 L 382.253906 317.460938 L 411.707031 317.460938 C 429.648438 317.460938 444.800781 303.46875 446.273438 285.605469 L 446.429688 183.53125 C 446.429688 164.386719 430.851563 148.808594 411.707031 148.808594 Z M 29.605469 158.574219 C 24.144531 158.691406 19.765625 163.1875 19.839844 168.652344 L 19.839844 309.902344 C 19.839844 310.097656 19.839844 310.292969 19.839844 310.484375 C 20.65625 323.855469 28.25 335.285156 39.140625 341.71875 L 29.839844 425.503906 C 29.21875 430.925781 33.132813 435.847656 38.597656 436.429688 C 44.023438 437.050781 48.945313 433.136719 49.527344 427.671875 L 58.515625 347.183594 C 58.59375 347.183594 58.710938 347.222656 58.828125 347.222656 L 129.355469 347.222656 L 119.164063 415.195313 C 118.855469 417.441406 119.28125 419.726563 120.402344 421.664063 C 122.417969 425.152344 131.566406 436.507813 163.882813 436.507813 C 182.097656 436.507813 192.445313 432.476563 198.414063 428.875 L 198.414063 357.144531 C 198.414063 351.679688 202.832031 347.222656 208.332031 347.222656 C 213.835938 347.222656 218.253906 351.679688 218.253906 357.144531 L 218.253906 429.570313 C 224.105469 433.097656 233.445313 436.507813 248.015625 436.507813 C 262.585938 436.507813 271.925781 433.097656 277.777344 429.570313 L 277.777344 376.984375 C 277.777344 371.519531 282.195313 367.0625 287.699219 367.0625 C 293.203125 367.0625 297.617188 371.519531 297.617188 376.984375 L 297.617188 428.484375 C 304.207031 432.128906 315.714844 436.507813 333 436.507813 C 361.09375 436.507813 372.992188 424.84375 374.234375 423.488281 C 376.363281 421.277344 377.332031 418.214844 376.867188 415.195313 L 366.675781 347.222656 L 437.207031 347.222656 C 437.320313 347.222656 437.4375 347.183594 437.554688 347.183594 L 446.46875 427.671875 C 447.085938 433.136719 452.007813 437.050781 457.472656 436.46875 C 462.898438 435.847656 466.8125 430.925781 466.230469 425.503906 L 456.929688 341.71875 C 467.78125 335.285156 475.375 323.855469 476.191406 310.484375 C 476.191406 310.292969 476.191406 310.097656 476.191406 309.902344 L 476.191406 168.652344 C 476.230469 165.976563 475.183594 163.378906 473.285156 161.480469 C 471.386719 159.582031 468.789063 158.535156 466.113281 158.574219 C 460.652344 158.691406 456.273438 163.1875 456.347656 168.652344 L 456.347656 309.359375 C 455.730469 319.589844 447.4375 327.382813 437.207031 327.382813 L 363.691406 327.382813 L 347.105469 216.78125 C 346.371094 211.9375 342.222656 208.332031 337.300781 208.332031 L 158.730469 208.332031 C 153.808594 208.332031 149.660156 211.9375 148.925781 216.78125 L 132.339844 327.382813 L 58.828125 327.382813 C 48.59375 327.382813 40.300781 319.589844 39.683594 309.359375 L 39.683594 168.652344 C 39.722656 165.976563 38.675781 163.378906 36.777344 161.480469 C 34.878906 159.582031 32.28125 158.535156 29.605469 158.574219 Z "/>
</g>
</svg>
