<?xml version="1.0" standalone="no"?>
<!DOCTYPE svg PUBLIC "-//W3C//DTD SVG 1.1//EN" "http://www.w3.org/Graphics/SVG/1.1/DTD/svg11.dtd" >
<svg xmlns="http://www.w3.org/2000/svg">
<metadata>Generated by IcoMoon</metadata>
<defs>
<font id="restaurant" horiz-adv-x="1024">
<font-face units-per-em="1024" ascent="960" descent="-64" />
<missing-glyph horiz-adv-x="1024" />
<glyph unicode="&#x20;" horiz-adv-x="512" d="" />
<glyph unicode="&#xe900;" glyph-name="delivery-o" d="M101.584 878.728c-11.184 0-20.312-8.176-20.312-19.36v-813.656c0-11.192 9.128-20.312 20.312-20.312h264.128v40.632h-243.808v773.016h772.064v-468.256h40.632v488.576c0 11.184-9.12 19.36-20.312 19.36zM406.352 777.144c-33.416 0-60.952-27.544-60.952-60.952 0-5.4 2.136-10.56 6.032-14.368 7.136-25.712 27.064-46.584 54.92-46.584h203.168c27.864 0 47.784 20.872 54.928 46.584 3.888 3.808 6.032 8.968 6.032 14.368 0 33.408-27.544 60.952-60.96 60.952zM406.352 736.504h203.168c11.512 0 20.32-8.808 20.32-20.312 0-11.512-8.808-20.32-20.32-20.32h-203.168c-11.512 0-20.32 8.808-20.32 20.32 0 11.504 8.808 20.312 20.32 20.312zM406.352 330.16v-386.032h609.52v386.032zM446.984 289.52h39.128c-3.728-7.296-6.592-14.2-8.728-19.52-2.624-6.192-5.4-10.24-4.368-9.128 1.112 1.112-2.464-1.584-8.016-3.968-4.84-1.984-11.352-4.6-18.016-7.456zM548.568 289.52h325.080c15.56 0 19.048-5.312 25.16-16.184 3.016-5.48 5.712-12.064 8.496-18.968 2.856-6.832 5.16-13.968 12.536-21.672h0.080c7.304-7.616 14.6-10.312 21.584-13.248 6.992-2.864 13.896-5.48 19.688-8.096 5.712-2.704 9.92-5.56 11.904-7.624 1.904-2.064 2.144-2.224 2.144-4.92v-123.328c0-2.704-0.24-2.864-2.144-4.928-1.984-2.056-6.192-4.92-11.904-7.616-5.792-2.616-12.696-5.16-19.688-8.096-6.984-3.016-14.28-5.632-21.584-13.256h-0.080c-7.376-7.696-9.68-14.84-12.536-21.664-2.784-6.904-5.48-13.488-8.496-18.968-6.112-10.872-9.6-16.192-25.16-16.192h-325.080c-15.552 0-19.048 5.32-25.152 16.192-3.016 5.48-5.72 12.064-8.576 18.968-2.856 6.824-5.080 13.968-12.536 21.664-7.304 7.624-14.608 10.24-21.592 13.256-6.984 2.936-13.888 5.48-19.68 8.096-5.712 2.696-9.92 5.56-11.904 7.616-1.984 2.064-2.144 2.224-2.144 4.928v123.328c0 1.352 0.080 2.064 0.32 2.696 0.312 0.64 0.872 1.192 1.824 2.224 1.984 2.064 6.192 4.92 11.904 7.624 5.792 2.616 12.696 5.232 19.68 8.096 6.984 2.936 14.288 5.632 21.592 13.248 7.456 7.704 9.68 14.84 12.536 21.672 2.856 6.904 5.56 13.488 8.576 18.968 6.104 10.872 9.6 16.184 25.152 16.184zM936.112 289.52h39.128v-40.072c-6.672 2.856-13.256 5.472-18.016 7.456-5.64 2.384-9.048 5-8.016 3.968l-0.080 0.080c1.032-1.112-1.664 2.856-4.288 9.048-2.144 5.32-5 12.224-8.728 19.52zM711.112 248.888c-57.224 0-101.592-51.504-101.592-111.744s44.368-111.744 101.592-111.744c57.224 0 101.584 51.504 101.584 111.744s-44.36 111.744-101.584 111.744zM711.112 208.256c32.536 0 60.952-30.4 60.952-71.112s-28.416-71.112-60.952-71.112c-32.544 0-60.952 30.4-60.952 71.112s28.408 71.112 60.952 71.112zM538.416 167.616c-16.832 0-30.48-13.648-30.48-30.472s13.648-30.48 30.48-30.48c16.824 0 30.472 13.656 30.472 30.48s-13.648 30.472-30.472 30.472zM883.808 167.616c-16.824 0-30.472-13.648-30.472-30.472s13.648-30.48 30.472-30.48c16.824 0 30.48 13.656 30.48 30.48s-13.656 30.472-30.48 30.472zM446.984 24.84c6.664-2.856 13.176-5.472 18.016-7.456 5.552-2.384 9.128-5.080 8.016-4.048-1.032 1.184 1.744-2.856 4.368-9.048 2.136-5.32 5-12.224 8.728-19.528h-39.128zM975.24 24.84v-40.080h-39.128c3.728 7.304 6.584 14.208 8.728 19.528 2.624 6.192 5.4 10.232 4.368 9.048-1.032-1.032 2.376 1.664 8.016 4.048 4.76 1.984 11.344 4.6 18.016 7.456z" />
<glyph unicode="&#xe901;" glyph-name="delivery" d="M101.584 878.728c-11.184 0-20.312-8.176-20.312-19.36v-813.656c0-11.192 9.128-20.312 20.312-20.312h304.768v-81.272h609.52v386.032h-81.272v529.208c0 11.184-9.12 19.36-20.312 19.36zM406.352 756.824h203.168c22.464 0 40.64-18.176 40.64-40.632 0-22.464-18.176-40.64-40.64-40.64h-203.168c-22.464 0-40.64 18.176-40.64 40.64 0 22.456 18.176 40.632 40.64 40.632zM446.984 289.52h39.128c-3.728-7.296-6.592-14.2-8.728-19.52-2.624-6.192-5.4-10.24-4.368-9.128 1.112 1.112-2.464-1.584-8.016-3.968-4.84-1.984-11.352-4.6-18.016-7.456zM548.568 289.52h325.080c15.56 0 19.048-5.312 25.16-16.184 3.016-5.48 5.712-12.064 8.496-18.968 2.856-6.832 5.16-13.968 12.536-21.672h0.080c7.304-7.616 14.6-10.312 21.584-13.248 6.992-2.864 13.896-5.48 19.688-8.096 5.712-2.704 9.92-5.56 11.904-7.624 1.904-2.064 2.144-2.224 2.144-4.92v-123.328c0-2.704-0.24-2.864-2.144-4.928-1.984-2.056-6.192-4.92-11.904-7.616-5.792-2.616-12.696-5.16-19.688-8.096-6.984-3.016-14.28-5.632-21.584-13.256h-0.080c-7.376-7.696-9.68-14.84-12.536-21.664-2.784-6.904-5.48-13.488-8.496-18.968-6.112-10.872-9.6-16.192-25.16-16.192h-325.080c-15.552 0-19.048 5.32-25.152 16.192-3.016 5.48-5.72 12.064-8.576 18.968-2.856 6.824-5.080 13.968-12.536 21.664-7.304 7.624-14.608 10.24-21.592 13.256-6.984 2.936-13.888 5.48-19.68 8.096-5.712 2.696-9.92 5.56-11.904 7.616-1.984 2.064-2.144 2.224-2.144 4.928v123.328c0 1.352 0.080 2.064 0.32 2.696 0.312 0.64 0.872 1.192 1.824 2.224 1.984 2.064 6.192 4.92 11.904 7.624 5.792 2.616 12.696 5.232 19.68 8.096 6.984 2.936 14.288 5.632 21.592 13.248 7.456 7.704 9.68 14.84 12.536 21.672 2.856 6.904 5.56 13.488 8.576 18.968 6.104 10.872 9.6 16.184 25.152 16.184zM936.112 289.52h39.128v-40.072c-6.672 2.856-13.256 5.472-18.016 7.456-5.64 2.384-9.048 5-8.016 3.968l-0.080 0.080c1.032-1.112-1.664 2.856-4.288 9.048-2.144 5.32-5 12.224-8.728 19.52zM711.112 248.888c-57.224 0-101.592-51.504-101.592-111.744s44.368-111.744 101.592-111.744c57.224 0 101.584 51.504 101.584 111.744s-44.36 111.744-101.584 111.744zM711.112 208.256c32.536 0 60.952-30.4 60.952-71.112s-28.416-71.112-60.952-71.112c-32.544 0-60.952 30.4-60.952 71.112s28.408 71.112 60.952 71.112zM538.416 167.616c-16.832 0-30.48-13.648-30.48-30.472s13.648-30.48 30.48-30.48c16.824 0 30.472 13.656 30.472 30.48s-13.648 30.472-30.472 30.472zM883.808 167.616c-16.824 0-30.472-13.648-30.472-30.472s13.648-30.48 30.472-30.48c16.824 0 30.48 13.656 30.48 30.48s-13.656 30.472-30.48 30.472zM446.984 24.84c6.664-2.856 13.176-5.472 18.016-7.456 5.552-2.384 9.128-5.080 8.016-4.048-1.032 1.184 1.744-2.856 4.368-9.048 2.136-5.32 5-12.224 8.728-19.528h-39.128zM975.24 24.84v-40.080h-39.128c3.728 7.304 6.584 14.208 8.728 19.528 2.624 6.192 5.4 10.232 4.368 9.048-1.032-1.032 2.376 1.664 8.016 4.048 4.76 1.984 11.344 4.6 18.016 7.456z" />
<glyph unicode="&#xe902;" glyph-name="pos" d="M568.888 960c-12.224 0-20.32-8.096-20.32-20.32v-162.536c0-12.224 8.096-20.32 20.32-20.32h60.952v-20.32h-142.224v101.592c0 11.192-9.12 20.32-20.312 20.32h-264.128c-0.64 0-1.272 0-1.904 0-10.48-0.952-18.496-9.768-18.416-20.32v-101.592h-36.824c-22.384 0-58.888-8.248-71.112-69.2l-74.92-489.528h1015.872l-74.92 491.432c-10.16 58.888-48.728 67.296-71.112 67.296h-77.456v20.32h60.952c12.216 0 20.312 8.096 20.312 20.32v162.536c0 12.224-8.096 20.32-20.312 20.32zM223.496 817.776h223.488v-325.080h-223.488zM264.128 756.824v-40.632h142.224v40.632zM264.128 675.552v-40.632h142.224v40.632zM591.112 655.24h227.936c22.384 0 44.448-18.256 44.448-40.64l10.152-73.016c2.064-12.216-0.232-24.28-6.344-32.376-8.096-10.16-18.176-16.512-32.384-16.512h-241.904c-24.368 0-44.448 20.080-44.448 44.448v75.552c0 24.368 18.176 42.544 42.544 42.544zM264.128 594.288v-40.64h142.224v40.64zM568.888 450.16h42.544c10.152 0 18.408-8.256 18.408-18.416v-42.536c0-10.16-8.256-18.416-18.408-18.416h-42.544c-10.16 0-18.408 8.256-18.408 18.416v42.536c0 10.16 8.248 18.416 18.408 18.416zM690.792 450.16h42.544c10.16 0 18.408-8.256 18.408-18.416v-42.536c0-10.16-8.248-18.416-18.408-18.416h-42.544c-10.16 0-18.408 8.256-18.408 18.416v42.536c0 10.16 8.248 18.416 18.408 18.416zM812.696 450.16h42.544c10.16 0 18.408-8.256 18.408-18.416v-42.536c0-10.16-8.248-18.416-18.408-18.416h-42.544c-10.16 0-18.408 8.256-18.408 18.416v42.536c0 10.16 8.248 18.416 18.408 18.416zM568.888 328.256h42.544c10.152 0 18.408-8.256 18.408-18.416v-42.536c0-10.16-8.256-18.416-18.408-18.416h-42.544c-10.16 0-18.408 8.256-18.408 18.416v42.536c0 10.16 8.248 18.416 18.408 18.416zM690.792 328.256h42.544c10.16 0 18.408-8.256 18.408-18.416v-42.536c0-10.16-8.248-18.416-18.408-18.416h-42.544c-10.16 0-18.408 8.256-18.408 18.416v42.536c0 10.16 8.248 18.416 18.408 18.416zM812.696 328.256h42.544c10.16 0 18.408-8.256 18.408-18.416v-42.536c0-10.16-8.248-18.416-18.408-18.416h-42.544c-10.16 0-18.408 8.256-18.408 18.416v42.536c0 10.16 8.248 18.416 18.408 18.416zM0 157.464v-142.224c0-40.64 30.48-71.112 71.112-71.112h873.648c40.64 0 71.112 30.472 71.112 71.112v142.224zM507.936 106.664c22.384 0 40.632-18.248 40.632-40.632s-18.248-40.632-40.632-40.632c-22.384 0-40.632 18.248-40.632 40.632s18.248 40.632 40.632 40.632z" />
<glyph unicode="&#xe903;" glyph-name="pos-o" d="M565.080 960c-9.68-1.824-16.664-10.4-16.512-20.32v-162.536c0-11.192 9.128-20.32 20.32-20.32h60.952v-20.32h-142.224v101.592c0 11.192-9.12 20.32-20.312 20.32h-264.128c-0.64 0-1.272 0-1.904 0-0.64 0-1.272 0-1.904 0-9.688-1.832-16.672-10.4-16.512-20.32v-101.592h-36.824c-18.568 0-36.112-7.136-48.256-19.68-12.144-12.536-18.728-28.808-22.224-47.616 0-0.24 0-0.4 0-0.64l-75.552-497.776c0-0.392 0-0.872 0-1.272 0-0.232 0-0.392 0-0.632 0-0.392 0-0.872 0-1.272-0.080-1.032-0.080-2.136 0-3.168v-149.208c0-39.048 32.064-71.112 71.112-71.112h875.552c39.048 0 71.112 32.064 71.112 71.112v152.376c-0.16 3.576-1.272 7.144-3.176 10.16l-74.28 490.792c0 0.24 0 0.4 0 0.64-3.496 18.808-10.080 35.080-22.224 47.616-12.144 12.544-29.68 19.68-48.256 19.68h-77.456v20.32h60.952c11.184 0 20.312 9.128 20.312 20.32v162.536c0 11.192-9.128 20.32-20.312 20.32h-284.448c-0.632 0-1.272 0-1.904 0s-1.272 0-1.904 0zM589.208 919.368h243.808v-121.904h-56.512c-2.056 0.552-4.2 0.792-6.344 0.632-0.64-0.16-1.272-0.4-1.904-0.632h-113.656c-2.064 0.552-4.2 0.792-6.344 0.632-0.64-0.16-1.272-0.4-1.904-0.632h-57.144zM223.496 817.776h223.488v-98.408c0-0.64 0-1.272 0-1.904v-224.768h-223.488v223.496c0 0.632 0 1.272 0 1.904zM264.128 756.824v-40.632h142.224v40.632zM670.48 756.824h81.264v-20.32h-81.264zM146.032 695.872h36.824v-223.488c0-11.192 9.128-20.32 20.32-20.32h264.128c1.904-0.080 3.888 0.16 5.712 0.632 1.352 0.48 2.616 1.112 3.808 1.904 6.592 3.496 10.712 10.32 10.792 17.784v223.488h382.224c9.84 0 14.448-2.224 19.048-6.984 4.528-4.6 8.808-13.408 11.432-26.664v-0.64l71.112-473.648h-926.984l71.104 473.648v0.64c2.624 13.256 6.912 22.064 11.432 26.664 4.6 4.76 9.208 6.984 19.048 6.984zM264.128 675.552v-40.632h142.224v40.632zM591.112 655.24c-23.496 0-42.544-19.048-42.544-42.544v-75.552c0-25.792 20.952-44.448 44.448-44.448h241.904c11.744 0 23.416 4.608 31.112 13.968 7.144 8.736 8.888 21.752 6.352 33.656h1.264l-0.632 2.536-9.52 69.84v2.544h-1.272c-1.672 23.968-20.72 40-43.176 40zM591.112 614.6h227.936c0.872 0 3.808-3.248 3.808-1.904-0.080-0.872-0.080-1.664 0-2.536l10.16-75.56c0.16-0.392 0.4-0.872 0.632-1.264h-240.632c-0.872 0-3.808 1.184-3.808 3.808v75.552c0 0.872 1.032 1.904 1.904 1.904zM264.128 594.288v-40.64h142.224v40.64zM568.888 450.16c-10.16 0-18.408-8.256-18.408-18.416v-42.536c0-10.16 8.248-18.416 18.408-18.416h42.544c10.152 0 18.408 8.256 18.408 18.416v42.536c0 10.16-8.256 18.416-18.408 18.416zM690.792 450.16c-10.16 0-18.408-8.256-18.408-18.416v-42.536c0-10.16 8.248-18.416 18.408-18.416h42.544c10.16 0 18.408 8.256 18.408 18.416v42.536c0 10.16-8.248 18.416-18.408 18.416zM812.696 450.16c-10.16 0-18.408-8.256-18.408-18.416v-42.536c0-10.16 8.248-18.416 18.408-18.416h42.544c10.16 0 18.408 8.256 18.408 18.416v42.536c0 10.16-8.248 18.416-18.408 18.416zM568.888 328.256c-10.16 0-18.408-8.256-18.408-18.416v-42.536c0-10.16 8.248-18.416 18.408-18.416h42.544c10.152 0 18.408 8.256 18.408 18.416v42.536c0 10.16-8.256 18.416-18.408 18.416zM690.792 328.256c-10.16 0-18.408-8.256-18.408-18.416v-42.536c0-10.16 8.248-18.416 18.408-18.416h42.544c10.16 0 18.408 8.256 18.408 18.416v42.536c0 10.16-8.248 18.416-18.408 18.416zM812.696 328.256c-10.16 0-18.408-8.256-18.408-18.416v-42.536c0-10.16 8.248-18.416 18.408-18.416h42.544c10.16 0 18.408 8.256 18.408 18.416v42.536c0 10.16-8.248 18.416-18.408 18.416zM40.632 147.304h936.512v-132.064c0-17.776-12.696-30.48-30.48-30.48h-875.552c-17.776 0-30.48 12.704-30.48 30.48zM507.936 106.664c-22.456 0-40.632-18.168-40.632-40.632s18.176-40.632 40.632-40.632c22.464 0 40.632 18.168 40.632 40.632s-18.168 40.632-40.632 40.632z" />
<glyph unicode="&#xe904;" glyph-name="driver-o" d="M507.936 960c-102.144 0-182.856-92.464-182.856-203.176s80.712-203.176 182.856-203.176c102.144 0 182.856 92.464 182.856 203.176s-80.712 203.176-182.856 203.176zM507.936 919.368c77.384 0 142.224-71.352 142.224-162.544s-64.84-162.536-142.224-162.536c-77.384 0-142.224 71.344-142.224 162.536s64.84 162.544 142.224 162.544zM507.936 532.064c-118.728 0-193.096-17.224-258.416-42.544-21.264-8.248-36.264-24.68-49.52-43.168-13.256-18.496-25.32-39.92-39.368-61.592-42.776-65.872-119.28-179.68-143.488-226.664-17.936-34.76-20.64-69.048-3.808-101.592 15.952-30.872 36.824-68.328 55.872-101.584l5.080-9.52h147.936v19.048c0 134.048 126.272 245.072 285.712 245.072 159.448 0 285.712-111.024 285.712-245.072v-19.048h147.304l5.712 9.52c19.048 33.256 39.92 70.712 55.872 101.584 16.832 32.544 14.128 66.832-3.808 101.592-12.296 23.808-38.968 64.52-67.296 107.936-28.336 43.416-57.936 88.488-75.56 118.096-26.744 45-46.584 90.632-89.52 106.032-66.432 23.888-139.528 41.904-258.416 41.904zM507.936 493.968c115.080 0 181.032-16.352 245.080-39.368 21.432-7.696 43.016-43.328 70.48-89.52 18.488-31.112 47.936-76.664 76.184-120 28.256-43.336 55.32-85.24 65.4-104.76 14.92-28.888 15.952-43.256 3.808-66.672-14.048-27.144-32.776-59.68-50.16-90.152h-89.52c-11.512 148.328-151.512 264.12-321.272 264.12s-309.76-115.792-321.272-264.12h-90.16c-17.376 30.472-35.472 63.008-49.52 90.152-12.144 23.416-11.112 37.784 3.808 66.672 20.48 39.68 98.496 157.776 141.592 224.128 14.84 22.856 27.296 44.36 38.728 60.312 11.424 15.952 21.744 25.72 32.384 29.84 61.664 23.896 129.2 39.368 244.44 39.368zM507.936 167.616c-132.224 0-243.808-88.568-243.808-202.536-0.080-7.304 3.728-14.128 10.080-17.856 6.344-3.656 14.128-3.656 20.472 0 6.352 3.728 10.16 10.552 10.080 17.856 0 86.904 88.968 161.904 203.176 161.904s203.176-75 203.176-161.904c-0.080-7.304 3.728-14.128 10.080-17.856 6.344-3.656 14.128-3.656 20.472 0 6.352 3.728 10.16 10.552 10.080 17.856 0 113.968-111.584 202.536-243.808 202.536z" />
<glyph unicode="&#xe905;" glyph-name="driver" d="M507.936 960c-100.792 0-182.856-91.112-182.856-203.176s82.064-203.176 182.856-203.176c100.872 0 182.856 91.112 182.856 203.176s-81.984 203.176-182.856 203.176zM507.936 532.064c-105 0-182.224-12.936-258.416-42.544-31.504-12.216-50.792-43.328-73.016-79.36-5.072-8.176-10.232-16.664-15.872-25.4-8.488-13.016-18.096-27.856-28.568-43.808-43.096-65.712-96.512-147.224-114.92-182.856-19.68-38.176-20.792-68.808-3.808-101.592 13.488-26.184 32.296-60.392 55.872-101.584l6.344-10.792h127.624v20.32c0 145.872 136.424 264.12 304.76 264.12s304.76-118.248 304.76-264.12v-20.32h127.624l6.344 10.792c23.416 40.872 42.144 75.080 55.872 101.584 16.984 32.784 15.88 63.416-3.808 101.592-13.096 25.32-44.6 73.176-78.096 124.44-24.2 37.144-49.28 75.56-64.76 101.592l-8.888 14.6c-24.68 42.064-45.48 78.808-80.632 91.432-70.16 25.24-141.272 41.904-258.416 41.904zM507.936 147.304c-123.256 0-223.488-82.464-223.488-182.856v-20.32h446.984v20.32c0 100.392-100.32 182.856-223.496 182.856z" />
<glyph unicode="&#xe906;" glyph-name="hall-o" d="M81.272 878.728v-853.328h853.328v853.328h-304.76v-40.632h264.128v-406.352h-142.224v-40.632h142.224v-325.080h-406.352v325.080h142.224v40.632h-325.080v-40.632h142.224v-325.080h-325.080v772.064h257.384l157.144-117.856 24.28 32.536-167.936 125.952z" />
<glyph unicode="&#xe907;" glyph-name="hall" d="M893.968 878.728h-772.064c-22.456 0-40.632-18.176-40.632-40.632v-772.064c0-22.464 18.176-40.632 40.632-40.632h772.064c22.464 0 40.632 18.168 40.632 40.632v772.064c0 22.456-18.168 40.632-40.632 40.632zM893.968 66.032h-772.064v772.064h270.872l168.016-125.952-24.44-32.544-157.064 117.864h-216.752v-690.8h284.448v284.448h-142.224v40.632h325.080v-40.632h-142.224v-284.448h365.72v284.448h-121.904v40.632h121.904v365.72h-223.496v40.632h264.128z" />
<glyph unicode="&#xe908;" glyph-name="waiter" d="M203.176 919.368c-89.608 0-162.544-72.936-162.544-162.544 0-89.6 72.936-162.536 162.544-162.536 89.6 0 162.536 72.936 162.536 162.536 0 89.608-72.936 162.544-162.536 162.544zM731.432 817.776c-11.272 0-20.32-9.128-20.32-20.312v-142.224h-20.32c-11.272 0-20.312-9.128-20.312-20.32s9.040-20.32 20.312-20.32h284.448c11.264 0 20.312 9.128 20.312 20.32s-9.048 20.32-20.312 20.32h-20.32v60.952c0 11.192-9.128 20.312-20.32 20.312h-40.632v60.96c0 11.184-9.048 20.312-20.32 20.312zM893.968 695.872h20.32v-40.632h-20.32zM626.032 594.288c-11.192-1.032-19.448-11.032-18.416-22.224s11.032-19.448 22.224-18.416h304.76c7.304-0.080 14.128 3.736 17.864 10.080 3.648 6.352 3.648 14.128 0 20.48-3.736 6.344-10.56 10.16-17.864 10.080h-304.76c-0.632 0-1.272 0-1.904 0s-1.272 0-1.904 0zM101.584 553.648c-14.28 0-58.488-4.28-84.44-8.248-9.92-1.512-17.144-10.32-17.144-20.32v-520c0-11.272 9.128-20.32 20.32-20.32h406.344c11.192 0 20.32 9.048 20.32 20.32v240.632l54.6-61.584c15.8-18.016 31.912-36.824 57.144-36.824 25.64 0 38.808 11.664 59.048 38.728 7.064 9.84 93.496 110.632 148.576 174.6 6.032 5.952 37.064 14.528 57.776 20.32 43.968 12.384 89.208 25.16 104.76 50.792h-288.256l-78.728-76.192-114.288 168.896c-0.712 1.032-1.584 2.296-2.536 3.168-25 25-121.272 26.032-140.32 26.032-9.44 0-17.536-6.744-19.68-15.872l-81.904-384.128-81.904 384.128c-2.144 9.128-10.24 15.872-19.688 15.872zM589.208 533.336c-11.272 0-20.32-9.128-20.32-20.32 0-45.552 56.032-60.952 101.592-60.952h243.808c45.552 0 101.584 15.4 101.584 60.952 0 11.192-9.048 20.32-20.32 20.32z" />
<glyph unicode="&#xe909;" glyph-name="waiter-o" d="M203.176 919.368c-89.528 0-162.544-73.016-162.544-162.544 0-89.52 73.016-162.536 162.544-162.536 89.52 0 162.536 73.016 162.536 162.536 0 89.528-73.016 162.544-162.536 162.544zM203.176 878.728c67.536 0 121.904-54.36 121.904-121.904 0-67.536-54.368-121.904-121.904-121.904-67.544 0-121.904 54.368-121.904 121.904 0 67.544 54.36 121.904 121.904 121.904zM727.616 817.776c-9.68-1.824-16.664-10.392-16.504-20.312v-142.224h-20.32c-0.632 0-1.272 0-1.904 0-11.192-0.56-19.92-10.080-19.368-21.272 0.56-11.192 10.080-19.92 21.272-19.368h284.448c7.296-0.080 14.128 3.736 17.856 10.080 3.648 6.352 3.648 14.128 0 20.48-3.728 6.344-10.56 10.16-17.856 10.080h-20.32v60.952c0 11.192-9.128 20.312-20.32 20.312h-40.632v60.96c0 11.184-9.128 20.312-20.32 20.312h-142.216c-0.64 0-1.272 0-1.912 0-0.632 0-1.264 0-1.904 0zM751.744 777.144h101.592v-54.608c-1.192-3.968-1.192-8.088 0-12.056v-55.24h-101.592zM893.968 695.872h20.32v-40.632h-20.32zM626.032 594.288c-11.192-1.032-19.448-11.032-18.416-22.224s11.032-19.448 22.224-18.416h304.76c7.304-0.080 14.128 3.736 17.864 10.080 3.648 6.352 3.648 14.128 0 20.48-3.736 6.344-10.56 10.16-17.864 10.080h-304.76c-0.632 0-1.272 0-1.904 0s-1.272 0-1.904 0zM101.584 553.648c-16.664 0-56.824-3.968-84.44-8.248-7.624-0.56-14.288-5.4-17.224-12.464s-1.664-15.24 3.336-21.032c5-5.792 12.776-8.336 20.24-6.504 20.232 3.096 46.664 5.232 62.856 6.344l97.144-409.52c2.296-8.968 10.392-15.24 19.68-15.24s17.376 6.272 19.68 15.24l97.776 410.16c11.192-0.32 23.176-0.56 42.544-2.544 13.328-1.344 27.144-3.256 37.456-5.712 9.92-2.304 16.112-6.824 15.24-5.712 0 0.080 0.712-0.080 0.632 0l125.72-186.032c3.408-4.848 8.648-7.936 14.52-8.496 5.872-0.632 11.672 1.352 15.952 5.32l126.352 122.536h150.472c-4.92-1.664-8.088-3.488-13.328-5.080-18.336-5.472-37.384-10.392-54.608-15.872-17.216-5.472-32.136-9.288-44.44-21.584-0.24-0.4-0.48-0.872-0.64-1.272 0 0-35.392-40.712-71.744-83.176-18.176-21.192-36.192-42.376-50.792-59.68s-24.448-28.256-29.208-34.92h0.64c-8.736-11.664-14.688-17.464-17.784-19.68-3.096-2.224-3.328-2.544-8.888-2.544-2.224 0-4.76 0.56-9.52 4.448s-10.64 10.872-17.776 19.048l-89.528 101.584c-5.552 6.352-14.44 8.568-22.384 5.552-7.856-2.936-13.088-10.472-13.168-18.888v-274.28h-386.032c-7.304 0.080-14.128-3.736-17.856-10.080-3.656-6.352-3.656-14.128 0-20.48 3.728-6.344 10.552-10.16 17.856-10.080h406.344c11.192 0 20.32 9.128 20.32 20.32v240.632l53.968-60.952c7.064-8.096 13.968-16.192 22.856-23.488 8.888-7.304 20.872-13.968 34.92-13.968 10.64 0 22.776 3.248 32.384 10.16 9.6 6.904 17.144 15.872 26.664 28.568 0.32 0.472 12.144 15.24 26.672 32.384 14.52 17.136 33.248 39.12 51.424 60.312 35.952 42.064 69.92 81.272 70.48 81.904 0 0 0.632 0.64 0.632 0.64 0.552 0.312 11.512 5.952 26.664 10.792 15.56 4.92 35.32 10.16 54.608 15.872 19.28 5.712 38.096 11.664 53.968 20.32 7.936 4.28 14.76 9.6 20.952 16.504 1.824 2.064 3.488 4.528 5.080 6.984h6.344c44.92 0 81.272 36.352 81.272 81.272 0 11.192-9.128 20.32-20.32 20.32h-406.344c-0.64 0-1.272 0-1.904 0-10.48-0.952-18.496-9.768-18.416-20.32 0-42.064 32.064-75.792 73.016-80l-80-78.096-114.288 169.528c-0.712 1.104-1.584 2.216-2.536 3.168-10.712 10.72-22.384 12.784-35.56 15.88-13.168 3.088-27.536 5.552-41.904 6.984-28.728 2.936-55.632 3.168-62.856 3.168-9.44-0.080-17.616-6.664-19.68-15.872l-81.904-344.128-81.904 344.128c-2.064 9.208-10.24 15.792-19.688 15.872zM617.776 492.696h349.208c-6.824-11.504-16.664-20.312-32.384-20.312h-284.44c-15.712 0-25.56 8.808-32.384 20.312z" />
<glyph unicode="&#xe90a;" glyph-name="hall-alt-o" d="M60.952 878.728v-446.984h60.952v-406.344h772.064v406.344h60.952v446.984zM101.584 838.096h812.704v-365.712h-37.224c-2.224 0.392-4.448 0.392-6.584 0h-209.208l-153.336 241.032-153.336-241.032h-209.2c-1.192 0.152-2.304 0.312-3.496 0.312-0.952-0.080-1.984-0.16-2.936-0.312h-37.384zM507.936 637.696l131.112-205.952h214.288v-365.712h-243.816v182.856c0 55.872-45.712 101.592-101.584 101.592s-101.584-45.72-101.584-101.592v-182.856h-243.816v365.712h214.288zM203.176 350.48v-182.864h162.536v182.864zM650.16 350.48v-182.864h162.536v182.864zM243.808 309.84h81.272v-101.584h-81.272zM507.936 309.84c33.888 0 60.952-27.064 60.952-60.952v-182.856h-121.904v182.856c0 33.888 27.064 60.952 60.952 60.952zM690.792 309.84h81.272v-101.584h-81.272z" />
<glyph unicode="&#xe90b;" glyph-name="hall-alt" d="M60.952 878.728v-406.344h293.568l153.416 240.952 153.416-240.952h293.568v406.344zM507.936 637.776l-131.032-206.032h-255v-406.344h304.76v223.488c0 44.92 36.352 81.272 81.272 81.272s81.272-36.352 81.272-81.272v-223.488h304.76v406.344h-255zM223.496 330.16h121.904v-142.224h-121.904zM670.48 330.16h121.904v-142.224h-121.904z" />
<glyph unicode="&#xe90c;" glyph-name="oorder-o" d="M121.904 919.368v-934.608h772.064v934.608zM162.536 878.728h690.8v-853.328h-690.8zM264.128 736.504v-40.632h487.616v40.632zM264.128 452.064v-40.632h81.272v40.632zM406.352 452.064v-40.632h345.392v40.632zM264.128 330.16v-40.64h81.272v40.64zM406.352 330.16v-40.64h345.392v40.64zM264.128 208.256v-40.64h81.272v40.64zM406.352 208.256v-40.64h345.392v40.64z" />
<glyph unicode="&#xe90d;" glyph-name="order" d="M121.904 919.368v-934.608h772.064v934.608zM345.4 167.616h-81.272v40.64h81.272zM345.4 289.52h-81.272v40.64h81.272zM345.4 411.432h-81.272v40.632h81.272zM751.744 167.616h-345.392v40.64h345.392zM751.744 289.52h-345.392v40.64h345.392zM751.744 411.432h-345.392v40.632h345.392zM751.744 695.872h-487.616v40.632h487.616z" />
<glyph unicode="&#xe90e;" glyph-name="reserve" d="M121.904 919.368v-934.608h772.064v390.080l83.256 83.336 6.192 6.032c0 0.080 0 0.080 0 0.16l8.088 8.016c32.544 32.536 32.544 85.312 0 117.856-26.424 26.424-66.104 30.952-97.536 14.44v314.688zM264.128 675.552h81.272v-40.632h-81.272zM406.352 675.552h345.392v-40.632h-345.392zM264.128 553.648h81.272v-40.632h-81.272zM406.352 553.648h345.392v-40.632h-345.392zM887.856 547.536l60.952-60.952-282.224-282.216-60.952 60.952zM264.128 431.744h81.272v-40.632h-81.272zM406.352 431.744h308.808l-40.56-40.632h-268.248zM264.128 309.84h81.272v-40.632h-81.272zM406.352 309.84h186.984l-40.64-40.632h-146.344zM576.984 236.504l60.792-60.792-83.096-22.296z" />
<glyph unicode="&#xe90f;" glyph-name="reserve-o" d="M121.904 919.368v-934.608h772.064v388.576l89.448 88.888c1.824 1.904 3.168 4.048 4.2 6.272l3.888 3.888c32.544 32.536 32.544 85.312 0 117.856-26.424 26.424-66.104 30.952-97.536 14.44v314.688zM162.536 878.728h690.8v-312.856l-134.128-134.128h-312.856v-40.632h272.296l-81.264-81.272h-191.032v-40.632h150.392l-8.176-8.176c-4.048-1.984-6.104-4.048-6.104-8.096l-34.528-121.904c-2.064-8.096-2.064-14.208 4.048-20.32 4.048-4.048 8.176-6.032 14.288-6.032h6.032l121.904 32.464c2.064 2.064 6.112 4.048 8.096 6.112l191.032 189.76v-307.616h-690.8zM264.128 675.552v-40.632h81.272v40.632zM406.352 675.552v-40.632h345.392v40.632zM264.128 553.648v-40.632h81.272v40.632zM406.352 553.648v-40.632h345.392v40.632zM889.84 545.552l60-59.92-312.144-310-59.44 58.096 0.792 3.016zM264.128 431.744v-40.632h81.272v40.632zM264.128 309.84v-40.632h81.272v40.632z" />
<glyph unicode="&#xe910;" glyph-name="restaurant" d="M987.856 569.6l-467.304 365.72c-7.536 5.712-17.696 5.712-25.232 0l-467.304-365.72c-8.728-6.904-10.32-19.68-3.416-28.568 6.904-8.808 19.688-10.4 28.656-3.496l28.016 22.144v-534.36c0-11.192 9.128-20.32 20.312-20.32h812.704c11.192 0 20.312 9.128 20.312 20.32v534.36l28.016-22.144c3.888-2.856 8.176-4.28 12.624-4.28 6.112 0 11.984 2.696 16.032 7.776 6.904 8.888 5.312 21.664-3.416 28.568zM704.84 173.256c-3.888-3.656-8.968-5.72-14.288-5.72-5.232 0-10.552 2.064-14.6 6.352l-110.080 112.936-58.968-59.92c0 0.16-38.808 38.576-41.032 40.792-5.472 5.32-10.792 10.8-16.272 16.112l-110.080-110.16c-4.040-4.048-9.12-6.112-14.44-6.112s-10.4 2.064-14.448 6.112c-7.936 7.936-7.936 20.72 0 28.656l110.16 110.16c-9.36 9.28-18.488 18.408-27.856 27.776-31.112 30.872-60.712 61.984-76.824 103.408-8.336 21.352-12.384 44.528-11.112 67.464 0.552 11.424 2.616 22.936 6.272 33.968 0.792 2.616 11.584 25 11.584 28.416 5.48-5.080 92.464-89.608 182.224-176.752l41.904 41.824c2.224 2.224 4.84 3.656 7.696 4.528-14.048 28.808-5.080 69.44 24.608 99.128 35.552 35.552 86.744 42.064 114.36 14.44 27.624-27.856 21.352-79.048-14.2-114.44-29.688-29.84-70.56-38.808-99.208-24.76-0.952-2.864-2.384-5.48-4.688-7.704l-41.184-41.424c88.328-85.952 171.032-166.272 171.032-166.272 7.776-8.096 7.536-20.872-0.56-28.808z" />
<glyph unicode="&#xe911;" glyph-name="restaurant-o" d="M507.224 939.68c-4.288-0.16-8.416-1.664-11.824-4.28l-467.304-365.8c-8.808-6.904-10.4-19.68-3.496-28.488 6.984-8.808 19.768-10.4 28.576-3.416l28.096 21.984v-534.28c0-11.192 9.128-20.32 20.312-20.32h812.704c11.192 0 20.312 9.128 20.312 20.32v534.28l28.096-21.984c8.808-6.984 21.592-5.392 28.576 3.416 6.904 8.808 5.312 21.584-3.496 28.488l-467.296 365.8c-3.736 2.936-8.496 4.44-13.256 4.28zM507.936 893.568l386.032-302.136v-545.72h-772.064v545.72zM656.192 614.048c-6.352 0.552-12.856 0.4-19.288-0.4-25.632-3.248-51.192-15.872-71.904-36.664-20.792-20.792-33.416-46.352-36.664-71.984-2.304-18.888 0.792-38.256 10.080-54.76l-26.984-26.984-178.736 184.6c-3.888 3.888-9.128 6.192-14.6 6.112-8.256 0-15.632-4.84-18.728-12.384-10.952-26.032-14.92-53.888-13.336-81.344 3.176-54.288 27.856-107.464 66.744-146.352l54.608-54.6-116.984-116.984c-5.32-5.080-7.464-12.704-5.56-19.768 1.824-7.136 7.384-12.696 14.528-14.52 7.064-1.904 14.68 0.24 19.76 5.552l116.984 116.984 57.776-57.856c7.936-7.856 20.792-7.856 28.728 0l59.288 59.368 114.6-118.256c5-5.312 12.544-7.536 19.608-5.792 7.144 1.744 12.776 7.224 14.76 14.208 1.984 7.064 0 14.68-5.16 19.84l-128.176 132.304c-0.232 0.232-0.472 0.552-0.712 0.792l-57.144 58.968 27.384 27.456c16.504-9.28 35.872-12.376 54.76-10.080 25.64 3.256 51.272 15.88 72.064 36.672 20.712 20.712 33.336 46.272 36.592 71.904 3.168 25.712-3.656 52.304-22.464 71.112-14.128 14.128-32.616 21.424-51.824 22.856zM653.256 573.648c10.632-0.712 19.36-4.52 26.032-11.112 8.808-8.888 12.776-21.664 10.872-37.376-1.984-15.712-10.32-33.576-25.080-48.336-14.68-14.68-32.544-23.016-48.256-25-15.712-1.904-28.568 1.984-37.376 10.792-8.816 8.816-12.704 21.592-10.8 37.384 1.984 15.712 10.32 33.496 25 48.256 14.768 14.76 32.624 23.016 48.336 25 3.968 0.472 7.696 0.632 11.272 0.392zM331.112 550.952l162.616-167.776c1.512-2.384 3.416-4.448 5.72-6.032l54.2-55.872-45.392-45.4-55.32 55.32c-1.352 1.824-2.936 3.488-4.84 4.76l-66.512 66.584c-31.824 31.832-52.456 76.672-55 120.080-0.552 9.848 3.256 18.816 4.528 28.336z" />
<glyph unicode="&#xe912;" glyph-name="menu" d="M101.584 878.728c-56.032 0-101.584-45.552-101.584-101.584v-589.208c0-56.032 45.552-101.584 101.584-101.584h325.080c33.576 0 60.952-27.384 60.952-60.952v751.744c0 56.032-45.552 101.584-101.584 101.584zM629.84 878.728c-56.032 0-101.584-45.552-101.584-101.584v-751.744c0 33.568 27.376 60.952 60.952 60.952h325.080c56.032 0 101.584 45.552 101.584 101.584v589.208c0 56.032-45.552 101.584-101.584 101.584zM231.744 756.824c57.544 0 93.336-91.424 93.336-162.536 0-96.512-60.952-84.688-60.952-121.904v-162.544c0-81.272-7.856-101.584-29.84-101.584s-31.112 15.24-31.112 101.584v162.544c0 37.216-60.952 27.064-60.952 121.904 0 66.032 31.904 162.536 89.52 162.536zM629.84 716.192h182.856c11.192 0 20.32-9.048 20.32-20.32s-9.128-20.32-20.32-20.32h-182.856c-11.192 0-20.32 9.048-20.32 20.32s9.128 20.32 20.32 20.32zM893.968 716.192h20.32c11.192 0 20.312-9.048 20.312-20.32s-9.12-20.32-20.312-20.32h-20.32c-11.192 0-20.32 9.048-20.32 20.32s9.128 20.32 20.32 20.32zM629.84 614.6h182.856c11.192 0 20.32-9.048 20.32-20.312 0-11.272-9.128-20.32-20.32-20.32h-182.856c-11.192 0-20.32 9.048-20.32 20.32 0 11.264 9.128 20.312 20.32 20.312zM893.968 614.6h20.32c11.192 0 20.312-9.048 20.312-20.312 0-11.272-9.12-20.32-20.312-20.32h-20.32c-11.192 0-20.32 9.048-20.32 20.32 0 11.264 9.128 20.312 20.32 20.312zM629.84 513.016h182.856c11.192 0 20.32-9.048 20.32-20.32 0-11.264-9.128-20.312-20.32-20.312h-182.856c-11.192 0-20.32 9.048-20.32 20.312 0 11.272 9.128 20.32 20.32 20.32zM893.968 513.016h20.32c11.192 0 20.312-9.048 20.312-20.32 0-11.264-9.12-20.312-20.312-20.312h-20.32c-11.192 0-20.32 9.048-20.32 20.312 0 11.272 9.128 20.32 20.32 20.32zM629.84 411.432h182.856c11.192 0 20.32-9.048 20.32-20.32s-9.128-20.32-20.32-20.32h-182.856c-11.192 0-20.32 9.048-20.32 20.32s9.128 20.32 20.32 20.32zM893.968 411.432h20.32c11.192 0 20.312-9.048 20.312-20.32s-9.12-20.32-20.312-20.32h-20.32c-11.192 0-20.32 9.048-20.32 20.32s9.128 20.32 20.32 20.32zM629.84 309.84h182.856c11.192 0 20.32-9.048 20.32-20.32 0-11.264-9.128-20.312-20.32-20.312h-182.856c-11.192 0-20.32 9.048-20.32 20.312 0 11.272 9.128 20.32 20.32 20.32zM893.968 309.84h20.32c11.192 0 20.312-9.048 20.312-20.32 0-11.264-9.12-20.312-20.312-20.312h-20.32c-11.192 0-20.32 9.048-20.32 20.312 0 11.272 9.128 20.32 20.32 20.32z" />
<glyph unicode="&#xe913;" glyph-name="menu-o" d="M101.584 878.728c-55.872 0-101.584-45.712-101.584-101.584v-589.208c0-55.872 45.712-101.584 101.584-101.584h325.080c33.816 0 60.952-27.464 60.952-60.952 0-6.272 2.936-12.224 7.864-16.032 5-3.888 11.424-5.24 17.536-3.656 5.32 1.352 9.92 4.768 12.696 9.528 1.752 3.096 2.624 6.584 2.544 10.16 0 33.488 27.144 60.952 60.952 60.952h325.080c55.872 0 101.584 45.712 101.584 101.584v589.208c0 55.872-45.712 101.584-101.584 101.584h-325.080c-33.176 0-62.704-16.504-81.272-41.264-18.568 24.76-48.096 41.264-81.272 41.264zM101.584 838.096h325.080c33.888 0 60.952-27.064 60.952-60.952v-673.016c-17.216 13.408-37.616 22.856-60.952 22.856h-325.080c-33.888 0-60.952 27.064-60.952 60.952v589.208c0 33.888 27.064 60.952 60.952 60.952zM589.208 838.096h325.080c33.888 0 60.952-27.064 60.952-60.952v-589.208c0-33.888-27.064-60.952-60.952-60.952h-325.080c-23.336 0-43.728-9.448-60.952-22.856v673.016c0 33.888 27.064 60.952 60.952 60.952zM252.064 777.144c-20.080 0-37.544-8.968-51.432-21.592-13.888-12.616-24.6-28.408-33.016-46.344-16.824-35.792-25.392-78.576-25.392-114.92 0-51.752 19.048-81.432 36.824-97.784 8.888-8.168 16.664-13.488 20.32-17.136 3.648-3.656 3.808-3.256 3.808-6.984v-162.544c0-43.888 1.504-69.84 8.256-89.52 3.328-9.84 8.808-18.888 17.136-24.768 8.336-5.872 18.176-7.616 26.032-7.616 8.656 0 18.736 2.304 26.672 8.888 7.936 6.592 12.776 15.48 15.872 25.4 6.192 19.84 7.616 46.344 7.616 87.616v162.544c0 3.728-0.392 3.408 3.176 6.984 3.568 3.568 11.352 8.408 20.32 16.504 17.936 16.192 37.456 45.872 37.456 98.416 0 38.968-9.44 81.504-27.296 116.824-17.864 35.32-46.832 66.032-86.352 66.032zM252.064 736.504c18.016 0 35.872-15 50.16-43.168 14.28-28.176 22.856-66.904 22.856-99.048 0-43.968-10.952-56.592-23.496-67.936-6.264-5.64-13.728-10.72-21.584-18.416s-15.872-20.712-15.872-35.552v-162.544c0-40-2.384-64.288-5.712-74.92-1.672-5.32-3.496-6.584-3.176-6.352 0.312 0.24 1.744 0-0.64 0-3.168 0-3.016 0.32-2.536 0 0.472-0.312-0.24-0.312-1.904 4.448-3.256 9.52-6.352 34.368-6.352 76.824v162.544c0 14.84-7.456 27.696-15.24 35.552-7.776 7.856-15.232 13.256-21.584 19.048-12.696 11.584-24.128 24.208-24.128 67.304 0 29.68 7.936 68.176 21.592 97.144 6.824 14.44 15.152 26.744 23.488 34.28 8.336 7.544 15.4 10.792 24.128 10.792zM603.808 716.192c-11.192-1.592-19.048-11.984-17.456-23.176 1.584-11.192 11.984-19.048 23.168-17.464h182.864c7.296-0.072 14.12 3.736 17.856 10.080 3.648 6.352 3.648 14.128 0 20.48-3.736 6.352-10.56 10.16-17.856 10.080h-182.864c-0.632 0-1.264 0-1.904 0-0.632 0-1.264 0-1.904 0-0.632 0-1.264 0-1.904 0zM867.936 716.192c-11.192-1.592-19.048-11.984-17.456-23.176 1.584-11.192 11.984-19.048 23.168-17.464h20.32c7.304-0.072 14.128 3.736 17.856 10.080 3.656 6.352 3.656 14.128 0 20.48-3.728 6.352-10.552 10.16-17.856 10.080h-20.32c-0.632 0-1.264 0-1.904 0-0.632 0-1.264 0-1.904 0-0.632 0-1.272 0-1.904 0zM603.808 614.6c-11.192-1.584-19.048-11.984-17.456-23.168 1.584-11.192 11.984-19.048 23.168-17.464h182.864c7.296-0.080 14.12 3.728 17.856 10.080 3.648 6.352 3.648 14.128 0 20.472-3.736 6.352-10.56 10.16-17.856 10.080h-182.864c-0.632 0-1.264 0-1.904 0-0.632 0-1.264 0-1.904 0-0.632 0-1.264 0-1.904 0zM867.936 614.6c-11.192-1.584-19.048-11.984-17.456-23.168 1.584-11.192 11.984-19.048 23.168-17.464h20.32c7.304-0.080 14.128 3.728 17.856 10.080 3.656 6.352 3.656 14.128 0 20.472-3.728 6.352-10.552 10.16-17.856 10.080h-20.32c-0.632 0-1.264 0-1.904 0-0.632 0-1.264 0-1.904 0-0.632 0-1.272 0-1.904 0zM603.808 513.016c-11.192-1.584-19.048-11.984-17.456-23.176 1.584-11.192 11.984-19.048 23.168-17.456h182.864c7.296-0.080 14.12 3.728 17.856 10.080 3.648 6.344 3.648 14.12 0 20.472-3.736 6.352-10.56 10.16-17.856 10.080h-182.864c-0.632 0-1.264 0-1.904 0-0.632 0-1.264 0-1.904 0-0.632 0-1.264 0-1.904 0zM867.936 513.016c-11.192-1.584-19.048-11.984-17.456-23.176 1.584-11.192 11.984-19.048 23.168-17.456h20.32c7.304-0.080 14.128 3.728 17.856 10.080 3.656 6.344 3.656 14.12 0 20.472-3.728 6.352-10.552 10.16-17.856 10.080h-20.32c-0.632 0-1.264 0-1.904 0-0.632 0-1.264 0-1.904 0-0.632 0-1.272 0-1.904 0zM603.808 411.432c-11.192-1.592-19.048-11.984-17.456-23.176 1.584-11.192 11.984-19.048 23.168-17.464h182.864c7.296-0.080 14.12 3.728 17.856 10.080 3.648 6.352 3.648 14.128 0 20.48-3.736 6.344-10.56 10.152-17.856 10.080h-182.864c-0.632 0-1.264 0-1.904 0-0.632 0-1.264 0-1.904 0-0.632 0-1.264 0-1.904 0zM867.936 411.432c-11.192-1.592-19.048-11.984-17.456-23.176 1.584-11.192 11.984-19.048 23.168-17.464h20.32c7.304-0.080 14.128 3.728 17.856 10.080 3.656 6.352 3.656 14.128 0 20.48-3.728 6.344-10.552 10.152-17.856 10.080h-20.32c-0.632 0-1.264 0-1.904 0-0.632 0-1.264 0-1.904 0-0.632 0-1.272 0-1.904 0zM603.808 309.84c-11.192-1.584-19.048-11.984-17.456-23.176 1.584-11.184 11.984-19.048 23.168-17.456h182.864c7.296-0.080 14.12 3.728 17.856 10.080 3.648 6.344 3.648 14.128 0 20.472-3.736 6.352-10.56 10.16-17.856 10.080h-182.864c-0.632 0-1.264 0-1.904 0-0.632 0-1.264 0-1.904 0-0.632 0-1.264 0-1.904 0zM867.936 309.84c-11.192-1.584-19.048-11.984-17.456-23.176 1.584-11.184 11.984-19.048 23.168-17.456h20.32c7.304-0.080 14.128 3.728 17.856 10.080 3.656 6.344 3.656 14.128 0 20.472-3.728 6.352-10.552 10.16-17.856 10.080h-20.32c-0.632 0-1.264 0-1.904 0-0.632 0-1.264 0-1.904 0-0.632 0-1.272 0-1.904 0z" />
<glyph unicode="&#xe914;" glyph-name="table-people-o" d="M182.856 838.096c-44.68 0-81.272-36.592-81.272-81.272s36.592-81.272 81.272-81.272c44.68 0 81.272 36.592 81.272 81.272s-36.592 81.272-81.272 81.272zM833.016 838.096c-44.68 0-81.272-36.592-81.272-81.272s36.592-81.272 81.272-81.272c44.68 0 81.272 36.592 81.272 81.272s-36.592 81.272-81.272 81.272zM182.856 797.464c22.696 0 40.64-17.944 40.64-40.64s-17.944-40.632-40.64-40.632c-22.696 0-40.632 17.936-40.632 40.632s17.936 40.64 40.632 40.64zM833.016 797.464c22.696 0 40.632-17.944 40.632-40.64s-17.936-40.632-40.632-40.632c-22.696 0-40.632 17.936-40.632 40.632s17.936 40.64 40.632 40.64zM182.856 655.24c-44.68 0-81.272-36.592-81.272-81.272l0.16-187.936c0.080-0.552 0.080-1.112 0.16-1.664 3.496-41.904 38.888-74.528 80.952-74.528h91.192l-3.016-20.32h-150.552c-20.96 0-37.944 15.96-39.208 36.912v288.168c0.080 5.48-2.064 10.8-5.952 14.688s-9.208 6.032-14.688 5.952c-11.184-0.24-20.152-9.448-20-20.64v-289.28c0-0.4 0-0.8 0-1.192 1.672-27.384 17.224-50.792 39.528-63.968l-19.048-171.592c-1.272-11.104 6.744-21.184 17.936-22.376 11.112-1.272 21.192 6.744 22.384 17.936l18.408 164.84c0.16 0 0.4-0.080 0.64-0.080h144.44l-20.872-139.208c-1.032-6.824 1.432-13.648 6.584-18.248 0 0 9.448-7.864 24.848-13.896 15.392-5.952 38.328-11.504 69.92-11.504 31.584 0 54.52 5.552 69.92 11.504 6.984 2.784 7.064 3.736 11.264 6.352 4.128-2.616 4.128-3.568 10.88-6.272 15.312-6.032 38.328-11.584 70.472-11.584s55.16 5.552 70.48 11.584c6.744 2.624 6.664 3.656 10.792 6.192 4.128-2.536 4.048-3.568 10.792-6.192 15.32-6.032 38.336-11.584 70.48-11.584 32.136 0 55.152 5.552 70.472 11.584s24.76 14.208 24.76 14.208c4.84 4.608 7.144 11.272 6.112 17.856l-20.872 139.208h144.448c0.232 0 0.472 0.080 0.712 0.080l18.256-164.84c1.264-11.192 11.344-19.208 22.536-18.016 11.112 1.272 19.128 11.352 17.936 22.456l-19.048 171.592c22.224 13.176 37.776 36.584 39.448 63.968 0 0.392 0 0.792 0 1.192v289.28c0.080 5.48-2.064 10.8-5.952 14.688s-9.208 6.032-14.688 5.952c-11.184-0.24-20.152-9.448-20-20.64v-288.168c-1.264-20.952-18.248-36.912-39.2-36.912h-150.56l-3.016 20.32h91.192c42.064 0 77.464 32.624 80.952 74.528 0.080 0.552 0.080 1.112 0.080 1.664l0.24 187.936c0 44.68-36.592 81.272-81.272 81.272-44.368 0-76.432-36.744-81.192-79.048-0.080-0.712-0.080-1.432-0.080-2.224v-142.224h-28.248l-12.624 84.288c-1.504 9.92-10 17.304-20.080 17.304h-365.712c-10.080 0-18.576-7.384-20.080-17.304l-12.616-84.288c-0.56 0-1.032 0-1.592 0h-26.664v142.224c0 0.792 0 1.512-0.080 2.224-4.76 42.304-36.824 79.048-81.192 79.048zM182.856 614.6c22.856 0 37.624-16.504 40.64-42.616v-160.552c0-11.192 9.12-20.32 20.312-20.32h42.464l-6.112-40.632h-97.304c-21.272 0-38.568 15.952-40.472 37.136l-0.16 186.352c0 22.696 17.936 40.632 40.632 40.632zM833.016 614.6c22.696 0 40.632-17.936 40.632-40.632l-0.232-186.352c-1.832-21.184-19.128-37.136-40.4-37.136h-97.304l-6.112 40.632h42.464c11.192 0 20.32 9.128 20.32 20.32v160.552c3.016 26.112 17.776 42.616 40.632 42.616zM342.536 492.696h330.8l56.264-375.472c-1.664-0.792-0.392-0.56-3.568-1.824-10.4-4.128-28.016-8.736-55.552-8.736-27.544 0-45.24 4.608-55.56 8.736-2.856 1.104-3.728 1.744-5.4 2.536v70c0.080 5.48-2.056 10.792-5.952 14.68-3.888 3.888-9.2 6.032-14.68 5.952-11.192-0.232-20.16-9.44-20-20.632v-70c-1.664-0.792-2.536-1.432-5.392-2.536-10.4-4.128-28.016-8.736-55.56-8.736-27.536 0-45.24 4.608-55.552 8.736-2.864 1.104-3.736 1.744-5.4 2.536v110.632c0.080 5.48-2.064 10.8-5.952 14.688s-9.208 6.032-14.68 5.952c-11.192-0.24-20.16-9.448-20-20.64v-110.472c-1.752-0.792-2.784-1.512-5.8-2.616-10.632-4.208-28.328-8.816-55.152-8.816-26.832 0-44.528 4.608-55.16 8.816-3.336 1.264-2.144 1.024-3.968 1.984z" />
<glyph unicode="&#xe915;" glyph-name="table-people" d="M172.696 817.776c-39.2 0-71.112-31.904-71.112-71.112 0-39.2 31.912-71.112 71.112-71.112 39.208 0 71.112 31.912 71.112 71.112 0 39.208-31.904 71.112-71.112 71.112zM843.176 817.776c-39.208 0-71.112-31.904-71.112-71.112 0-39.2 31.904-71.112 71.112-71.112s71.112 31.912 71.112 71.112c0 39.208-31.904 71.112-71.112 71.112zM172.696 655.24c-39.2 0-71.112-31.904-71.112-71.112l0.32-209.048c3.016-36.584 34.048-65.24 70.792-65.24h60.32l15.24 101.592h-4.448l-0.080 173.808c-4.6 41.192-33.728 70-71.032 70zM843.176 655.24c-37.304 0-66.432-28.808-71.032-70l-0.080-173.808h-4.448l15.24-101.592h60.32c36.744 0 67.776 28.656 70.792 65.24l0.32 209.048c0 39.208-31.904 71.112-71.112 71.112zM60.632 635.24c-11.184-0.24-20.152-9.448-20-20.64v-289.28c0-0.4 0-0.8 0-1.192 1.672-27.384 17.224-50.792 39.528-63.968l-19.048-171.592c-1.272-11.104 6.744-21.184 17.936-22.376 11.112-1.272 21.192 6.744 22.384 17.936l18.408 164.84c0.16 0 0.4-0.080 0.64-0.080h144.44l-20.872-139.208c-0.632-4.6 0.24-9.28 2.536-13.248 4.128-7.144 22.864-30.4 89.048-30.4 37.304 0 58.496 8.256 70.72 15.632v146.904c0 11.192 9.048 20.32 20.312 20.32 11.272 0 20.32-9.128 20.32-20.32v-148.328c11.984-7.224 31.112-14.208 60.952-14.208s48.968 6.984 60.952 14.208v107.696c0 11.192 9.048 20.32 20.32 20.32s20.312-9.128 20.312-20.32v-105.472c13.496-7.464 37.064-16.432 72.464-16.432 57.536 0 81.904 23.888 84.448 26.664 4.36 4.528 6.344 10.8 5.392 16.984l-20.872 139.208h144.448c0.232 0 0.472 0.080 0.712 0.080l18.256-164.84c1.264-11.192 11.344-19.208 22.536-18.016 11.112 1.272 19.128 11.352 17.936 22.456l-19.048 171.592c22.224 13.176 37.776 36.584 39.448 63.968 0 0.392 0 0.792 0 1.192v289.28c0.080 5.48-2.064 10.8-5.952 14.688s-9.208 6.032-14.688 5.952c-11.184-0.24-20.152-9.448-20-20.64v-288.168c-1.264-20.952-18.248-36.912-39.2-36.912h-150.56l-33.968 226.512c-1.504 9.92-10 17.304-20.080 17.304h-365.712c-10.080 0-18.576-7.384-20.080-17.304l-33.968-226.512h-150.552c-20.96 0-37.944 15.96-39.208 36.912v288.168c0.080 5.48-2.064 10.8-5.952 14.688s-9.208 6.032-14.688 5.952z" />
<glyph unicode="&#xe916;" glyph-name="table" d="M215.080 736.504l-203.176-203.168h992.064l-203.176 203.168zM0 513.016v-121.904h1015.872v121.904zM60.952 370.792v-426.664h121.904v426.664zM223.496 370.792v-284.44h121.904v284.44zM670.48 370.792v-284.44h121.904v284.44zM833.016 370.792v-426.664h121.904v426.664z" />
<glyph unicode="&#xe917;" glyph-name="table-o" d="M215.080 736.504l-207.304-207.296c-1.504-1.192-2.776-2.464-3.968-3.888l-3.808-3.888v-5c-0.4-2.224-0.4-4.448 0-6.592v-118.728h60.952v-446.984h121.904v446.984h40.64v-304.76h121.904v304.76h325.080v-304.76h121.904v304.76h40.632v-446.984h121.904v446.984h60.952v118.488c0.4 2.224 0.4 4.448 0 6.592v5.24l-3.888 3.968c-1.112 1.344-2.384 2.616-3.728 3.728-0.080 0-0.080 0.080-0.16 0.080l-207.304 207.296zM231.904 695.872h552.064l162.536-162.536h-877.136zM40.632 492.696h934.608v-60.952h-37.224c-2.224 0.4-4.448 0.4-6.584 0h-74.928c-1.184 0.16-2.296 0.32-3.488 0.32-0.952-0.080-1.984-0.16-2.936-0.32h-74.6c-2.224 0.4-4.448 0.4-6.592 0h-74.92c-1.192 0.16-2.304 0.32-3.488 0.32-0.96-0.080-1.984-0.16-2.944-0.32h-359.040c-2.224 0.4-4.448 0.4-6.592 0h-74.92c-1.192 0.16-2.304 0.32-3.488 0.32-0.96-0.080-1.992-0.16-2.944-0.32h-74.6c-2.224 0.4-4.448 0.4-6.584 0h-74.92c-1.192 0.16-2.304 0.32-3.496 0.32-0.952-0.080-1.984-0.16-2.936-0.32h-37.384zM101.584 391.112h40.64v-406.352h-40.64zM264.128 391.112h40.632v-264.128h-40.632zM711.112 391.112h40.632v-264.128h-40.632zM873.648 391.112h40.64v-406.352h-40.64z" />
<glyph unicode="&#xe918;" glyph-name="tags" d="M504.128 919.368c-18.176-0.8-35.48-4.368-48.888-17.784l-398.736-398.728c-10.072-10.080-15.872-23.808-15.872-38.096 0-14.28 5.8-27.376 15.872-37.456l67.304-67.304c3.416 18.728 11.672 35.792 25.4 49.52l399.36 398.736c29.528 29.6 68.496 29.84 92.064 29.84h212.704v17.144c0 35.392-28.736 64.128-64.128 64.128h-266.672c-6.104 0-12.376 0.232-18.408 0zM626.032 797.464c-18.176-0.8-35.48-4.368-48.888-17.784l-398.728-398.728c-10.080-10.080-15.88-23.808-15.88-38.096s5.8-27.376 15.88-37.456l304.76-304.768c10.080-10.080 23.176-15.872 37.456-15.872 14.288 0 28.016 5.792 38.096 15.872l398.736 398.736c17.936 17.936 17.856 43.016 17.776 67.296v26.032c0 51.824 0 188.416 0 229.208v11.432c0 35.392-28.736 64.128-64.128 64.128h-266.664c-6.112 0-12.384 0.232-18.416 0zM812.696 675.552c10.4 0 20.64-4.12 28.576-12.056 15.872-15.88 15.872-41.272 0-57.144s-41.272-15.872-57.144 0c-15.872 15.872-15.872 41.264 0 57.144 7.936 7.936 18.176 12.056 28.568 12.056z" />
<glyph unicode="&#xe919;" glyph-name="tags-o" d="M510.48 919.368c-6.112-0.080-12.224-0.48-18.416-1.272-12.464-1.592-26.032-5.632-36.824-16.512l-398.736-398.728c-20.712-20.712-20.712-54.84 0-75.552l115.56-116.192c0.952-0.952 2.064-1.824 3.176-2.544 0.312-0.312 0.952-0.312 1.264-0.632 0.24-0.24 0.4-0.4 0.64-0.632 0.552-0.56 0.712-1.352 1.272-1.904l304.76-304.768c20.712-20.712 54.84-20.712 75.552 0l398.736 398.736c10.712 10.712 14.92 24.44 16.504 36.824 1.584 12.376 1.272 24.6 1.272 36.192v2.536c0 1.904 0 4.68 0 8.256 0 2.304 0 6.584 0 9.52 0 6.032 0 11.512 0 19.688 0 24.28 0 57.064 0 89.52 0 64.92 0 129.92 0 131.432 0 35.232-28.968 64.128-64.128 64.128h-57.776v57.776c0 35.24-28.888 64.128-64.128 64.128h-260.952c-5.64 0-11.672 0.080-17.776 0zM511.112 878.728c5.16 0 11.112 0 17.144 0h260.952c13.256 0 23.488-10.232 23.488-23.488v-57.776h-76.192c-0.792 0.872-1.664 1.664-2.536 2.536-11.824 11.824-27.536 17.776-43.176 17.776-15.632 0-31.344-5.952-43.176-17.776-0.872-0.872-1.744-1.664-2.536-2.536-9.92 0.072-20.48 0.072-31.112-1.272-12.464-1.592-26.032-5.64-36.824-16.512l-398.728-398.728c-3.176-3.176-6.032-6.504-8.256-10.16l-85.080 85.080c-5.24 5.24-5.16 13.256 0 18.416l398.728 398.728c2.144 2.144 6.192 4.048 13.968 5.080 3.888 0.472 8.176 0.632 13.336 0.632zM633.016 756.824h278.096c13.256 0 23.488-10.24 23.488-23.488 0-1.272 0-66.512 0-131.432 0-32.456 0-65.24 0-89.52 0-12.144 0-22.144 0-29.208 0-3.576 0-6.352 0-8.256 0-0.952 0-1.424 0-1.904s0-0.632 0-0.632c0-12.304 0.4-23.416-0.632-31.112-1.032-7.704-2.856-11.112-5.080-13.336l-398.728-398.728c-5.24-5.24-13.256-5.16-18.416 0l-304.76 304.76c-5.24 5.24-5.16 13.256 0 18.416l398.728 398.728c2.144 2.144 6.192 4.048 13.968 5.080 3.888 0.472 8.176 0.632 13.336 0.632zM812.696 695.872c-15.632 0-31.344-5.952-43.176-17.776-23.648-23.648-23.648-62.696 0-86.352 23.656-23.648 62.704-23.648 86.352 0 23.648 23.656 23.648 62.704 0 86.352-11.824 11.824-27.536 17.776-43.176 17.776zM812.696 655.24c5.16 0 10.56-1.672 14.608-5.72 8.096-8.088 8.096-21.104 0-29.2s-21.112-8.096-29.208 0c-8.096 8.096-8.096 21.112 0 29.2 4.048 4.048 9.44 5.72 14.6 5.72z" />
<glyph unicode="&#xe91a;" glyph-name="takeaway-o" d="M234.368 899.048c-42.144 0-80.16-26.272-95-65.712l-56.832-150.56c-2.936-7.856-0.792-16.664 5.4-22.296 6.272-5.64 15.24-6.832 22.696-3.096l108.816 54.36 50.632-50.552c6.192-6.192 15.632-7.696 23.488-3.808l108.736 54.36 50.632-50.552c6.192-6.192 15.632-7.696 23.496-3.808l108.728 54.36 50.632-50.552c4.84-4.84 11.904-6.984 18.656-5.48 6.744 1.432 12.296 6.192 14.76 12.624l64.128 170.232c4.28 11.592 15.312 19.848 28.568 19.848 17.064 0 30.48-13.416 30.48-30.48v-87.304l-100-240.080c-1.112-2.536-1.592-5.152-1.592-7.856v-446.984h-568.888v442.856l68.416 163.176-55.8-27.856-51.664-123.336c-1.032-2.456-1.584-5.152-1.584-7.856v-467.296c0-11.272 9.128-20.32 20.312-20.32h812.704c11.192 0 20.312 9.128 20.312 20.32v467.296c0 2.704-0.552 5.32-1.584 7.856l-100 240.080v87.304c0 37.856-30.32 68.968-67.776 70.792-0.32 0-0.72 0.080-1.032 0.16-0.64 0.080-1.352 0.16-1.984 0.16-0.16 0-0.24 0-0.32 0zM234.368 858.416h465.232c-1.032-2.144-3.488-3.336-4.36-5.56l-53.016-140.712-38.656 38.728c-6.184 6.192-15.632 7.696-23.488 3.808l-108.728-54.36-50.64 50.552c-6.192 6.192-15.632 7.696-23.488 3.808l-108.728-54.36-50.64 50.552c-6.192 6.192-15.632 7.696-23.488 3.808l-75.48-37.776 38.496 102.064c8.968 23.808 31.584 39.448 56.984 39.448zM812.696 683.648l81.272-195v-442.936h-162.536v442.936zM264.128 391.112c-11.192 0-20.32-9.128-20.32-20.32v-203.176c0-11.184 9.128-20.312 20.32-20.312h284.44c11.192 0 20.32 9.128 20.32 20.312v203.176c0 11.192-9.128 20.32-20.32 20.32zM284.448 350.48h243.808v-162.544h-243.808z" />
<glyph unicode="&#xe91b;" glyph-name="takeaway" d="M210.4 899.048c-44.848 0-76.592-18.648-89.92-54.528l-38.576-143.408c-2.064-8.016 0.792-16.512 7.464-21.512 6.584-5 15.552-5.472 22.696-1.184l87.936 52.776 49.76-49.688c6.352-6.344 16.192-7.776 24.048-3.488l98.416 53.728 50.24-50.24c3.888-3.888 9.12-5.952 14.36-5.952 3.336 0 6.672 0.8 9.76 2.464l98.416 53.728 50.24-50.24c4.92-4.92 12.064-6.984 18.968-5.392 6.904 1.584 12.376 6.664 14.6 13.336l66.112 194.76c1.824 5.312 4.128 10.16 6.744 14.84zM771.192 899.048c-17.624-0.4-32.464-11.984-37.776-27.936l-66.112-194.528c-7.224-21.824-25.952-37.616-49.208-41.032-19.76-2.936-39.528 5.16-53.648 19.208l-26.672 26.744-71.744-39.12c-23.728-12.936-53.096-8.656-72.304 10.392l-28.648 28.728-71.744-39.12c-23.736-12.936-53.176-8.736-72.304 10.392l-27.224 27.304-26.984-16.192-84.288-173.408c-0.632-1.984-1.264-3.896-1.264-5.96v-459.12c0-11.192 9.128-20.32 20.312-20.32h609.528v487.616c0 3.096 0.712 6.112 2.064 8.888l99.52 204.848v149.76c0 20.24-13.808 39.048-33.808 42.304-2.616 0.392-5.16 0.632-7.696 0.552zM843.176 675.552l-90.24-185.072c-0.552-1.984-1.192-3.896-1.192-5.96v-479.44h162.544c11.192 0 20.312 9.128 20.312 20.32v457.696c0 3.176-0.712 6.272-2.136 9.048zM243.808 370.792h304.76v-203.176h-304.76z" />
<glyph unicode="&#xe91c;" glyph-name="waiter-alt-o" d="M203.176 919.368c-89.528 0-162.544-73.016-162.544-162.544 0-89.52 73.016-162.536 162.544-162.536 89.52 0 162.536 73.016 162.536 162.536 0 89.528-73.016 162.544-162.536 162.544zM203.176 878.728c67.536 0 121.904-54.36 121.904-121.904 0-67.536-54.368-121.904-121.904-121.904-67.544 0-121.904 54.368-121.904 121.904 0 67.544 54.36 121.904 121.904 121.904zM790.48 730.16c-20.16 0-36.832-16.032-36.832-36.192 0-7.856 2.784-15 6.984-20.952-97.376-15.16-171.424-98.968-171.424-200.632h-3.808c-0.88 0.080-1.672 0.080-2.544 0-11.192-0.72-19.76-10.4-19.048-21.592s10.4-19.76 21.592-19.048h55.232l-78.728-76.824-114.288 169.528c-0.712 1.104-1.584 2.216-2.536 3.168-10.712 10.72-22.384 12.784-35.56 15.88-13.168 3.088-27.536 5.552-41.904 6.984-28.728 2.936-55.632 3.168-62.856 3.168-9.44-0.080-17.616-6.664-19.68-15.872l-81.904-344.128-81.904 344.128c-2.064 9.208-10.24 15.792-19.688 15.872-16.664 0-56.824-3.968-84.44-8.248-7.624-0.56-14.288-5.4-17.224-12.464s-1.664-15.24 3.336-21.032c5-5.792 12.776-8.336 20.24-6.504 20.232 3.096 46.664 5.232 62.856 6.344l97.144-409.52c2.296-8.968 10.392-15.24 19.68-15.24s17.376 6.272 19.68 15.24l97.776 410.16c11.192-0.32 23.176-0.56 42.544-2.544 13.328-1.344 27.144-3.256 37.456-5.712 9.92-2.304 16.112-6.824 15.24-5.712 0 0.080 0.712-0.080 0.632 0l125.72-186.032c3.408-4.848 8.648-7.936 14.52-8.496 5.872-0.632 11.672 1.352 15.952 5.32l126.352 122.536h150.472c-4.92-1.664-8.088-3.488-13.328-5.080-18.336-5.472-37.384-10.392-54.608-15.872-17.216-5.472-32.136-9.288-44.44-21.584-0.24-0.4-0.48-0.872-0.64-1.272 0 0-35.392-40.712-71.744-83.176-18.176-21.192-36.192-42.376-50.792-59.68s-24.448-28.256-29.208-34.92h0.64c-8.736-11.664-14.688-17.464-17.784-19.68-3.096-2.224-3.328-2.544-8.888-2.544-2.224 0-4.76 0.56-9.52 4.448s-10.64 10.872-17.776 19.048l-89.528 101.584c-5.552 6.352-14.44 8.568-22.384 5.552-7.856-2.936-13.088-10.472-13.168-18.888v-274.28h-386.032c-7.304 0.080-14.128-3.736-17.856-10.080-3.656-6.352-3.656-14.128 0-20.48 3.728-6.344 10.552-10.16 17.856-10.080h406.344c11.192 0 20.32 9.128 20.32 20.32v240.632l53.968-60.952c7.064-8.096 13.968-16.192 22.856-23.488 8.888-7.304 20.872-13.968 34.92-13.968 10.64 0 22.776 3.248 32.384 10.16 9.6 6.904 17.144 15.872 26.664 28.568 0.32 0.472 12.144 15.24 26.672 32.384 14.52 17.136 33.248 39.12 51.424 60.312 35.952 42.064 69.92 81.272 70.48 81.904 0 0 0.632 0.64 0.632 0.64 0.552 0.312 11.512 5.952 26.664 10.792 15.56 4.92 35.32 10.16 54.608 15.872 19.28 5.712 38.096 11.664 53.968 20.32 7.936 4.28 14.76 9.6 20.952 16.504 1.824 2.064 3.488 4.528 5.080 6.984h69.208c7.296-0.080 14.12 3.736 17.856 10.080 3.648 6.352 3.648 14.128 0 20.48-3.736 6.344-10.56 10.16-17.856 10.080h-1.912c0 102.776-75.712 187.456-174.6 201.264 3.968 5.872 5.712 12.784 5.712 20.32 0 20.16-16.032 36.192-36.184 36.192zM792.384 634.92c90.712 0 162.536-71.824 162.536-162.536h-325.080c0 90.712 71.824 162.536 162.544 162.536z" />
<glyph unicode="&#xe91d;" glyph-name="waiter-alt" d="M203.176 919.368c-89.608 0-162.544-72.936-162.544-162.544 0-89.6 72.936-162.536 162.544-162.536 89.6 0 162.536 72.936 162.536 162.536 0 89.608-72.936 162.544-162.536 162.544zM790.48 730.16c-20.16 0-36.832-16.032-36.832-36.192 0-8.096 2.544-15.552 6.984-21.584-96.904-15.32-171.424-98.816-171.424-200h-3.808c-11.272 0-20.32-9.128-20.32-20.32s9.048-20.32 20.32-20.32h412.064c11.184 0 20.312 9.128 20.312 20.32s-9.048 20.32-20.312 20.32h-1.272c0 1.424-0.32 3.096-0.64 4.44-2.056 100.4-77.456 182.384-174.6 196.192 4.128 5.952 5.712 13.176 5.712 20.952 0 20.16-16.032 36.192-36.184 36.192zM101.584 553.648c-14.28 0-58.488-4.28-84.44-8.248-9.92-1.512-17.144-10.32-17.144-20.32v-520c0-11.272 9.128-20.32 20.32-20.32h406.344c11.192 0 20.32 9.048 20.32 20.32v240.632l54.6-61.584c15.8-18.016 31.912-36.824 57.144-36.824 25.64 0 38.808 11.664 59.048 38.728 7.064 9.84 93.496 110.632 148.576 174.6 6.032 5.952 37.064 14.528 57.776 20.32 30.392 8.568 61.744 17.464 83.176 30.48h-287.624l-57.776-55.88-114.288 168.896c-0.712 1.032-1.584 2.296-2.536 3.168-25 25-121.272 26.032-140.32 26.032-9.44 0-17.536-6.744-19.68-15.872l-81.904-343.488-81.904 343.488c-2.144 9.128-10.24 15.872-19.688 15.872z" />
<glyph unicode="&#xe91e;" glyph-name="add-admin-o" d="M446.584 919.368c-78.088-1.752-134.2-24.368-166.904-67.304-36.904-48.568-43.328-120.952-19.68-221.112-8.336-10.792-15.952-28.016-13.968-51.584 5.952-43.968 22.696-62.064 36.352-69.448 6.824-36.584 26.824-75.4 44.76-93.728 0.080-4.528 0.16-8.888 0.24-13.256 0.392-19.44 0.632-36.272-1.904-57.856-11.112-28.576-52.384-44.92-100.080-63.808-79.288-31.432-177.936-70.56-184.768-193.888l-1.112-21.352h475.96c-3.896 8.016-7.224 16.352-10.4 24.76-5.952 71.744-47.936 141.824-47.936 141.824l44.048 38.576c-5.64 11.272-12.384 19.84-19.048 26.824l37.776 20.952c3.016 5.792 6.432 11.352 9.84 16.904 4.208 6.904 8.736 13.576 13.416 20 1.112 1.432 2.064 2.936 3.176 4.368 5.872 7.696 12.144 15.16 18.728 22.224-0.16 11.104-0.24 21.984-0.24 33.968 17.624 18.568 36.352 57.456 44.128 92.696 14.6 6.904 32.856 24.84 37.064 71.272 1.904 22.856-4.368 39.68-13.016 50.472 13.416 42.064 36.192 135.4-1.272 197.304-17.064 28.176-43.728 45.872-79.44 52.936-19.608 24.76-56.592 38.256-105.72 38.256zM446.984 878.728c38.416 0 66.112-9.68 75.872-26.504l5-8.496 9.68-1.344c28.016-3.968 47.464-15.48 59.368-35.24 26.112-43.016 12.776-121.432-6.504-175.48l-6.432-16.744 16.112-8.096c1.824-1.272 6.664-8.256 5.472-22.856-2.776-30.080-12.296-38.096-14.36-38.488h-17.544l-2.536-17.464c-5.56-39.048-28.968-79.128-36.664-84.76l-10.24-5.792v-11.832c0-20.712 0.24-38.488 0.872-57.296l-78.096-43.336-79.128 43.888c0.4 11.984 0.32 23.336 0.080 34.84-0.080 6.984-0.24 14.208-0.24 21.984l-1.264 11.432-8.656 6.032c-8.016 5.472-33.256 46.032-36.824 83.968l-0.32 18.256h-18.408c-2.936 1.104-11.984 10.712-15.872 38.408-1.352 16.984 7.296 24.048 7.296 24.048l12.064 8.016-3.568 13.888c-23.648 93.176-20.4 157.856 9.92 197.704 24.76 32.536 70.32 49.84 134.92 51.264zM772.064 431.744c-134.288 0-243.808-109.6-243.808-243.808s109.52-243.808 243.808-243.808c134.288 0 243.808 109.6 243.808 243.808s-109.52 243.808-243.808 243.808zM772.064 391.112c112.224 0 203.176-90.952 203.176-203.176s-90.952-203.176-203.176-203.176c-112.224 0-203.176 90.952-203.176 203.176s90.952 203.176 203.176 203.176zM361.112 326.192l50.712-28.176-46.344-57.616-37.944 46.032c14.688 10.872 26.272 23.728 33.576 39.76zM751.744 309.84v-101.584h-101.584v-40.64h101.584v-101.584h40.64v101.584h101.584v40.64h-101.584v101.584zM292.064 265.552l58.016-70.232c3.808-4.688 9.68-7.464 15.792-7.384 6.112 0 11.824 2.856 15.712 7.616l39.848 49.528 15.392-12.464c0 0-35.632-61.184-45.872-125.952h-307.224c14.92 80.72 86.904 109.208 156.592 136.832 18.016 7.136 35.552 14.2 51.744 22.056z" />
<glyph unicode="&#xe91f;" glyph-name="add-admin" d="M446.584 919.368c-78.088-1.752-134.2-24.368-166.904-67.304-36.904-48.568-43.328-120.952-19.68-221.112-8.336-10.792-15.952-28.016-13.968-51.584 5.952-43.968 22.776-62.064 36.352-69.448 6.824-36.584 26.824-75.4 44.76-93.728 0.080-4.528 0.16-8.888 0.24-13.256 0.392-19.44 0.632-36.272-1.904-57.856-4.128-10.712-12.544-19.68-23.976-27.776l63.896-76.984 59.68 74.128c5.4 6.664 14.128 12.856 21.904 10.472 7.696 2.384 16.512-3.808 21.904-10.472l13.496-16.752c3.968-4.128 7.936-8.968 11.664-14.52l38.968-47.144c-3.096-15.552-4.76-31.664-4.76-48.096h-0.16c-6.112 0.080-11.824 2.856-15.712 7.616l-40.32 50.16-14.92-13.096c0 0 35.952-60.080 46.032-125.952h-112.304c10.24 64.768 45.952 125.952 45.952 125.952l-15.392 12.464-39.848-49.528c-3.888-4.76-9.6-7.536-15.712-7.616h-0.16c-6.032 0-11.744 2.696-15.632 7.304l-85.080 102.456c-12.304-5.552-25.632-10.872-39.6-16.424-79.288-31.352-177.936-70.48-184.768-193.808l-1.112-21.432h521.832c42.296-72.696 120.872-121.904 210.712-121.904 134.288 0 243.808 109.6 243.808 243.808s-109.52 243.808-243.808 243.808c-80.48 0-151.824-39.52-196.272-100-3.176 3.736-5.872 7.624-7.696 11.824-1.192 24.608-3.256 63.968-3.256 72.864 17.624 18.568 36.272 57.456 44.048 92.696 14.608 6.904 32.936 24.84 37.144 71.272 1.904 22.856-4.368 39.6-13.016 50.472 13.416 42.064 36.192 135.4-1.272 197.304-17.064 28.176-43.728 45.872-79.44 52.936-19.688 24.76-56.592 38.256-105.72 38.256zM446.984 878.728c38.416 0 66.112-9.68 75.872-26.504l5-8.496 9.68-1.344c28.016-3.968 47.464-15.48 59.368-35.24 26.112-43.016 12.776-121.432-6.504-175.48l-6.432-16.744 16.112-8.096c1.824-1.272 6.664-8.256 5.472-22.856-2.776-30.080-12.296-38.096-14.36-38.488h-17.544l-2.536-17.464c-5.56-39.048-28.968-79.128-36.664-84.76l-10.24-5.792v-11.832c0-21.032 0.080-38.248 0.632-57.376l-77.856-43.256-79.048 43.888c0.4 11.984 0.24 23.336 0 34.84-0.080 6.984-0.24 14.208-0.24 21.984l-1.264 11.432-8.656 6.032c-8.016 5.472-33.256 46.032-36.824 83.968l-0.32 18.256h-18.408c-2.936 1.104-11.984 10.712-15.872 38.408-1.352 16.984 7.296 24.048 7.296 24.048l12.064 8.016-3.568 13.888c-23.648 93.176-20.4 157.856 9.92 197.704 24.76 32.536 70.32 49.84 134.92 51.264zM772.064 391.112c112.224 0 203.176-90.952 203.176-203.176s-90.952-203.176-203.176-203.176c-112.224 0-203.176 90.952-203.176 203.176s90.952 203.176 203.176 203.176zM751.744 309.84v-101.584h-101.584v-40.64h101.584v-101.584h40.64v101.584h101.584v40.64h-101.584v101.584z" />
</font>
</defs>
</svg>
